<?xml version="1.0" encoding="utf-8" standalone="no"?>
<!DOCTYPE svg PUBLIC "-//W3C//DTD SVG 1.1//EN"
  "http://www.w3.org/Graphics/SVG/1.1/DTD/svg11.dtd">
<!-- Created with matplotlib (https://matplotlib.org/) -->
<svg height="576pt" version="1.1" viewBox="0 0 576 576" width="576pt" xmlns="http://www.w3.org/2000/svg" xmlns:xlink="http://www.w3.org/1999/xlink">
 <metadata>
  <rdf:RDF xmlns:cc="http://creativecommons.org/ns#" xmlns:dc="http://purl.org/dc/elements/1.1/" xmlns:rdf="http://www.w3.org/1999/02/22-rdf-syntax-ns#">
   <cc:Work>
    <dc:type rdf:resource="http://purl.org/dc/dcmitype/StillImage"/>
    <dc:date>2020-09-05T18:24:02.742587</dc:date>
    <dc:format>image/svg+xml</dc:format>
    <dc:creator>
     <cc:Agent>
      <dc:title>Matplotlib v3.3.1, https://matplotlib.org/</dc:title>
     </cc:Agent>
    </dc:creator>
   </cc:Work>
  </rdf:RDF>
 </metadata>
 <defs>
  <style type="text/css">*{stroke-linecap:butt;stroke-linejoin:round;}</style>
 </defs>
 <g id="figure_1">
  <g id="patch_1">
   <path d="M 0 576 
L 576 576 
L 576 0 
L 0 0 
z
" style="fill:none;"/>
  </g>
  <g id="axes_1">
   <g id="patch_2">
    <path d="M 72 504 
L 518.4 504 
L 518.4 69.12 
L 72 69.12 
z
" style="fill:#ffffff;"/>
   </g>
   <g id="PathCollection_1">
    <defs>
     <path d="M 0 0.5 
C 0.132602 0.5 0.25979 0.447317 0.353553 0.353553 
C 0.447317 0.25979 0.5 0.132602 0.5 0 
C 0.5 -0.132602 0.447317 -0.25979 0.353553 -0.353553 
C 0.25979 -0.447317 0.132602 -0.5 0 -0.5 
C -0.132602 -0.5 -0.25979 -0.447317 -0.353553 -0.353553 
C -0.447317 -0.25979 -0.5 -0.132602 -0.5 0 
C -0.5 0.132602 -0.447317 0.25979 -0.353553 0.353553 
C -0.25979 0.447317 -0.132602 0.5 0 0.5 
z
" id="m9889457b0b" style="stroke:#1f77b4;"/>
    </defs>
    <g clip-path="url(#p7ca5cc3af7)">
     <use style="fill:#1f77b4;stroke:#1f77b4;" x="271.499769" xlink:href="#m9889457b0b" y="264.516572"/>
     <use style="fill:#1f77b4;stroke:#1f77b4;" x="222.27321" xlink:href="#m9889457b0b" y="289.327746"/>
     <use style="fill:#1f77b4;stroke:#1f77b4;" x="289.958069" xlink:href="#m9889457b0b" y="300.327026"/>
     <use style="fill:#1f77b4;stroke:#1f77b4;" x="318.900231" xlink:href="#m9889457b0b" y="308.603428"/>
     <use style="fill:#1f77b4;stroke:#1f77b4;" x="475.922399" xlink:href="#m9889457b0b" y="312.364973"/>
     <use style="fill:#1f77b4;stroke:#1f77b4;" x="402.293062" xlink:href="#m9889457b0b" y="279.847299"/>
     <use style="fill:#1f77b4;stroke:#1f77b4;" x="398.820444" xlink:href="#m9889457b0b" y="280.730386"/>
     <use style="fill:#1f77b4;stroke:#1f77b4;" x="420.023765" xlink:href="#m9889457b0b" y="308.343636"/>
     <use style="fill:#1f77b4;stroke:#1f77b4;" x="400.618398" xlink:href="#m9889457b0b" y="313.200838"/>
     <use style="fill:#1f77b4;stroke:#1f77b4;" x="348.028536" xlink:href="#m9889457b0b" y="285.927029"/>
     <use style="fill:#1f77b4;stroke:#1f77b4;" x="478.420631" xlink:href="#m9889457b0b" y="268.631333"/>
     <use style="fill:#1f77b4;stroke:#1f77b4;" x="322.519548" xlink:href="#m9889457b0b" y="292.113594"/>
     <use style="fill:#1f77b4;stroke:#1f77b4;" x="311.123268" xlink:href="#m9889457b0b" y="312.333979"/>
     <use style="fill:#1f77b4;stroke:#1f77b4;" x="440.885617" xlink:href="#m9889457b0b" y="304.094542"/>
     <use style="fill:#1f77b4;stroke:#1f77b4;" x="291.848177" xlink:href="#m9889457b0b" y="237.858084"/>
     <use style="fill:#1f77b4;stroke:#1f77b4;" x="424.993212" xlink:href="#m9889457b0b" y="130.172"/>
     <use style="fill:#1f77b4;stroke:#1f77b4;" x="310.869927" xlink:href="#m9889457b0b" y="281.548109"/>
     <use style="fill:#1f77b4;stroke:#1f77b4;" x="335.840227" xlink:href="#m9889457b0b" y="302.986514"/>
     <use style="fill:#1f77b4;stroke:#1f77b4;" x="356.15077" xlink:href="#m9889457b0b" y="343.28664"/>
     <use style="fill:#1f77b4;stroke:#1f77b4;" x="285.680545" xlink:href="#m9889457b0b" y="335.745918"/>
     <use style="fill:#1f77b4;stroke:#1f77b4;" x="383.961463" xlink:href="#m9889457b0b" y="250.448493"/>
     <use style="fill:#1f77b4;stroke:#1f77b4;" x="498.109091" xlink:href="#m9889457b0b" y="295.66307"/>
     <use style="fill:#1f77b4;stroke:#1f77b4;" x="300.441931" xlink:href="#m9889457b0b" y="272.792974"/>
     <use style="fill:#1f77b4;stroke:#1f77b4;" x="330.62916" xlink:href="#m9889457b0b" y="279.334758"/>
     <use style="fill:#1f77b4;stroke:#1f77b4;" x="437.407364" xlink:href="#m9889457b0b" y="251.683642"/>
     <use style="fill:#1f77b4;stroke:#1f77b4;" x="248.369119" xlink:href="#m9889457b0b" y="339.920633"/>
     <use style="fill:#1f77b4;stroke:#1f77b4;" x="435.075006" xlink:href="#m9889457b0b" y="258.356153"/>
     <use style="fill:#1f77b4;stroke:#1f77b4;" x="285.000762" xlink:href="#m9889457b0b" y="345.5338"/>
     <use style="fill:#1f77b4;stroke:#1f77b4;" x="360.50715" xlink:href="#m9889457b0b" y="109.708191"/>
     <use style="fill:#1f77b4;stroke:#1f77b4;" x="266.924307" xlink:href="#m9889457b0b" y="275.214588"/>
     <use style="fill:#1f77b4;stroke:#1f77b4;" x="235.052046" xlink:href="#m9889457b0b" y="277.131323"/>
     <use style="fill:#1f77b4;stroke:#1f77b4;" x="339.001128" xlink:href="#m9889457b0b" y="324.900158"/>
     <use style="fill:#1f77b4;stroke:#1f77b4;" x="251.613865" xlink:href="#m9889457b0b" y="333.439705"/>
     <use style="fill:#1f77b4;stroke:#1f77b4;" x="315.526079" xlink:href="#m9889457b0b" y="268.614203"/>
     <use style="fill:#1f77b4;stroke:#1f77b4;" x="401.959481" xlink:href="#m9889457b0b" y="260.317065"/>
     <use style="fill:#1f77b4;stroke:#1f77b4;" x="287.415163" xlink:href="#m9889457b0b" y="307.858592"/>
     <use style="fill:#1f77b4;stroke:#1f77b4;" x="389.211298" xlink:href="#m9889457b0b" y="129.532337"/>
     <use style="fill:#1f77b4;stroke:#1f77b4;" x="253.034738" xlink:href="#m9889457b0b" y="281.683344"/>
     <use style="fill:#1f77b4;stroke:#1f77b4;" x="324.66979" xlink:href="#m9889457b0b" y="269.942214"/>
     <use style="fill:#1f77b4;stroke:#1f77b4;" x="420.331651" xlink:href="#m9889457b0b" y="290.483107"/>
     <use style="fill:#1f77b4;stroke:#1f77b4;" x="252.34053" xlink:href="#m9889457b0b" y="260.780471"/>
     <use style="fill:#1f77b4;stroke:#1f77b4;" x="230.688453" xlink:href="#m9889457b0b" y="328.976038"/>
     <use style="fill:#1f77b4;stroke:#1f77b4;" x="411.074342" xlink:href="#m9889457b0b" y="246.414874"/>
     <use style="fill:#1f77b4;stroke:#1f77b4;" x="316.086855" xlink:href="#m9889457b0b" y="149.69367"/>
     <use style="fill:#1f77b4;stroke:#1f77b4;" x="238.249009" xlink:href="#m9889457b0b" y="308.099987"/>
     <use style="fill:#1f77b4;stroke:#1f77b4;" x="284.939455" xlink:href="#m9889457b0b" y="274.381538"/>
     <use style="fill:#1f77b4;stroke:#1f77b4;" x="324.841088" xlink:href="#m9889457b0b" y="127.503356"/>
     <use style="fill:#1f77b4;stroke:#1f77b4;" x="234.915008" xlink:href="#m9889457b0b" y="307.099471"/>
     <use style="fill:#1f77b4;stroke:#1f77b4;" x="212.806737" xlink:href="#m9889457b0b" y="266.29965"/>
     <use style="fill:#1f77b4;stroke:#1f77b4;" x="419.276815" xlink:href="#m9889457b0b" y="260.029464"/>
     <use style="fill:#1f77b4;stroke:#1f77b4;" x="217.815854" xlink:href="#m9889457b0b" y="329.828922"/>
     <use style="fill:#1f77b4;stroke:#1f77b4;" x="306.643823" xlink:href="#m9889457b0b" y="277.07182"/>
     <use style="fill:#1f77b4;stroke:#1f77b4;" x="239.078453" xlink:href="#m9889457b0b" y="291.716904"/>
     <use style="fill:#1f77b4;stroke:#1f77b4;" x="240.665214" xlink:href="#m9889457b0b" y="268.258985"/>
     <use style="fill:#1f77b4;stroke:#1f77b4;" x="396.690713" xlink:href="#m9889457b0b" y="264.952932"/>
     <use style="fill:#1f77b4;stroke:#1f77b4;" x="232.381599" xlink:href="#m9889457b0b" y="315.244244"/>
     <use style="fill:#1f77b4;stroke:#1f77b4;" x="269.262977" xlink:href="#m9889457b0b" y="286.748358"/>
     <use style="fill:#1f77b4;stroke:#1f77b4;" x="331.909387" xlink:href="#m9889457b0b" y="110.51239"/>
     <use style="fill:#1f77b4;stroke:#1f77b4;" x="234.871732" xlink:href="#m9889457b0b" y="258.439999"/>
     <use style="fill:#1f77b4;stroke:#1f77b4;" x="225.814572" xlink:href="#m9889457b0b" y="356.537898"/>
     <use style="fill:#1f77b4;stroke:#1f77b4;" x="243.097646" xlink:href="#m9889457b0b" y="284.985791"/>
     <use style="fill:#1f77b4;stroke:#1f77b4;" x="423.443866" xlink:href="#m9889457b0b" y="293.206295"/>
     <use style="fill:#1f77b4;stroke:#1f77b4;" x="188.106938" xlink:href="#m9889457b0b" y="293.272701"/>
     <use style="fill:#1f77b4;stroke:#1f77b4;" x="191.579556" xlink:href="#m9889457b0b" y="292.389614"/>
     <use style="fill:#1f77b4;stroke:#1f77b4;" x="170.376235" xlink:href="#m9889457b0b" y="264.776364"/>
     <use style="fill:#1f77b4;stroke:#1f77b4;" x="189.781602" xlink:href="#m9889457b0b" y="259.919162"/>
     <use style="fill:#1f77b4;stroke:#1f77b4;" x="242.371464" xlink:href="#m9889457b0b" y="287.192971"/>
     <use style="fill:#1f77b4;stroke:#1f77b4;" x="111.979369" xlink:href="#m9889457b0b" y="304.488667"/>
     <use style="fill:#1f77b4;stroke:#1f77b4;" x="267.880452" xlink:href="#m9889457b0b" y="281.006406"/>
     <use style="fill:#1f77b4;stroke:#1f77b4;" x="279.276732" xlink:href="#m9889457b0b" y="260.786021"/>
     <use style="fill:#1f77b4;stroke:#1f77b4;" x="298.551823" xlink:href="#m9889457b0b" y="335.261916"/>
     <use style="fill:#1f77b4;stroke:#1f77b4;" x="149.514383" xlink:href="#m9889457b0b" y="269.025458"/>
     <use style="fill:#1f77b4;stroke:#1f77b4;" x="165.406788" xlink:href="#m9889457b0b" y="442.948"/>
     <use style="fill:#1f77b4;stroke:#1f77b4;" x="279.530073" xlink:href="#m9889457b0b" y="291.571891"/>
     <use style="fill:#1f77b4;stroke:#1f77b4;" x="254.559773" xlink:href="#m9889457b0b" y="270.133486"/>
     <use style="fill:#1f77b4;stroke:#1f77b4;" x="234.24923" xlink:href="#m9889457b0b" y="229.83336"/>
     <use style="fill:#1f77b4;stroke:#1f77b4;" x="304.719455" xlink:href="#m9889457b0b" y="237.374082"/>
     <use style="fill:#1f77b4;stroke:#1f77b4;" x="206.438537" xlink:href="#m9889457b0b" y="322.671507"/>
     <use style="fill:#1f77b4;stroke:#1f77b4;" x="92.290909" xlink:href="#m9889457b0b" y="277.45693"/>
     <use style="fill:#1f77b4;stroke:#1f77b4;" x="259.77084" xlink:href="#m9889457b0b" y="293.785242"/>
     <use style="fill:#1f77b4;stroke:#1f77b4;" x="152.992636" xlink:href="#m9889457b0b" y="321.436358"/>
     <use style="fill:#1f77b4;stroke:#1f77b4;" x="342.030881" xlink:href="#m9889457b0b" y="233.199367"/>
     <use style="fill:#1f77b4;stroke:#1f77b4;" x="155.324994" xlink:href="#m9889457b0b" y="314.763847"/>
     <use style="fill:#1f77b4;stroke:#1f77b4;" x="305.399238" xlink:href="#m9889457b0b" y="227.5862"/>
     <use style="fill:#1f77b4;stroke:#1f77b4;" x="368.12679" xlink:href="#m9889457b0b" y="283.792254"/>
     <use style="fill:#1f77b4;stroke:#1f77b4;" x="229.89285" xlink:href="#m9889457b0b" y="463.411809"/>
     <use style="fill:#1f77b4;stroke:#1f77b4;" x="323.475693" xlink:href="#m9889457b0b" y="297.905412"/>
     <use style="fill:#1f77b4;stroke:#1f77b4;" x="355.347954" xlink:href="#m9889457b0b" y="295.988677"/>
     <use style="fill:#1f77b4;stroke:#1f77b4;" x="251.398872" xlink:href="#m9889457b0b" y="248.219842"/>
     <use style="fill:#1f77b4;stroke:#1f77b4;" x="338.786135" xlink:href="#m9889457b0b" y="239.680295"/>
     <use style="fill:#1f77b4;stroke:#1f77b4;" x="274.873921" xlink:href="#m9889457b0b" y="304.505797"/>
     <use style="fill:#1f77b4;stroke:#1f77b4;" x="302.984837" xlink:href="#m9889457b0b" y="265.261408"/>
     <use style="fill:#1f77b4;stroke:#1f77b4;" x="188.440519" xlink:href="#m9889457b0b" y="312.802935"/>
     <use style="fill:#1f77b4;stroke:#1f77b4;" x="337.365262" xlink:href="#m9889457b0b" y="291.436656"/>
     <use style="fill:#1f77b4;stroke:#1f77b4;" x="201.188702" xlink:href="#m9889457b0b" y="443.587663"/>
     <use style="fill:#1f77b4;stroke:#1f77b4;" x="265.73021" xlink:href="#m9889457b0b" y="303.177786"/>
     <use style="fill:#1f77b4;stroke:#1f77b4;" x="170.068349" xlink:href="#m9889457b0b" y="282.636893"/>
     <use style="fill:#1f77b4;stroke:#1f77b4;" x="338.05947" xlink:href="#m9889457b0b" y="312.339529"/>
     <use style="fill:#1f77b4;stroke:#1f77b4;" x="359.711547" xlink:href="#m9889457b0b" y="244.143962"/>
     <use style="fill:#1f77b4;stroke:#1f77b4;" x="179.325658" xlink:href="#m9889457b0b" y="326.705126"/>
     <use style="fill:#1f77b4;stroke:#1f77b4;" x="274.313145" xlink:href="#m9889457b0b" y="423.42633"/>
     <use style="fill:#1f77b4;stroke:#1f77b4;" x="352.150991" xlink:href="#m9889457b0b" y="265.020013"/>
     <use style="fill:#1f77b4;stroke:#1f77b4;" x="305.460545" xlink:href="#m9889457b0b" y="298.738462"/>
     <use style="fill:#1f77b4;stroke:#1f77b4;" x="265.558912" xlink:href="#m9889457b0b" y="445.616644"/>
     <use style="fill:#1f77b4;stroke:#1f77b4;" x="355.484992" xlink:href="#m9889457b0b" y="266.020529"/>
     <use style="fill:#1f77b4;stroke:#1f77b4;" x="377.593263" xlink:href="#m9889457b0b" y="306.82035"/>
     <use style="fill:#1f77b4;stroke:#1f77b4;" x="171.123185" xlink:href="#m9889457b0b" y="313.090536"/>
     <use style="fill:#1f77b4;stroke:#1f77b4;" x="372.584146" xlink:href="#m9889457b0b" y="243.291078"/>
     <use style="fill:#1f77b4;stroke:#1f77b4;" x="283.756177" xlink:href="#m9889457b0b" y="296.04818"/>
     <use style="fill:#1f77b4;stroke:#1f77b4;" x="351.321547" xlink:href="#m9889457b0b" y="281.403096"/>
     <use style="fill:#1f77b4;stroke:#1f77b4;" x="349.734786" xlink:href="#m9889457b0b" y="304.861015"/>
     <use style="fill:#1f77b4;stroke:#1f77b4;" x="193.709287" xlink:href="#m9889457b0b" y="308.167068"/>
     <use style="fill:#1f77b4;stroke:#1f77b4;" x="358.018401" xlink:href="#m9889457b0b" y="257.875756"/>
     <use style="fill:#1f77b4;stroke:#1f77b4;" x="321.137023" xlink:href="#m9889457b0b" y="286.371642"/>
     <use style="fill:#1f77b4;stroke:#1f77b4;" x="258.490613" xlink:href="#m9889457b0b" y="462.60761"/>
     <use style="fill:#1f77b4;stroke:#1f77b4;" x="355.528268" xlink:href="#m9889457b0b" y="314.680001"/>
     <use style="fill:#1f77b4;stroke:#1f77b4;" x="364.585428" xlink:href="#m9889457b0b" y="216.582102"/>
     <use style="fill:#1f77b4;stroke:#1f77b4;" x="347.302354" xlink:href="#m9889457b0b" y="288.134209"/>
     <use style="fill:#1f77b4;stroke:#1f77b4;" x="166.956134" xlink:href="#m9889457b0b" y="279.913705"/>
     <use style="fill:#1f77b4;stroke:#1f77b4;" x="241.402938" xlink:href="#m9889457b0b" y="222.525444"/>
     <use style="fill:#1f77b4;stroke:#1f77b4;" x="251.814255" xlink:href="#m9889457b0b" y="327.202091"/>
     <use style="fill:#1f77b4;stroke:#1f77b4;" x="343.467966" xlink:href="#m9889457b0b" y="260.342649"/>
     <use style="fill:#1f77b4;stroke:#1f77b4;" x="253.96968" xlink:href="#m9889457b0b" y="357.353257"/>
     <use style="fill:#1f77b4;stroke:#1f77b4;" x="356.204429" xlink:href="#m9889457b0b" y="200.980203"/>
     <use style="fill:#1f77b4;stroke:#1f77b4;" x="341.599014" xlink:href="#m9889457b0b" y="314.080659"/>
     <use style="fill:#1f77b4;stroke:#1f77b4;" x="317.958978" xlink:href="#m9889457b0b" y="266.529214"/>
     <use style="fill:#1f77b4;stroke:#1f77b4;" x="474.570497" xlink:href="#m9889457b0b" y="212.961151"/>
     <use style="fill:#1f77b4;stroke:#1f77b4;" x="322.323923" xlink:href="#m9889457b0b" y="239.604763"/>
     <use style="fill:#1f77b4;stroke:#1f77b4;" x="336.980728" xlink:href="#m9889457b0b" y="310.219239"/>
     <use style="fill:#1f77b4;stroke:#1f77b4;" x="342.634466" xlink:href="#m9889457b0b" y="279.904889"/>
     <use style="fill:#1f77b4;stroke:#1f77b4;" x="266.510503" xlink:href="#m9889457b0b" y="302.678518"/>
     <use style="fill:#1f77b4;stroke:#1f77b4;" x="338.956966" xlink:href="#m9889457b0b" y="333.474305"/>
     <use style="fill:#1f77b4;stroke:#1f77b4;" x="296.823951" xlink:href="#m9889457b0b" y="165.482734"/>
     <use style="fill:#1f77b4;stroke:#1f77b4;" x="456.782093" xlink:href="#m9889457b0b" y="325.119467"/>
     <use style="fill:#1f77b4;stroke:#1f77b4;" x="99.030571" xlink:href="#m9889457b0b" y="286.350205"/>
     <use style="fill:#1f77b4;stroke:#1f77b4;" x="214.56391" xlink:href="#m9889457b0b" y="226.068609"/>
     <use style="fill:#1f77b4;stroke:#1f77b4;" x="447.003678" xlink:href="#m9889457b0b" y="158.65921"/>
     <use style="fill:#1f77b4;stroke:#1f77b4;" x="295.998114" xlink:href="#m9889457b0b" y="333.095647"/>
     <use style="fill:#1f77b4;stroke:#1f77b4;" x="320.681265" xlink:href="#m9889457b0b" y="397.136784"/>
     <use style="fill:#1f77b4;stroke:#1f77b4;" x="388.01944" xlink:href="#m9889457b0b" y="128.839596"/>
     <use style="fill:#1f77b4;stroke:#1f77b4;" x="225.628865" xlink:href="#m9889457b0b" y="262.161114"/>
     <use style="fill:#1f77b4;stroke:#1f77b4;" x="312.559933" xlink:href="#m9889457b0b" y="389.404029"/>
     <use style="fill:#1f77b4;stroke:#1f77b4;" x="340.261536" xlink:href="#m9889457b0b" y="241.34434"/>
     <use style="fill:#1f77b4;stroke:#1f77b4;" x="471.026881" xlink:href="#m9889457b0b" y="324.014144"/>
     <use style="fill:#1f77b4;stroke:#1f77b4;" x="349.81456" xlink:href="#m9889457b0b" y="351.48765"/>
     <use style="fill:#1f77b4;stroke:#1f77b4;" x="337.118668" xlink:href="#m9889457b0b" y="323.342475"/>
     <use style="fill:#1f77b4;stroke:#1f77b4;" x="226.788282" xlink:href="#m9889457b0b" y="252.029283"/>
     <use style="fill:#1f77b4;stroke:#1f77b4;" x="274.77879" xlink:href="#m9889457b0b" y="194.854944"/>
     <use style="fill:#1f77b4;stroke:#1f77b4;" x="321.55218" xlink:href="#m9889457b0b" y="354.864927"/>
     <use style="fill:#1f77b4;stroke:#1f77b4;" x="479.164441" xlink:href="#m9889457b0b" y="328.100955"/>
     <use style="fill:#1f77b4;stroke:#1f77b4;" x="261.522122" xlink:href="#m9889457b0b" y="264.005723"/>
     <use style="fill:#1f77b4;stroke:#1f77b4;" x="318.371446" xlink:href="#m9889457b0b" y="302.700155"/>
     <use style="fill:#1f77b4;stroke:#1f77b4;" x="227.130878" xlink:href="#m9889457b0b" y="235.697364"/>
     <use style="fill:#1f77b4;stroke:#1f77b4;" x="229.886072" xlink:href="#m9889457b0b" y="314.139261"/>
     <use style="fill:#1f77b4;stroke:#1f77b4;" x="348.997062" xlink:href="#m9889457b0b" y="350.594556"/>
     <use style="fill:#1f77b4;stroke:#1f77b4;" x="338.585745" xlink:href="#m9889457b0b" y="245.917909"/>
     <use style="fill:#1f77b4;stroke:#1f77b4;" x="246.932034" xlink:href="#m9889457b0b" y="312.777351"/>
     <use style="fill:#1f77b4;stroke:#1f77b4;" x="336.43032" xlink:href="#m9889457b0b" y="215.766743"/>
     <use style="fill:#1f77b4;stroke:#1f77b4;" x="234.195571" xlink:href="#m9889457b0b" y="372.139797"/>
     <use style="fill:#1f77b4;stroke:#1f77b4;" x="248.800986" xlink:href="#m9889457b0b" y="259.039341"/>
     <use style="fill:#1f77b4;stroke:#1f77b4;" x="272.441022" xlink:href="#m9889457b0b" y="306.590786"/>
     <use style="fill:#1f77b4;stroke:#1f77b4;" x="268.076077" xlink:href="#m9889457b0b" y="333.515237"/>
     <use style="fill:#1f77b4;stroke:#1f77b4;" x="115.829503" xlink:href="#m9889457b0b" y="360.158849"/>
     <use style="fill:#1f77b4;stroke:#1f77b4;" x="253.419272" xlink:href="#m9889457b0b" y="262.900761"/>
     <use style="fill:#1f77b4;stroke:#1f77b4;" x="247.765534" xlink:href="#m9889457b0b" y="293.215111"/>
     <use style="fill:#1f77b4;stroke:#1f77b4;" x="323.889497" xlink:href="#m9889457b0b" y="270.441482"/>
     <use style="fill:#1f77b4;stroke:#1f77b4;" x="251.443034" xlink:href="#m9889457b0b" y="239.645695"/>
     <use style="fill:#1f77b4;stroke:#1f77b4;" x="293.576049" xlink:href="#m9889457b0b" y="407.637266"/>
     <use style="fill:#1f77b4;stroke:#1f77b4;" x="133.617907" xlink:href="#m9889457b0b" y="248.000533"/>
     <use style="fill:#1f77b4;stroke:#1f77b4;" x="491.369429" xlink:href="#m9889457b0b" y="286.769795"/>
     <use style="fill:#1f77b4;stroke:#1f77b4;" x="114.477601" xlink:href="#m9889457b0b" y="260.755027"/>
     <use style="fill:#1f77b4;stroke:#1f77b4;" x="375.83609" xlink:href="#m9889457b0b" y="347.051391"/>
     <use style="fill:#1f77b4;stroke:#1f77b4;" x="143.396322" xlink:href="#m9889457b0b" y="414.46079"/>
     <use style="fill:#1f77b4;stroke:#1f77b4;" x="294.401886" xlink:href="#m9889457b0b" y="240.024353"/>
     <use style="fill:#1f77b4;stroke:#1f77b4;" x="269.718735" xlink:href="#m9889457b0b" y="175.983216"/>
     <use style="fill:#1f77b4;stroke:#1f77b4;" x="202.38056" xlink:href="#m9889457b0b" y="444.280404"/>
     <use style="fill:#1f77b4;stroke:#1f77b4;" x="364.771135" xlink:href="#m9889457b0b" y="310.958886"/>
     <use style="fill:#1f77b4;stroke:#1f77b4;" x="277.840067" xlink:href="#m9889457b0b" y="183.715971"/>
     <use style="fill:#1f77b4;stroke:#1f77b4;" x="250.138464" xlink:href="#m9889457b0b" y="331.77566"/>
     <use style="fill:#1f77b4;stroke:#1f77b4;" x="119.373119" xlink:href="#m9889457b0b" y="249.105856"/>
     <use style="fill:#1f77b4;stroke:#1f77b4;" x="240.58544" xlink:href="#m9889457b0b" y="221.63235"/>
     <use style="fill:#1f77b4;stroke:#1f77b4;" x="253.281332" xlink:href="#m9889457b0b" y="249.777525"/>
     <use style="fill:#1f77b4;stroke:#1f77b4;" x="363.611718" xlink:href="#m9889457b0b" y="321.090717"/>
     <use style="fill:#1f77b4;stroke:#1f77b4;" x="315.62121" xlink:href="#m9889457b0b" y="378.265056"/>
     <use style="fill:#1f77b4;stroke:#1f77b4;" x="268.84782" xlink:href="#m9889457b0b" y="218.255073"/>
     <use style="fill:#1f77b4;stroke:#1f77b4;" x="111.235559" xlink:href="#m9889457b0b" y="245.019045"/>
     <use style="fill:#1f77b4;stroke:#1f77b4;" x="328.877878" xlink:href="#m9889457b0b" y="309.114277"/>
     <use style="fill:#1f77b4;stroke:#1f77b4;" x="272.028554" xlink:href="#m9889457b0b" y="270.419845"/>
     <use style="fill:#1f77b4;stroke:#1f77b4;" x="363.269122" xlink:href="#m9889457b0b" y="337.422636"/>
     <use style="fill:#1f77b4;stroke:#1f77b4;" x="360.513928" xlink:href="#m9889457b0b" y="258.980739"/>
    </g>
   </g>
   <g id="matplotlib.axis_1">
    <g id="xtick_1">
     <g id="line2d_1">
      <defs>
       <path d="M 0 0 
L 0 3.5 
" id="m7b6d42dc59" style="stroke:#000000;stroke-width:0.8;"/>
      </defs>
      <g>
       <use style="stroke:#000000;stroke-width:0.8;" x="117.944358" xlink:href="#m7b6d42dc59" y="504"/>
      </g>
     </g>
     <g id="text_1">
      <!-- −3 -->
      <g transform="translate(112.624827 517.94375)scale(0.1 -0.1)">
       <defs>
        <path d="M 54.4375 31.25 
L 1.8125 31.25 
L 1.8125 35.25 
L 54.4375 35.25 
z
" id="TimesNewRomanPSMT-8722"/>
        <path d="M 5.078125 53.609375 
Q 7.90625 60.296875 12.21875 63.9375 
Q 16.546875 67.578125 23 67.578125 
Q 30.953125 67.578125 35.203125 62.40625 
Q 38.421875 58.546875 38.421875 54.15625 
Q 38.421875 46.921875 29.34375 39.203125 
Q 35.453125 36.8125 38.578125 32.375 
Q 41.703125 27.9375 41.703125 21.921875 
Q 41.703125 13.328125 36.234375 7.03125 
Q 29.109375 -1.171875 15.578125 -1.171875 
Q 8.890625 -1.171875 6.46875 0.484375 
Q 4.046875 2.15625 4.046875 4.046875 
Q 4.046875 5.46875 5.1875 6.546875 
Q 6.34375 7.625 7.953125 7.625 
Q 9.1875 7.625 10.453125 7.234375 
Q 11.28125 6.984375 14.203125 5.4375 
Q 17.140625 3.90625 18.265625 3.609375 
Q 20.0625 3.078125 22.125 3.078125 
Q 27.09375 3.078125 30.78125 6.9375 
Q 34.46875 10.796875 34.46875 16.0625 
Q 34.46875 19.921875 32.765625 23.578125 
Q 31.5 26.3125 29.984375 27.734375 
Q 27.875 29.6875 24.21875 31.265625 
Q 20.5625 32.859375 16.75 32.859375 
L 15.1875 32.859375 
L 15.1875 34.328125 
Q 19.046875 34.8125 22.921875 37.109375 
Q 26.8125 39.40625 28.5625 42.625 
Q 30.328125 45.84375 30.328125 49.703125 
Q 30.328125 54.734375 27.171875 57.828125 
Q 24.03125 60.9375 19.34375 60.9375 
Q 11.765625 60.9375 6.6875 52.828125 
z
" id="TimesNewRomanPSMT-51"/>
       </defs>
       <use xlink:href="#TimesNewRomanPSMT-8722"/>
       <use x="56.396484" xlink:href="#TimesNewRomanPSMT-51"/>
      </g>
     </g>
    </g>
    <g id="xtick_2">
     <g id="line2d_2">
      <g>
       <use style="stroke:#000000;stroke-width:0.8;" x="177.029572" xlink:href="#m7b6d42dc59" y="504"/>
      </g>
     </g>
     <g id="text_2">
      <!-- −2 -->
      <g transform="translate(171.710041 517.94375)scale(0.1 -0.1)">
       <defs>
        <path d="M 45.84375 12.75 
L 41.21875 0 
L 2.15625 0 
L 2.15625 1.8125 
Q 19.390625 17.53125 26.421875 27.484375 
Q 33.453125 37.453125 33.453125 45.703125 
Q 33.453125 52 29.59375 56.046875 
Q 25.734375 60.109375 20.359375 60.109375 
Q 15.484375 60.109375 11.59375 57.25 
Q 7.71875 54.390625 5.859375 48.875 
L 4.046875 48.875 
Q 5.28125 57.90625 10.328125 62.734375 
Q 15.375 67.578125 22.953125 67.578125 
Q 31 67.578125 36.390625 62.40625 
Q 41.796875 57.234375 41.796875 50.203125 
Q 41.796875 45.171875 39.453125 40.140625 
Q 35.84375 32.234375 27.734375 23.390625 
Q 15.578125 10.109375 12.546875 7.375 
L 29.828125 7.375 
Q 35.109375 7.375 37.234375 7.765625 
Q 39.359375 8.15625 41.0625 9.34375 
Q 42.78125 10.546875 44.046875 12.75 
z
" id="TimesNewRomanPSMT-50"/>
       </defs>
       <use xlink:href="#TimesNewRomanPSMT-8722"/>
       <use x="56.396484" xlink:href="#TimesNewRomanPSMT-50"/>
      </g>
     </g>
    </g>
    <g id="xtick_3">
     <g id="line2d_3">
      <g>
       <use style="stroke:#000000;stroke-width:0.8;" x="236.114786" xlink:href="#m7b6d42dc59" y="504"/>
      </g>
     </g>
     <g id="text_3">
      <!-- −1 -->
      <g transform="translate(230.795255 517.94375)scale(0.1 -0.1)">
       <defs>
        <path d="M 11.71875 59.71875 
L 27.828125 67.578125 
L 29.4375 67.578125 
L 29.4375 11.671875 
Q 29.4375 6.109375 29.90625 4.734375 
Q 30.375 3.375 31.828125 2.640625 
Q 33.296875 1.90625 37.796875 1.8125 
L 37.796875 0 
L 12.890625 0 
L 12.890625 1.8125 
Q 17.578125 1.90625 18.9375 2.609375 
Q 20.3125 3.328125 20.84375 4.515625 
Q 21.390625 5.71875 21.390625 11.671875 
L 21.390625 47.40625 
Q 21.390625 54.640625 20.90625 56.6875 
Q 20.5625 58.25 19.65625 58.984375 
Q 18.75 59.71875 17.484375 59.71875 
Q 15.671875 59.71875 12.453125 58.203125 
z
" id="TimesNewRomanPSMT-49"/>
       </defs>
       <use xlink:href="#TimesNewRomanPSMT-8722"/>
       <use x="56.396484" xlink:href="#TimesNewRomanPSMT-49"/>
      </g>
     </g>
    </g>
    <g id="xtick_4">
     <g id="line2d_4">
      <g>
       <use style="stroke:#000000;stroke-width:0.8;" x="295.2" xlink:href="#m7b6d42dc59" y="504"/>
      </g>
     </g>
     <g id="text_4">
      <!-- 0 -->
      <g transform="translate(292.7 517.94375)scale(0.1 -0.1)">
       <defs>
        <path d="M 3.609375 32.71875 
Q 3.609375 44.046875 7.03125 52.21875 
Q 10.453125 60.40625 16.109375 64.40625 
Q 20.515625 67.578125 25.203125 67.578125 
Q 32.8125 67.578125 38.875 59.8125 
Q 46.4375 50.203125 46.4375 33.734375 
Q 46.4375 22.21875 43.109375 14.15625 
Q 39.796875 6.109375 34.640625 2.46875 
Q 29.5 -1.171875 24.703125 -1.171875 
Q 15.234375 -1.171875 8.9375 10.015625 
Q 3.609375 19.4375 3.609375 32.71875 
z
M 13.1875 31.5 
Q 13.1875 17.828125 16.546875 9.1875 
Q 19.34375 1.90625 24.859375 1.90625 
Q 27.484375 1.90625 30.3125 4.265625 
Q 33.15625 6.640625 34.625 12.203125 
Q 36.859375 20.609375 36.859375 35.890625 
Q 36.859375 47.21875 34.515625 54.78125 
Q 32.765625 60.40625 29.984375 62.75 
Q 27.984375 64.359375 25.140625 64.359375 
Q 21.828125 64.359375 19.234375 61.375 
Q 15.71875 57.328125 14.453125 48.625 
Q 13.1875 39.9375 13.1875 31.5 
z
" id="TimesNewRomanPSMT-48"/>
       </defs>
       <use xlink:href="#TimesNewRomanPSMT-48"/>
      </g>
     </g>
    </g>
    <g id="xtick_5">
     <g id="line2d_5">
      <g>
       <use style="stroke:#000000;stroke-width:0.8;" x="354.285214" xlink:href="#m7b6d42dc59" y="504"/>
      </g>
     </g>
     <g id="text_5">
      <!-- 1 -->
      <g transform="translate(351.785214 517.94375)scale(0.1 -0.1)">
       <use xlink:href="#TimesNewRomanPSMT-49"/>
      </g>
     </g>
    </g>
    <g id="xtick_6">
     <g id="line2d_6">
      <g>
       <use style="stroke:#000000;stroke-width:0.8;" x="413.370428" xlink:href="#m7b6d42dc59" y="504"/>
      </g>
     </g>
     <g id="text_6">
      <!-- 2 -->
      <g transform="translate(410.870428 517.94375)scale(0.1 -0.1)">
       <use xlink:href="#TimesNewRomanPSMT-50"/>
      </g>
     </g>
    </g>
    <g id="xtick_7">
     <g id="line2d_7">
      <g>
       <use style="stroke:#000000;stroke-width:0.8;" x="472.455642" xlink:href="#m7b6d42dc59" y="504"/>
      </g>
     </g>
     <g id="text_7">
      <!-- 3 -->
      <g transform="translate(469.955642 517.94375)scale(0.1 -0.1)">
       <use xlink:href="#TimesNewRomanPSMT-51"/>
      </g>
     </g>
    </g>
    <g id="text_8">
     <!-- x [px] -->
     <g transform="translate(283.120313 531.026562)scale(0.1 -0.1)">
      <defs>
       <path d="M 1.3125 44.734375 
L 22.359375 44.734375 
L 22.359375 42.921875 
Q 20.359375 42.921875 19.546875 42.234375 
Q 18.75 41.546875 18.75 40.4375 
Q 18.75 39.265625 20.453125 36.8125 
Q 21 36.03125 22.078125 34.375 
L 25.25 29.296875 
L 28.90625 34.375 
Q 32.421875 39.203125 32.421875 40.484375 
Q 32.421875 41.5 31.59375 42.203125 
Q 30.765625 42.921875 28.90625 42.921875 
L 28.90625 44.734375 
L 44.046875 44.734375 
L 44.046875 42.921875 
Q 41.65625 42.78125 39.890625 41.609375 
Q 37.5 39.9375 33.34375 34.375 
L 27.25 26.21875 
L 38.375 10.203125 
Q 42.484375 4.296875 44.234375 3.09375 
Q 46 1.90625 48.78125 1.765625 
L 48.78125 0 
L 27.6875 0 
L 27.6875 1.765625 
Q 29.890625 1.765625 31.109375 2.734375 
Q 32.03125 3.421875 32.03125 4.546875 
Q 32.03125 5.671875 28.90625 10.203125 
L 22.359375 19.78125 
L 15.1875 10.203125 
Q 11.859375 5.765625 11.859375 4.9375 
Q 11.859375 3.765625 12.953125 2.8125 
Q 14.0625 1.859375 16.265625 1.765625 
L 16.265625 0 
L 1.65625 0 
L 1.65625 1.765625 
Q 3.421875 2 4.734375 2.984375 
Q 6.59375 4.390625 10.984375 10.203125 
L 20.359375 22.65625 
L 11.859375 34.96875 
Q 8.25 40.234375 6.265625 41.578125 
Q 4.296875 42.921875 1.3125 42.921875 
z
" id="TimesNewRomanPSMT-120"/>
       <path id="TimesNewRomanPSMT-32"/>
       <path d="M 29.6875 -19.828125 
L 8.203125 -19.828125 
L 8.203125 67.71875 
L 29.6875 67.71875 
L 29.6875 63.875 
L 15.53125 63.875 
L 15.53125 -16.015625 
L 29.6875 -16.015625 
z
" id="TimesNewRomanPSMT-91"/>
       <path d="M -0.09375 40.28125 
L 13.671875 45.84375 
L 15.53125 45.84375 
L 15.53125 35.40625 
Q 19 41.3125 22.484375 43.671875 
Q 25.984375 46.046875 29.828125 46.046875 
Q 36.578125 46.046875 41.0625 40.765625 
Q 46.578125 34.328125 46.578125 23.96875 
Q 46.578125 12.40625 39.9375 4.828125 
Q 34.46875 -1.375 26.171875 -1.375 
Q 22.5625 -1.375 19.921875 -0.34375 
Q 17.96875 0.390625 15.53125 2.59375 
L 15.53125 -11.03125 
Q 15.53125 -15.625 16.09375 -16.859375 
Q 16.65625 -18.109375 18.046875 -18.84375 
Q 19.4375 -19.578125 23.09375 -19.578125 
L 23.09375 -21.390625 
L -0.34375 -21.390625 
L -0.34375 -19.578125 
L 0.875 -19.578125 
Q 3.5625 -19.625 5.46875 -18.5625 
Q 6.390625 -18.015625 6.90625 -16.8125 
Q 7.421875 -15.625 7.421875 -10.75 
L 7.421875 31.546875 
Q 7.421875 35.890625 7.03125 37.0625 
Q 6.640625 38.234375 5.78125 38.8125 
Q 4.9375 39.40625 3.46875 39.40625 
Q 2.296875 39.40625 0.484375 38.71875 
z
M 15.53125 32.515625 
L 15.53125 15.828125 
Q 15.53125 10.40625 15.96875 8.6875 
Q 16.65625 5.859375 19.3125 3.703125 
Q 21.96875 1.5625 26.03125 1.5625 
Q 30.90625 1.5625 33.9375 5.375 
Q 37.890625 10.359375 37.890625 19.390625 
Q 37.890625 29.640625 33.40625 35.15625 
Q 30.28125 38.96875 25.984375 38.96875 
Q 23.640625 38.96875 21.34375 37.796875 
Q 19.578125 36.921875 15.53125 32.515625 
z
" id="TimesNewRomanPSMT-112"/>
       <path d="M 3.65625 67.71875 
L 25.140625 67.71875 
L 25.140625 -19.875 
L 3.65625 -19.875 
L 3.65625 -16.015625 
L 17.828125 -16.015625 
L 17.828125 63.875 
L 3.65625 63.875 
z
" id="TimesNewRomanPSMT-93"/>
      </defs>
      <use xlink:href="#TimesNewRomanPSMT-120"/>
      <use x="50" xlink:href="#TimesNewRomanPSMT-32"/>
      <use x="75" xlink:href="#TimesNewRomanPSMT-91"/>
      <use x="108.300781" xlink:href="#TimesNewRomanPSMT-112"/>
      <use x="158.300781" xlink:href="#TimesNewRomanPSMT-120"/>
      <use x="208.300781" xlink:href="#TimesNewRomanPSMT-93"/>
     </g>
    </g>
   </g>
   <g id="matplotlib.axis_2">
    <g id="ytick_1">
     <g id="line2d_8">
      <defs>
       <path d="M 0 0 
L -3.5 0 
" id="maf0f164489" style="stroke:#000000;stroke-width:0.8;"/>
      </defs>
      <g>
       <use style="stroke:#000000;stroke-width:0.8;" x="72" xlink:href="#maf0f164489" y="109.304358"/>
      </g>
     </g>
     <g id="text_9">
      <!-- −3 -->
      <g transform="translate(54.360937 112.776233)scale(0.1 -0.1)">
       <use xlink:href="#TimesNewRomanPSMT-8722"/>
       <use x="56.396484" xlink:href="#TimesNewRomanPSMT-51"/>
      </g>
     </g>
    </g>
    <g id="ytick_2">
     <g id="line2d_9">
      <g>
       <use style="stroke:#000000;stroke-width:0.8;" x="72" xlink:href="#maf0f164489" y="168.389572"/>
      </g>
     </g>
     <g id="text_10">
      <!-- −2 -->
      <g transform="translate(54.360937 171.861447)scale(0.1 -0.1)">
       <use xlink:href="#TimesNewRomanPSMT-8722"/>
       <use x="56.396484" xlink:href="#TimesNewRomanPSMT-50"/>
      </g>
     </g>
    </g>
    <g id="ytick_3">
     <g id="line2d_10">
      <g>
       <use style="stroke:#000000;stroke-width:0.8;" x="72" xlink:href="#maf0f164489" y="227.474786"/>
      </g>
     </g>
     <g id="text_11">
      <!-- −1 -->
      <g transform="translate(54.360937 230.946661)scale(0.1 -0.1)">
       <use xlink:href="#TimesNewRomanPSMT-8722"/>
       <use x="56.396484" xlink:href="#TimesNewRomanPSMT-49"/>
      </g>
     </g>
    </g>
    <g id="ytick_4">
     <g id="line2d_11">
      <g>
       <use style="stroke:#000000;stroke-width:0.8;" x="72" xlink:href="#maf0f164489" y="286.56"/>
      </g>
     </g>
     <g id="text_12">
      <!-- 0 -->
      <g transform="translate(60 290.031875)scale(0.1 -0.1)">
       <use xlink:href="#TimesNewRomanPSMT-48"/>
      </g>
     </g>
    </g>
    <g id="ytick_5">
     <g id="line2d_12">
      <g>
       <use style="stroke:#000000;stroke-width:0.8;" x="72" xlink:href="#maf0f164489" y="345.645214"/>
      </g>
     </g>
     <g id="text_13">
      <!-- 1 -->
      <g transform="translate(60 349.117089)scale(0.1 -0.1)">
       <use xlink:href="#TimesNewRomanPSMT-49"/>
      </g>
     </g>
    </g>
    <g id="ytick_6">
     <g id="line2d_13">
      <g>
       <use style="stroke:#000000;stroke-width:0.8;" x="72" xlink:href="#maf0f164489" y="404.730428"/>
      </g>
     </g>
     <g id="text_14">
      <!-- 2 -->
      <g transform="translate(60 408.202303)scale(0.1 -0.1)">
       <use xlink:href="#TimesNewRomanPSMT-50"/>
      </g>
     </g>
    </g>
    <g id="ytick_7">
     <g id="line2d_14">
      <g>
       <use style="stroke:#000000;stroke-width:0.8;" x="72" xlink:href="#maf0f164489" y="463.815642"/>
      </g>
     </g>
     <g id="text_15">
      <!-- 3 -->
      <g transform="translate(60 467.287517)scale(0.1 -0.1)">
       <use xlink:href="#TimesNewRomanPSMT-51"/>
      </g>
     </g>
    </g>
    <g id="text_16">
     <!-- y [px] -->
     <g transform="translate(48.203125 298.639687)rotate(-90)scale(0.1 -0.1)">
      <defs>
       <path d="M 0.59375 44.734375 
L 21.4375 44.734375 
L 21.4375 42.921875 
L 20.40625 42.921875 
Q 18.21875 42.921875 17.109375 41.96875 
Q 16.015625 41.015625 16.015625 39.59375 
Q 16.015625 37.703125 17.625 34.328125 
L 28.515625 11.765625 
L 38.53125 36.46875 
Q 39.359375 38.484375 39.359375 40.4375 
Q 39.359375 41.3125 39.015625 41.75 
Q 38.625 42.28125 37.796875 42.59375 
Q 36.96875 42.921875 34.859375 42.921875 
L 34.859375 44.734375 
L 49.421875 44.734375 
L 49.421875 42.921875 
Q 47.609375 42.71875 46.625 42.125 
Q 45.65625 41.546875 44.484375 39.9375 
Q 44.046875 39.265625 42.828125 36.1875 
L 24.609375 -8.453125 
Q 21.96875 -14.9375 17.6875 -18.25 
Q 13.421875 -21.578125 9.46875 -21.578125 
Q 6.59375 -21.578125 4.734375 -19.921875 
Q 2.875 -18.265625 2.875 -16.109375 
Q 2.875 -14.0625 4.21875 -12.8125 
Q 5.5625 -11.578125 7.90625 -11.578125 
Q 9.515625 -11.578125 12.3125 -12.640625 
Q 14.265625 -13.375 14.75 -13.375 
Q 16.21875 -13.375 17.9375 -11.859375 
Q 19.671875 -10.359375 21.4375 -6 
L 24.609375 1.765625 
L 8.546875 35.5 
Q 7.8125 37.015625 6.203125 39.265625 
Q 4.984375 40.96875 4.203125 41.546875 
Q 3.078125 42.328125 0.59375 42.921875 
z
" id="TimesNewRomanPSMT-121"/>
      </defs>
      <use xlink:href="#TimesNewRomanPSMT-121"/>
      <use x="50" xlink:href="#TimesNewRomanPSMT-32"/>
      <use x="75" xlink:href="#TimesNewRomanPSMT-91"/>
      <use x="108.300781" xlink:href="#TimesNewRomanPSMT-112"/>
      <use x="158.300781" xlink:href="#TimesNewRomanPSMT-120"/>
      <use x="208.300781" xlink:href="#TimesNewRomanPSMT-93"/>
     </g>
    </g>
   </g>
   <g id="patch_3">
    <path d="M 72 504 
L 72 69.12 
" style="fill:none;stroke:#000000;stroke-linecap:square;stroke-linejoin:miter;stroke-width:0.8;"/>
   </g>
   <g id="patch_4">
    <path d="M 518.4 504 
L 518.4 69.12 
" style="fill:none;stroke:#000000;stroke-linecap:square;stroke-linejoin:miter;stroke-width:0.8;"/>
   </g>
   <g id="patch_5">
    <path d="M 72 504 
L 518.4 504 
" style="fill:none;stroke:#000000;stroke-linecap:square;stroke-linejoin:miter;stroke-width:0.8;"/>
   </g>
   <g id="patch_6">
    <path d="M 72 69.12 
L 518.4 69.12 
" style="fill:none;stroke:#000000;stroke-linecap:square;stroke-linejoin:miter;stroke-width:0.8;"/>
   </g>
   <g id="text_17">
    <!-- deviations from primitive lattice vectors -->
    <g transform="translate(198.894375 63.12)scale(0.12 -0.12)">
     <defs>
      <path d="M 34.71875 5.03125 
Q 31.453125 1.609375 28.328125 0.109375 
Q 25.203125 -1.375 21.578125 -1.375 
Q 14.265625 -1.375 8.796875 4.75 
Q 3.328125 10.890625 3.328125 20.515625 
Q 3.328125 30.125 9.375 38.109375 
Q 15.4375 46.09375 24.953125 46.09375 
Q 30.859375 46.09375 34.71875 42.328125 
L 34.71875 50.59375 
Q 34.71875 58.25 34.34375 60 
Q 33.984375 61.765625 33.203125 62.390625 
Q 32.421875 63.03125 31.25 63.03125 
Q 29.984375 63.03125 27.875 62.25 
L 27.25 63.96875 
L 40.578125 69.4375 
L 42.78125 69.4375 
L 42.78125 17.71875 
Q 42.78125 9.859375 43.140625 8.125 
Q 43.5 6.390625 44.3125 5.703125 
Q 45.125 5.03125 46.1875 5.03125 
Q 47.515625 5.03125 49.703125 5.859375 
L 50.25 4.15625 
L 36.96875 -1.375 
L 34.71875 -1.375 
z
M 34.71875 8.453125 
L 34.71875 31.5 
Q 34.421875 34.8125 32.953125 37.546875 
Q 31.5 40.28125 29.078125 41.671875 
Q 26.65625 43.0625 24.359375 43.0625 
Q 20.0625 43.0625 16.703125 39.203125 
Q 12.25 34.125 12.25 24.359375 
Q 12.25 14.5 16.546875 9.25 
Q 20.84375 4 26.125 4 
Q 30.5625 4 34.71875 8.453125 
z
" id="TimesNewRomanPSMT-100"/>
      <path d="M 10.640625 27.875 
Q 10.59375 17.921875 15.484375 12.25 
Q 20.359375 6.59375 26.953125 6.59375 
Q 31.34375 6.59375 34.59375 9 
Q 37.84375 11.421875 40.046875 17.28125 
L 41.546875 16.3125 
Q 40.53125 9.625 35.59375 4.125 
Q 30.671875 -1.375 23.25 -1.375 
Q 15.1875 -1.375 9.453125 4.90625 
Q 3.71875 11.1875 3.71875 21.78125 
Q 3.71875 33.25 9.59375 39.671875 
Q 15.484375 46.09375 24.359375 46.09375 
Q 31.890625 46.09375 36.71875 41.140625 
Q 41.546875 36.1875 41.546875 27.875 
z
M 10.640625 30.71875 
L 31.34375 30.71875 
Q 31.109375 35.015625 30.328125 36.765625 
Q 29.109375 39.5 26.6875 41.0625 
Q 24.265625 42.625 21.625 42.625 
Q 17.578125 42.625 14.375 39.46875 
Q 11.1875 36.328125 10.640625 30.71875 
z
" id="TimesNewRomanPSMT-101"/>
      <path d="M 0.828125 44.734375 
L 21.875 44.734375 
L 21.875 42.921875 
L 20.515625 42.921875 
Q 18.609375 42.921875 17.609375 41.984375 
Q 16.609375 41.0625 16.609375 39.5 
Q 16.609375 37.796875 17.625 35.453125 
L 28.03125 10.75 
L 38.484375 36.375 
Q 39.59375 39.109375 39.59375 40.53125 
Q 39.59375 41.21875 39.203125 41.65625 
Q 38.671875 42.390625 37.84375 42.65625 
Q 37.015625 42.921875 34.46875 42.921875 
L 34.46875 44.734375 
L 49.078125 44.734375 
L 49.078125 42.921875 
Q 46.53125 42.71875 45.5625 41.890625 
Q 43.84375 40.4375 42.484375 37.015625 
L 26.609375 -1.375 
L 24.609375 -1.375 
L 8.640625 36.375 
Q 7.5625 39.015625 6.578125 40.15625 
Q 5.609375 41.3125 4.109375 42.09375 
Q 3.265625 42.53125 0.828125 42.921875 
z
" id="TimesNewRomanPSMT-118"/>
      <path d="M 14.5 69.4375 
Q 16.546875 69.4375 17.984375 67.984375 
Q 19.4375 66.546875 19.4375 64.5 
Q 19.4375 62.453125 17.984375 60.984375 
Q 16.546875 59.515625 14.5 59.515625 
Q 12.453125 59.515625 10.984375 60.984375 
Q 9.515625 62.453125 9.515625 64.5 
Q 9.515625 66.546875 10.953125 67.984375 
Q 12.40625 69.4375 14.5 69.4375 
z
M 18.5625 46.046875 
L 18.5625 10.109375 
Q 18.5625 5.90625 19.171875 4.515625 
Q 19.78125 3.125 20.96875 2.4375 
Q 22.171875 1.765625 25.34375 1.765625 
L 25.34375 0 
L 3.609375 0 
L 3.609375 1.765625 
Q 6.890625 1.765625 8 2.390625 
Q 9.125 3.03125 9.78125 4.484375 
Q 10.453125 5.953125 10.453125 10.109375 
L 10.453125 27.34375 
Q 10.453125 34.625 10.015625 36.765625 
Q 9.671875 38.328125 8.9375 38.9375 
Q 8.203125 39.546875 6.9375 39.546875 
Q 5.5625 39.546875 3.609375 38.8125 
L 2.9375 40.578125 
L 16.40625 46.046875 
z
" id="TimesNewRomanPSMT-105"/>
      <path d="M 28.46875 6.453125 
Q 21.578125 1.125 19.828125 0.296875 
Q 17.1875 -0.921875 14.203125 -0.921875 
Q 9.578125 -0.921875 6.5625 2.25 
Q 3.5625 5.421875 3.5625 10.59375 
Q 3.5625 13.875 5.03125 16.265625 
Q 7.03125 19.578125 11.984375 22.5 
Q 16.9375 25.4375 28.46875 29.640625 
L 28.46875 31.390625 
Q 28.46875 38.09375 26.34375 40.578125 
Q 24.21875 43.0625 20.171875 43.0625 
Q 17.09375 43.0625 15.28125 41.40625 
Q 13.421875 39.75 13.421875 37.59375 
L 13.53125 34.765625 
Q 13.53125 32.515625 12.375 31.296875 
Q 11.234375 30.078125 9.375 30.078125 
Q 7.5625 30.078125 6.421875 31.34375 
Q 5.28125 32.625 5.28125 34.8125 
Q 5.28125 39.015625 9.578125 42.53125 
Q 13.875 46.046875 21.625 46.046875 
Q 27.59375 46.046875 31.390625 44.046875 
Q 34.28125 42.53125 35.640625 39.3125 
Q 36.53125 37.203125 36.53125 30.71875 
L 36.53125 15.53125 
Q 36.53125 9.125 36.765625 7.6875 
Q 37.015625 6.25 37.578125 5.765625 
Q 38.140625 5.28125 38.875 5.28125 
Q 39.65625 5.28125 40.234375 5.609375 
Q 41.265625 6.25 44.1875 9.1875 
L 44.1875 6.453125 
Q 38.71875 -0.875 33.734375 -0.875 
Q 31.34375 -0.875 29.921875 0.78125 
Q 28.515625 2.4375 28.46875 6.453125 
z
M 28.46875 9.625 
L 28.46875 26.65625 
Q 21.09375 23.734375 18.953125 22.515625 
Q 15.09375 20.359375 13.421875 18.015625 
Q 11.765625 15.671875 11.765625 12.890625 
Q 11.765625 9.375 13.859375 7.046875 
Q 15.96875 4.734375 18.703125 4.734375 
Q 22.40625 4.734375 28.46875 9.625 
z
" id="TimesNewRomanPSMT-97"/>
      <path d="M 16.109375 59.421875 
L 16.109375 44.734375 
L 26.5625 44.734375 
L 26.5625 41.3125 
L 16.109375 41.3125 
L 16.109375 12.3125 
Q 16.109375 7.953125 17.359375 6.4375 
Q 18.609375 4.9375 20.5625 4.9375 
Q 22.171875 4.9375 23.6875 5.9375 
Q 25.203125 6.9375 26.03125 8.890625 
L 27.9375 8.890625 
Q 26.21875 4.109375 23.09375 1.6875 
Q 19.96875 -0.734375 16.65625 -0.734375 
Q 14.40625 -0.734375 12.25 0.515625 
Q 10.109375 1.765625 9.078125 4.078125 
Q 8.0625 6.390625 8.0625 11.234375 
L 8.0625 41.3125 
L 0.984375 41.3125 
L 0.984375 42.921875 
Q 3.65625 44 6.46875 46.5625 
Q 9.28125 49.125 11.46875 52.640625 
Q 12.59375 54.5 14.59375 59.421875 
z
" id="TimesNewRomanPSMT-116"/>
      <path d="M 25 46.046875 
Q 35.15625 46.046875 41.3125 38.328125 
Q 46.53125 31.734375 46.53125 23.1875 
Q 46.53125 17.1875 43.640625 11.03125 
Q 40.765625 4.890625 35.71875 1.75 
Q 30.671875 -1.375 24.46875 -1.375 
Q 14.359375 -1.375 8.40625 6.6875 
Q 3.375 13.484375 3.375 21.921875 
Q 3.375 28.078125 6.421875 34.15625 
Q 9.46875 40.234375 14.453125 43.140625 
Q 19.4375 46.046875 25 46.046875 
z
M 23.484375 42.875 
Q 20.90625 42.875 18.28125 41.328125 
Q 15.671875 39.796875 14.0625 35.9375 
Q 12.453125 32.078125 12.453125 26.03125 
Q 12.453125 16.265625 16.328125 9.171875 
Q 20.21875 2.09375 26.5625 2.09375 
Q 31.296875 2.09375 34.375 6 
Q 37.453125 9.90625 37.453125 19.4375 
Q 37.453125 31.34375 32.328125 38.1875 
Q 28.859375 42.875 23.484375 42.875 
z
" id="TimesNewRomanPSMT-111"/>
      <path d="M 16.15625 36.578125 
Q 24.03125 46.046875 31.15625 46.046875 
Q 34.8125 46.046875 37.453125 44.21875 
Q 40.09375 42.390625 41.65625 38.1875 
Q 42.71875 35.25 42.71875 29.203125 
L 42.71875 10.109375 
Q 42.71875 5.859375 43.40625 4.34375 
Q 43.953125 3.125 45.140625 2.4375 
Q 46.34375 1.765625 49.5625 1.765625 
L 49.5625 0 
L 27.4375 0 
L 27.4375 1.765625 
L 28.375 1.765625 
Q 31.5 1.765625 32.734375 2.703125 
Q 33.984375 3.65625 34.46875 5.515625 
Q 34.671875 6.25 34.671875 10.109375 
L 34.671875 28.421875 
Q 34.671875 34.515625 33.078125 37.28125 
Q 31.5 40.046875 27.734375 40.046875 
Q 21.921875 40.046875 16.15625 33.6875 
L 16.15625 10.109375 
Q 16.15625 5.5625 16.703125 4.5 
Q 17.390625 3.078125 18.578125 2.421875 
Q 19.78125 1.765625 23.4375 1.765625 
L 23.4375 0 
L 1.3125 0 
L 1.3125 1.765625 
L 2.296875 1.765625 
Q 5.71875 1.765625 6.90625 3.484375 
Q 8.109375 5.21875 8.109375 10.109375 
L 8.109375 26.703125 
Q 8.109375 34.765625 7.734375 36.515625 
Q 7.375 38.28125 6.609375 38.90625 
Q 5.859375 39.546875 4.59375 39.546875 
Q 3.21875 39.546875 1.3125 38.8125 
L 0.59375 40.578125 
L 14.0625 46.046875 
L 16.15625 46.046875 
z
" id="TimesNewRomanPSMT-110"/>
      <path d="M 32.03125 46.046875 
L 32.03125 30.8125 
L 30.421875 30.8125 
Q 28.5625 37.984375 25.65625 40.578125 
Q 22.75 43.171875 18.265625 43.171875 
Q 14.84375 43.171875 12.734375 41.359375 
Q 10.640625 39.546875 10.640625 37.359375 
Q 10.640625 34.625 12.203125 32.671875 
Q 13.71875 30.671875 18.359375 28.421875 
L 25.484375 24.953125 
Q 35.40625 20.125 35.40625 12.203125 
Q 35.40625 6.109375 30.78125 2.359375 
Q 26.171875 -1.375 20.453125 -1.375 
Q 16.359375 -1.375 11.078125 0.09375 
Q 9.46875 0.59375 8.453125 0.59375 
Q 7.328125 0.59375 6.6875 -0.6875 
L 5.078125 -0.6875 
L 5.078125 15.28125 
L 6.6875 15.28125 
Q 8.0625 8.453125 11.90625 4.984375 
Q 15.765625 1.515625 20.5625 1.515625 
Q 23.921875 1.515625 26.046875 3.484375 
Q 28.171875 5.46875 28.171875 8.25 
Q 28.171875 11.625 25.796875 13.921875 
Q 23.4375 16.21875 16.359375 19.734375 
Q 9.28125 23.25 7.078125 26.078125 
Q 4.890625 28.859375 4.890625 33.109375 
Q 4.890625 38.625 8.671875 42.328125 
Q 12.453125 46.046875 18.453125 46.046875 
Q 21.09375 46.046875 24.859375 44.921875 
Q 27.34375 44.1875 28.171875 44.1875 
Q 28.953125 44.1875 29.390625 44.53125 
Q 29.828125 44.875 30.421875 46.046875 
z
" id="TimesNewRomanPSMT-115"/>
      <path d="M 20.609375 41.21875 
L 20.609375 11.8125 
Q 20.609375 5.5625 21.96875 3.90625 
Q 23.78125 1.765625 26.8125 1.765625 
L 30.859375 1.765625 
L 30.859375 0 
L 4.15625 0 
L 4.15625 1.765625 
L 6.15625 1.765625 
Q 8.109375 1.765625 9.71875 2.734375 
Q 11.328125 3.71875 11.9375 5.375 
Q 12.546875 7.03125 12.546875 11.8125 
L 12.546875 41.21875 
L 3.859375 41.21875 
L 3.859375 44.734375 
L 12.546875 44.734375 
L 12.546875 47.65625 
Q 12.546875 54.34375 14.6875 58.984375 
Q 16.84375 63.625 21.265625 66.484375 
Q 25.6875 69.34375 31.203125 69.34375 
Q 36.328125 69.34375 40.625 66.015625 
Q 43.453125 63.8125 43.453125 61.078125 
Q 43.453125 59.625 42.1875 58.328125 
Q 40.921875 57.03125 39.453125 57.03125 
Q 38.328125 57.03125 37.078125 57.828125 
Q 35.84375 58.640625 34.03125 61.296875 
Q 32.234375 63.96875 30.71875 64.890625 
Q 29.203125 65.828125 27.34375 65.828125 
Q 25.09375 65.828125 23.53125 64.625 
Q 21.96875 63.421875 21.28125 60.90625 
Q 20.609375 58.40625 20.609375 47.953125 
L 20.609375 44.734375 
L 32.125 44.734375 
L 32.125 41.21875 
z
" id="TimesNewRomanPSMT-102"/>
      <path d="M 16.21875 46.046875 
L 16.21875 35.984375 
Q 21.828125 46.046875 27.734375 46.046875 
Q 30.421875 46.046875 32.171875 44.40625 
Q 33.9375 42.78125 33.9375 40.625 
Q 33.9375 38.71875 32.65625 37.390625 
Q 31.390625 36.078125 29.640625 36.078125 
Q 27.9375 36.078125 25.8125 37.765625 
Q 23.6875 39.453125 22.65625 39.453125 
Q 21.78125 39.453125 20.75 38.484375 
Q 18.5625 36.46875 16.21875 31.890625 
L 16.21875 10.453125 
Q 16.21875 6.734375 17.140625 4.828125 
Q 17.78125 3.515625 19.390625 2.640625 
Q 21 1.765625 24.03125 1.765625 
L 24.03125 0 
L 1.125 0 
L 1.125 1.765625 
Q 4.546875 1.765625 6.203125 2.828125 
Q 7.421875 3.609375 7.90625 5.328125 
Q 8.15625 6.15625 8.15625 10.0625 
L 8.15625 27.390625 
Q 8.15625 35.203125 7.828125 36.6875 
Q 7.515625 38.1875 6.65625 38.859375 
Q 5.8125 39.546875 4.546875 39.546875 
Q 3.03125 39.546875 1.125 38.8125 
L 0.640625 40.578125 
L 14.15625 46.046875 
z
" id="TimesNewRomanPSMT-114"/>
      <path d="M 16.40625 36.53125 
Q 21.296875 41.40625 22.171875 42.140625 
Q 24.359375 44 26.890625 45.015625 
Q 29.4375 46.046875 31.9375 46.046875 
Q 36.140625 46.046875 39.15625 43.59375 
Q 42.1875 41.15625 43.21875 36.53125 
Q 48.25 42.390625 51.703125 44.21875 
Q 55.171875 46.046875 58.84375 46.046875 
Q 62.40625 46.046875 65.15625 44.21875 
Q 67.921875 42.390625 69.53125 38.234375 
Q 70.609375 35.40625 70.609375 29.34375 
L 70.609375 10.109375 
Q 70.609375 5.90625 71.234375 4.34375 
Q 71.734375 3.265625 73.046875 2.515625 
Q 74.359375 1.765625 77.34375 1.765625 
L 77.34375 0 
L 55.28125 0 
L 55.28125 1.765625 
L 56.203125 1.765625 
Q 59.078125 1.765625 60.6875 2.875 
Q 61.8125 3.65625 62.3125 5.375 
Q 62.5 6.203125 62.5 10.109375 
L 62.5 29.34375 
Q 62.5 34.8125 61.1875 37.0625 
Q 59.28125 40.1875 55.078125 40.1875 
Q 52.484375 40.1875 49.875 38.890625 
Q 47.265625 37.59375 43.5625 34.078125 
L 43.453125 33.546875 
L 43.5625 31.453125 
L 43.5625 10.109375 
Q 43.5625 5.515625 44.0625 4.390625 
Q 44.578125 3.265625 45.984375 2.515625 
Q 47.40625 1.765625 50.828125 1.765625 
L 50.828125 0 
L 28.21875 0 
L 28.21875 1.765625 
Q 31.9375 1.765625 33.328125 2.640625 
Q 34.71875 3.515625 35.25 5.28125 
Q 35.5 6.109375 35.5 10.109375 
L 35.5 29.34375 
Q 35.5 34.8125 33.890625 37.203125 
Q 31.734375 40.328125 27.875 40.328125 
Q 25.25 40.328125 22.65625 38.921875 
Q 18.609375 36.765625 16.40625 34.078125 
L 16.40625 10.109375 
Q 16.40625 5.71875 17.015625 4.390625 
Q 17.625 3.078125 18.8125 2.421875 
Q 20.015625 1.765625 23.6875 1.765625 
L 23.6875 0 
L 1.5625 0 
L 1.5625 1.765625 
Q 4.640625 1.765625 5.859375 2.421875 
Q 7.078125 3.078125 7.703125 4.515625 
Q 8.34375 5.953125 8.34375 10.109375 
L 8.34375 27.203125 
Q 8.34375 34.578125 7.90625 36.71875 
Q 7.5625 38.328125 6.828125 38.9375 
Q 6.109375 39.546875 4.828125 39.546875 
Q 3.46875 39.546875 1.5625 38.8125 
L 0.828125 40.578125 
L 14.3125 46.046875 
L 16.40625 46.046875 
z
" id="TimesNewRomanPSMT-109"/>
      <path d="M 18.5 69.4375 
L 18.5 10.109375 
Q 18.5 5.90625 19.109375 4.53125 
Q 19.734375 3.171875 21 2.46875 
Q 22.265625 1.765625 25.734375 1.765625 
L 25.734375 0 
L 3.8125 0 
L 3.8125 1.765625 
Q 6.890625 1.765625 8 2.390625 
Q 9.125 3.03125 9.765625 4.484375 
Q 10.40625 5.953125 10.40625 10.109375 
L 10.40625 50.734375 
Q 10.40625 58.296875 10.0625 60.03125 
Q 9.71875 61.765625 8.953125 62.390625 
Q 8.203125 63.03125 7.03125 63.03125 
Q 5.765625 63.03125 3.8125 62.25 
L 2.984375 63.96875 
L 16.3125 69.4375 
z
" id="TimesNewRomanPSMT-108"/>
      <path d="M 41.109375 17 
Q 39.3125 8.15625 34.03125 3.390625 
Q 28.765625 -1.375 22.359375 -1.375 
Q 14.75 -1.375 9.078125 5.015625 
Q 3.421875 11.421875 3.421875 22.3125 
Q 3.421875 32.859375 9.6875 39.453125 
Q 15.96875 46.046875 24.75 46.046875 
Q 31.34375 46.046875 35.59375 42.546875 
Q 39.84375 39.0625 39.84375 35.296875 
Q 39.84375 33.453125 38.640625 32.296875 
Q 37.453125 31.15625 35.296875 31.15625 
Q 32.421875 31.15625 30.953125 33.015625 
Q 30.125 34.03125 29.859375 36.90625 
Q 29.59375 39.796875 27.875 41.3125 
Q 26.171875 42.78125 23.140625 42.78125 
Q 18.265625 42.78125 15.28125 39.15625 
Q 11.328125 34.375 11.328125 26.515625 
Q 11.328125 18.5 15.25 12.375 
Q 19.1875 6.25 25.875 6.25 
Q 30.671875 6.25 34.46875 9.515625 
Q 37.15625 11.765625 39.703125 17.671875 
z
" id="TimesNewRomanPSMT-99"/>
     </defs>
     <use xlink:href="#TimesNewRomanPSMT-100"/>
     <use x="50" xlink:href="#TimesNewRomanPSMT-101"/>
     <use x="94.384766" xlink:href="#TimesNewRomanPSMT-118"/>
     <use x="144.384766" xlink:href="#TimesNewRomanPSMT-105"/>
     <use x="172.167969" xlink:href="#TimesNewRomanPSMT-97"/>
     <use x="216.552734" xlink:href="#TimesNewRomanPSMT-116"/>
     <use x="244.335938" xlink:href="#TimesNewRomanPSMT-105"/>
     <use x="272.119141" xlink:href="#TimesNewRomanPSMT-111"/>
     <use x="322.119141" xlink:href="#TimesNewRomanPSMT-110"/>
     <use x="372.119141" xlink:href="#TimesNewRomanPSMT-115"/>
     <use x="411.035156" xlink:href="#TimesNewRomanPSMT-32"/>
     <use x="436.035156" xlink:href="#TimesNewRomanPSMT-102"/>
     <use x="469.335938" xlink:href="#TimesNewRomanPSMT-114"/>
     <use x="502.636719" xlink:href="#TimesNewRomanPSMT-111"/>
     <use x="552.636719" xlink:href="#TimesNewRomanPSMT-109"/>
     <use x="630.419922" xlink:href="#TimesNewRomanPSMT-32"/>
     <use x="655.419922" xlink:href="#TimesNewRomanPSMT-112"/>
     <use x="705.419922" xlink:href="#TimesNewRomanPSMT-114"/>
     <use x="738.720703" xlink:href="#TimesNewRomanPSMT-105"/>
     <use x="766.503906" xlink:href="#TimesNewRomanPSMT-109"/>
     <use x="844.287109" xlink:href="#TimesNewRomanPSMT-105"/>
     <use x="872.070312" xlink:href="#TimesNewRomanPSMT-116"/>
     <use x="899.853516" xlink:href="#TimesNewRomanPSMT-105"/>
     <use x="927.636719" xlink:href="#TimesNewRomanPSMT-118"/>
     <use x="977.636719" xlink:href="#TimesNewRomanPSMT-101"/>
     <use x="1022.021484" xlink:href="#TimesNewRomanPSMT-32"/>
     <use x="1047.021484" xlink:href="#TimesNewRomanPSMT-108"/>
     <use x="1074.804688" xlink:href="#TimesNewRomanPSMT-97"/>
     <use x="1119.189453" xlink:href="#TimesNewRomanPSMT-116"/>
     <use x="1146.972656" xlink:href="#TimesNewRomanPSMT-116"/>
     <use x="1174.755859" xlink:href="#TimesNewRomanPSMT-105"/>
     <use x="1202.539062" xlink:href="#TimesNewRomanPSMT-99"/>
     <use x="1246.923828" xlink:href="#TimesNewRomanPSMT-101"/>
     <use x="1291.308594" xlink:href="#TimesNewRomanPSMT-32"/>
     <use x="1316.308594" xlink:href="#TimesNewRomanPSMT-118"/>
     <use x="1366.308594" xlink:href="#TimesNewRomanPSMT-101"/>
     <use x="1410.693359" xlink:href="#TimesNewRomanPSMT-99"/>
     <use x="1455.078125" xlink:href="#TimesNewRomanPSMT-116"/>
     <use x="1482.861328" xlink:href="#TimesNewRomanPSMT-111"/>
     <use x="1532.861328" xlink:href="#TimesNewRomanPSMT-114"/>
     <use x="1566.162109" xlink:href="#TimesNewRomanPSMT-115"/>
    </g>
   </g>
  </g>
 </g>
 <defs>
  <clipPath id="p7ca5cc3af7">
   <rect height="434.88" width="446.4" x="72" y="69.12"/>
  </clipPath>
 </defs>
</svg>
