<?xml version="1.0" encoding="utf-8" standalone="no"?>
<!DOCTYPE svg PUBLIC "-//W3C//DTD SVG 1.1//EN"
  "http://www.w3.org/Graphics/SVG/1.1/DTD/svg11.dtd">
<!-- Created with matplotlib (https://matplotlib.org/) -->
<svg height="288pt" version="1.1" viewBox="0 0 288 288" width="288pt" xmlns="http://www.w3.org/2000/svg" xmlns:xlink="http://www.w3.org/1999/xlink">
 <metadata>
  <rdf:RDF xmlns:cc="http://creativecommons.org/ns#" xmlns:dc="http://purl.org/dc/elements/1.1/" xmlns:rdf="http://www.w3.org/1999/02/22-rdf-syntax-ns#">
   <cc:Work>
    <dc:type rdf:resource="http://purl.org/dc/dcmitype/StillImage"/>
    <dc:date>2020-09-05T18:32:18.832525</dc:date>
    <dc:format>image/svg+xml</dc:format>
    <dc:creator>
     <cc:Agent>
      <dc:title>Matplotlib v3.3.1, https://matplotlib.org/</dc:title>
     </cc:Agent>
    </dc:creator>
   </cc:Work>
  </rdf:RDF>
 </metadata>
 <defs>
  <style type="text/css">*{stroke-linecap:butt;stroke-linejoin:round;}</style>
 </defs>
 <g id="figure_1">
  <g id="patch_1">
   <path d="M 0 288 
L 288 288 
L 288 0 
L 0 0 
z
" style="fill:none;"/>
  </g>
  <g id="axes_1">
   <g id="patch_2">
    <path d="M 36 252 
L 259.2 252 
L 259.2 34.56 
L 36 34.56 
z
" style="fill:#ffffff;"/>
   </g>
   <g id="PathCollection_1">
    <defs>
     <path d="M 0 0.5 
C 0.132602 0.5 0.25979 0.447317 0.353553 0.353553 
C 0.447317 0.25979 0.5 0.132602 0.5 0 
C 0.5 -0.132602 0.447317 -0.25979 0.353553 -0.353553 
C 0.25979 -0.447317 0.132602 -0.5 0 -0.5 
C -0.132602 -0.5 -0.25979 -0.447317 -0.353553 -0.353553 
C -0.447317 -0.25979 -0.5 -0.132602 -0.5 0 
C -0.5 0.132602 -0.447317 0.25979 -0.353553 0.353553 
C -0.25979 0.447317 -0.132602 0.5 0 0.5 
z
" id="m77dea6de6e" style="stroke:#1f77b4;"/>
    </defs>
    <g clip-path="url(#p733cacfb80)">
     <use style="fill:#1f77b4;stroke:#1f77b4;" x="185.888586" xlink:href="#m77dea6de6e" y="143.848928"/>
     <use style="fill:#1f77b4;stroke:#1f77b4;" x="209.422761" xlink:href="#m77dea6de6e" y="148.318263"/>
     <use style="fill:#1f77b4;stroke:#1f77b4;" x="220.918777" xlink:href="#m77dea6de6e" y="199.789627"/>
     <use style="fill:#1f77b4;stroke:#1f77b4;" x="163.858099" xlink:href="#m77dea6de6e" y="238.036113"/>
     <use style="fill:#1f77b4;stroke:#1f77b4;" x="243.377523" xlink:href="#m77dea6de6e" y="203.879676"/>
     <use style="fill:#1f77b4;stroke:#1f77b4;" x="187.37073" xlink:href="#m77dea6de6e" y="242.116364"/>
     <use style="fill:#1f77b4;stroke:#1f77b4;" x="185.846975" xlink:href="#m77dea6de6e" y="143.85951"/>
     <use style="fill:#1f77b4;stroke:#1f77b4;" x="208.750981" xlink:href="#m77dea6de6e" y="148.00203"/>
     <use style="fill:#1f77b4;stroke:#1f77b4;" x="219.395022" xlink:href="#m77dea6de6e" y="101.532773"/>
     <use style="fill:#1f77b4;stroke:#1f77b4;" x="230.981795" xlink:href="#m77dea6de6e" y="151.568555"/>
     <use style="fill:#1f77b4;stroke:#1f77b4;" x="220.285451" xlink:href="#m77dea6de6e" y="198.36044"/>
     <use style="fill:#1f77b4;stroke:#1f77b4;" x="241.853768" xlink:href="#m77dea6de6e" y="105.622822"/>
     <use style="fill:#1f77b4;stroke:#1f77b4;" x="138.780101" xlink:href="#m77dea6de6e" y="135.70959"/>
     <use style="fill:#1f77b4;stroke:#1f77b4;" x="185.868519" xlink:href="#m77dea6de6e" y="144.248593"/>
     <use style="fill:#1f77b4;stroke:#1f77b4;" x="197.364535" xlink:href="#m77dea6de6e" y="195.719958"/>
     <use style="fill:#1f77b4;stroke:#1f77b4;" x="219.823281" xlink:href="#m77dea6de6e" y="199.810007"/>
     <use style="fill:#1f77b4;stroke:#1f77b4;" x="140.303857" xlink:href="#m77dea6de6e" y="233.966444"/>
     <use style="fill:#1f77b4;stroke:#1f77b4;" x="163.816488" xlink:href="#m77dea6de6e" y="238.046695"/>
     <use style="fill:#1f77b4;stroke:#1f77b4;" x="185.23835" xlink:href="#m77dea6de6e" y="143.921779"/>
     <use style="fill:#1f77b4;stroke:#1f77b4;" x="138.821713" xlink:href="#m77dea6de6e" y="135.699008"/>
     <use style="fill:#1f77b4;stroke:#1f77b4;" x="207.469164" xlink:href="#m77dea6de6e" y="147.488304"/>
     <use style="fill:#1f77b4;stroke:#1f77b4;" x="195.882391" xlink:href="#m77dea6de6e" y="97.452522"/>
     <use style="fill:#1f77b4;stroke:#1f77b4;" x="196.77282" xlink:href="#m77dea6de6e" y="194.280189"/>
     <use style="fill:#1f77b4;stroke:#1f77b4;" x="218.341137" xlink:href="#m77dea6de6e" y="101.542571"/>
     <use style="fill:#1f77b4;stroke:#1f77b4;" x="138.800168" xlink:href="#m77dea6de6e" y="135.309924"/>
     <use style="fill:#1f77b4;stroke:#1f77b4;" x="115.245926" xlink:href="#m77dea6de6e" y="131.240255"/>
     <use style="fill:#1f77b4;stroke:#1f77b4;" x="173.830359" xlink:href="#m77dea6de6e" y="191.250623"/>
     <use style="fill:#1f77b4;stroke:#1f77b4;" x="196.289105" xlink:href="#m77dea6de6e" y="195.340672"/>
     <use style="fill:#1f77b4;stroke:#1f77b4;" x="218.446015" xlink:href="#m77dea6de6e" y="200.080158"/>
     <use style="fill:#1f77b4;stroke:#1f77b4;" x="250.546618" xlink:href="#m77dea6de6e" y="157.189601"/>
     <use style="fill:#1f77b4;stroke:#1f77b4;" x="184.565158" xlink:href="#m77dea6de6e" y="143.345784"/>
     <use style="fill:#1f77b4;stroke:#1f77b4;" x="139.430337" xlink:href="#m77dea6de6e" y="135.636738"/>
     <use style="fill:#1f77b4;stroke:#1f77b4;" x="207.566491" xlink:href="#m77dea6de6e" y="148.175627"/>
     <use style="fill:#1f77b4;stroke:#1f77b4;" x="115.917706" xlink:href="#m77dea6de6e" y="131.556487"/>
     <use style="fill:#1f77b4;stroke:#1f77b4;" x="172.978384" xlink:href="#m77dea6de6e" y="93.310001"/>
     <use style="fill:#1f77b4;stroke:#1f77b4;" x="173.868814" xlink:href="#m77dea6de6e" y="190.137669"/>
     <use style="fill:#1f77b4;stroke:#1f77b4;" x="184.79309" xlink:href="#m77dea6de6e" y="143.869308"/>
     <use style="fill:#1f77b4;stroke:#1f77b4;" x="206.949999" xlink:href="#m77dea6de6e" y="148.608794"/>
     <use style="fill:#1f77b4;stroke:#1f77b4;" x="151.690303" xlink:href="#m77dea6de6e" y="186.248516"/>
     <use style="fill:#1f77b4;stroke:#1f77b4;" x="173.921117" xlink:href="#m77dea6de6e" y="189.815041"/>
     <use style="fill:#1f77b4;stroke:#1f77b4;" x="150.838328" xlink:href="#m77dea6de6e" y="88.307894"/>
     <use style="fill:#1f77b4;stroke:#1f77b4;" x="128.786297" xlink:href="#m77dea6de6e" y="182.105996"/>
     <use style="fill:#1f77b4;stroke:#1f77b4;" x="185.092301" xlink:href="#m77dea6de6e" y="144.126198"/>
     <use style="fill:#1f77b4;stroke:#1f77b4;" x="208.426882" xlink:href="#m77dea6de6e" y="147.84359"/>
     <use style="fill:#1f77b4;stroke:#1f77b4;" x="173.030688" xlink:href="#m77dea6de6e" y="92.987374"/>
     <use style="fill:#1f77b4;stroke:#1f77b4;" x="150.799874" xlink:href="#m77dea6de6e" y="89.420849"/>
     <use style="fill:#1f77b4;stroke:#1f77b4;" x="196.032021" xlink:href="#m77dea6de6e" y="97.817217"/>
     <use style="fill:#1f77b4;stroke:#1f77b4;" x="127.895867" xlink:href="#m77dea6de6e" y="85.278328"/>
     <use style="fill:#1f77b4;stroke:#1f77b4;" x="140.10353" xlink:href="#m77dea6de6e" y="136.212734"/>
     <use style="fill:#1f77b4;stroke:#1f77b4;" x="185.335677" xlink:href="#m77dea6de6e" y="144.609103"/>
     <use style="fill:#1f77b4;stroke:#1f77b4;" x="117.199523" xlink:href="#m77dea6de6e" y="132.070213"/>
     <use style="fill:#1f77b4;stroke:#1f77b4;" x="173.206316" xlink:href="#m77dea6de6e" y="93.833526"/>
     <use style="fill:#1f77b4;stroke:#1f77b4;" x="151.637999" xlink:href="#m77dea6de6e" y="186.571144"/>
     <use style="fill:#1f77b4;stroke:#1f77b4;" x="150.74757" xlink:href="#m77dea6de6e" y="89.743476"/>
     <use style="fill:#1f77b4;stroke:#1f77b4;" x="184.491253" xlink:href="#m77dea6de6e" y="144.518744"/>
     <use style="fill:#1f77b4;stroke:#1f77b4;" x="139.875598" xlink:href="#m77dea6de6e" y="135.689209"/>
     <use style="fill:#1f77b4;stroke:#1f77b4;" x="207.186768" xlink:href="#m77dea6de6e" y="148.582272"/>
     <use style="fill:#1f77b4;stroke:#1f77b4;" x="151.462371" xlink:href="#m77dea6de6e" y="185.724992"/>
     <use style="fill:#1f77b4;stroke:#1f77b4;" x="174.463704" xlink:href="#m77dea6de6e" y="190.554836"/>
     <use style="fill:#1f77b4;stroke:#1f77b4;" x="129.231557" xlink:href="#m77dea6de6e" y="182.158467"/>
     <use style="fill:#1f77b4;stroke:#1f77b4;" x="139.576386" xlink:href="#m77dea6de6e" y="135.432319"/>
     <use style="fill:#1f77b4;stroke:#1f77b4;" x="185.668924" xlink:href="#m77dea6de6e" y="143.496651"/>
     <use style="fill:#1f77b4;stroke:#1f77b4;" x="173.274063" xlink:href="#m77dea6de6e" y="93.470278"/>
     <use style="fill:#1f77b4;stroke:#1f77b4;" x="150.27273" xlink:href="#m77dea6de6e" y="88.640434"/>
     <use style="fill:#1f77b4;stroke:#1f77b4;" x="197.107061" xlink:href="#m77dea6de6e" y="193.148864"/>
     <use style="fill:#1f77b4;stroke:#1f77b4;" x="128.041916" xlink:href="#m77dea6de6e" y="85.073909"/>
     <use style="fill:#1f77b4;stroke:#1f77b4;" x="139.333011" xlink:href="#m77dea6de6e" y="134.949415"/>
     <use style="fill:#1f77b4;stroke:#1f77b4;" x="117.102197" xlink:href="#m77dea6de6e" y="131.38289"/>
     <use style="fill:#1f77b4;stroke:#1f77b4;" x="172.361892" xlink:href="#m77dea6de6e" y="93.743168"/>
     <use style="fill:#1f77b4;stroke:#1f77b4;" x="151.394624" xlink:href="#m77dea6de6e" y="186.08824"/>
     <use style="fill:#1f77b4;stroke:#1f77b4;" x="174.729204" xlink:href="#m77dea6de6e" y="189.805631"/>
     <use style="fill:#1f77b4;stroke:#1f77b4;" x="150.204983" xlink:href="#m77dea6de6e" y="89.003682"/>
     <use style="fill:#1f77b4;stroke:#1f77b4;" x="140.177435" xlink:href="#m77dea6de6e" y="135.039773"/>
     <use style="fill:#1f77b4;stroke:#1f77b4;" x="185.029859" xlink:href="#m77dea6de6e" y="143.842786"/>
     <use style="fill:#1f77b4;stroke:#1f77b4;" x="117.718689" xlink:href="#m77dea6de6e" y="130.949724"/>
     <use style="fill:#1f77b4;stroke:#1f77b4;" x="152.306795" xlink:href="#m77dea6de6e" y="185.81535"/>
     <use style="fill:#1f77b4;stroke:#1f77b4;" x="129.305462" xlink:href="#m77dea6de6e" y="180.985506"/>
     <use style="fill:#1f77b4;stroke:#1f77b4;" x="194.434947" xlink:href="#m77dea6de6e" y="96.888701"/>
     <use style="fill:#1f77b4;stroke:#1f77b4;" x="138.999763" xlink:href="#m77dea6de6e" y="136.061867"/>
     <use style="fill:#1f77b4;stroke:#1f77b4;" x="116.241806" xlink:href="#m77dea6de6e" y="131.714927"/>
     <use style="fill:#1f77b4;stroke:#1f77b4;" x="173.772481" xlink:href="#m77dea6de6e" y="189.431472"/>
     <use style="fill:#1f77b4;stroke:#1f77b4;" x="149.939483" xlink:href="#m77dea6de6e" y="89.752886"/>
     <use style="fill:#1f77b4;stroke:#1f77b4;" x="195.759466" xlink:href="#m77dea6de6e" y="193.317438"/>
     <use style="fill:#1f77b4;stroke:#1f77b4;" x="126.93815" xlink:href="#m77dea6de6e" y="84.923042"/>
     <use style="fill:#1f77b4;stroke:#1f77b4;" x="168.905463" xlink:href="#m77dea6de6e" y="156.502099"/>
     <use style="fill:#1f77b4;stroke:#1f77b4;" x="184.321329" xlink:href="#m77dea6de6e" y="143.665224"/>
     <use style="fill:#1f77b4;stroke:#1f77b4;" x="205.718447" xlink:href="#m77dea6de6e" y="147.848495"/>
     <use style="fill:#1f77b4;stroke:#1f77b4;" x="150.896206" xlink:href="#m77dea6de6e" y="90.127045"/>
     <use style="fill:#1f77b4;stroke:#1f77b4;" x="127.561626" xlink:href="#m77dea6de6e" y="86.409653"/>
     <use style="fill:#1f77b4;stroke:#1f77b4;" x="227.26869" xlink:href="#m77dea6de6e" y="151.885619"/>
     <use style="fill:#1f77b4;stroke:#1f77b4;" x="155.763224" xlink:href="#m77dea6de6e" y="123.056418"/>
     <use style="fill:#1f77b4;stroke:#1f77b4;" x="177.750209" xlink:href="#m77dea6de6e" y="126.942384"/>
     <use style="fill:#1f77b4;stroke:#1f77b4;" x="199.147327" xlink:href="#m77dea6de6e" y="131.125654"/>
     <use style="fill:#1f77b4;stroke:#1f77b4;" x="220.69757" xlink:href="#m77dea6de6e" y="135.162779"/>
     <use style="fill:#1f77b4;stroke:#1f77b4;" x="144.325087" xlink:href="#m77dea6de6e" y="73.404205"/>
     <use style="fill:#1f77b4;stroke:#1f77b4;" x="242.875265" xlink:href="#m77dea6de6e" y="139.568099"/>
     <use style="fill:#1f77b4;stroke:#1f77b4;" x="139.638829" xlink:href="#m77dea6de6e" y="135.715731"/>
     <use style="fill:#1f77b4;stroke:#1f77b4;" x="117.481919" xlink:href="#m77dea6de6e" y="130.976246"/>
     <use style="fill:#1f77b4;stroke:#1f77b4;" x="171.739432" xlink:href="#m77dea6de6e" y="92.825174"/>
     <use style="fill:#1f77b4;stroke:#1f77b4;" x="193.888195" xlink:href="#m77dea6de6e" y="97.681945"/>
     <use style="fill:#1f77b4;stroke:#1f77b4;" x="129.61128" xlink:href="#m77dea6de6e" y="181.751822"/>
     <use style="fill:#1f77b4;stroke:#1f77b4;" x="215.820354" xlink:href="#m77dea6de6e" y="101.696102"/>
     <use style="fill:#1f77b4;stroke:#1f77b4;" x="184.483107" xlink:href="#m77dea6de6e" y="144.63603"/>
     <use style="fill:#1f77b4;stroke:#1f77b4;" x="206.415266" xlink:href="#m77dea6de6e" y="148.650186"/>
     <use style="fill:#1f77b4;stroke:#1f77b4;" x="152.929256" xlink:href="#m77dea6de6e" y="186.733344"/>
     <use style="fill:#1f77b4;stroke:#1f77b4;" x="130.233741" xlink:href="#m77dea6de6e" y="182.669816"/>
     <use style="fill:#1f77b4;stroke:#1f77b4;" x="108.076831" xlink:href="#m77dea6de6e" y="177.930331"/>
     <use style="fill:#1f77b4;stroke:#1f77b4;" x="228.929805" xlink:href="#m77dea6de6e" y="152.585253"/>
     <use style="fill:#1f77b4;stroke:#1f77b4;" x="146.918478" xlink:href="#m77dea6de6e" y="152.616134"/>
     <use style="fill:#1f77b4;stroke:#1f77b4;" x="183.731462" xlink:href="#m77dea6de6e" y="143.962529"/>
     <use style="fill:#1f77b4;stroke:#1f77b4;" x="140.347359" xlink:href="#m77dea6de6e" y="135.893293"/>
     <use style="fill:#1f77b4;stroke:#1f77b4;" x="205.281705" xlink:href="#m77dea6de6e" y="147.999654"/>
     <use style="fill:#1f77b4;stroke:#1f77b4;" x="128.909221" xlink:href="#m77dea6de6e" y="86.24108"/>
     <use style="fill:#1f77b4;stroke:#1f77b4;" x="215.86105" xlink:href="#m77dea6de6e" y="103.002769"/>
     <use style="fill:#1f77b4;stroke:#1f77b4;" x="184.266502" xlink:href="#m77dea6de6e" y="143.793415"/>
     <use style="fill:#1f77b4;stroke:#1f77b4;" x="140.18558" xlink:href="#m77dea6de6e" y="134.922488"/>
     <use style="fill:#1f77b4;stroke:#1f77b4;" x="206.781042" xlink:href="#m77dea6de6e" y="147.728482"/>
     <use style="fill:#1f77b4;stroke:#1f77b4;" x="130.780492" xlink:href="#m77dea6de6e" y="181.876573"/>
     <use style="fill:#1f77b4;stroke:#1f77b4;" x="108.084977" xlink:href="#m77dea6de6e" y="177.813045"/>
     <use style="fill:#1f77b4;stroke:#1f77b4;" x="217.635481" xlink:href="#m77dea6de6e" y="198.591192"/>
     <use style="fill:#1f77b4;stroke:#1f77b4;" x="140.937226" xlink:href="#m77dea6de6e" y="135.595988"/>
     <use style="fill:#1f77b4;stroke:#1f77b4;" x="183.884587" xlink:href="#m77dea6de6e" y="143.816383"/>
     <use style="fill:#1f77b4;stroke:#1f77b4;" x="125.52136" xlink:href="#m77dea6de6e" y="148.432863"/>
     <use style="fill:#1f77b4;stroke:#1f77b4;" x="118.950241" xlink:href="#m77dea6de6e" y="131.710023"/>
     <use style="fill:#1f77b4;stroke:#1f77b4;" x="206.062281" xlink:href="#m77dea6de6e" y="148.221703"/>
     <use style="fill:#1f77b4;stroke:#1f77b4;" x="194.463932" xlink:href="#m77dea6de6e" y="98.819498"/>
     <use style="fill:#1f77b4;stroke:#1f77b4;" x="140.402185" xlink:href="#m77dea6de6e" y="135.765102"/>
     <use style="fill:#1f77b4;stroke:#1f77b4;" x="184.848883" xlink:href="#m77dea6de6e" y="143.714325"/>
     <use style="fill:#1f77b4;stroke:#1f77b4;" x="118.253421" xlink:href="#m77dea6de6e" y="130.908331"/>
     <use style="fill:#1f77b4;stroke:#1f77b4;" x="195.703322" xlink:href="#m77dea6de6e" y="194.577035"/>
     <use style="fill:#1f77b4;stroke:#1f77b4;" x="108.848333" xlink:href="#m77dea6de6e" y="177.862416"/>
     <use style="fill:#1f77b4;stroke:#1f77b4;" x="217.201277" xlink:href="#m77dea6de6e" y="199.235399"/>
     <use style="fill:#1f77b4;stroke:#1f77b4;" x="140.784101" xlink:href="#m77dea6de6e" y="135.742134"/>
     <use style="fill:#1f77b4;stroke:#1f77b4;" x="184.512038" xlink:href="#m77dea6de6e" y="144.184579"/>
     <use style="fill:#1f77b4;stroke:#1f77b4;" x="119.386983" xlink:href="#m77dea6de6e" y="131.558864"/>
     <use style="fill:#1f77b4;stroke:#1f77b4;" x="206.269444" xlink:href="#m77dea6de6e" y="148.025776"/>
     <use style="fill:#1f77b4;stroke:#1f77b4;" x="172.913689" xlink:href="#m77dea6de6e" y="94.782374"/>
     <use style="fill:#1f77b4;stroke:#1f77b4;" x="195.537795" xlink:href="#m77dea6de6e" y="98.733353"/>
     <use style="fill:#1f77b4;stroke:#1f77b4;" x="184.958449" xlink:href="#m77dea6de6e" y="143.730238"/>
     <use style="fill:#1f77b4;stroke:#1f77b4;" x="151.754998" xlink:href="#m77dea6de6e" y="184.776144"/>
     <use style="fill:#1f77b4;stroke:#1f77b4;" x="173.932693" xlink:href="#m77dea6de6e" y="189.181464"/>
     <use style="fill:#1f77b4;stroke:#1f77b4;" x="130.204756" xlink:href="#m77dea6de6e" y="180.739019"/>
     <use style="fill:#1f77b4;stroke:#1f77b4;" x="195.690099" xlink:href="#m77dea6de6e" y="193.022661"/>
     <use style="fill:#1f77b4;stroke:#1f77b4;" x="108.807638" xlink:href="#m77dea6de6e" y="176.555749"/>
     <use style="fill:#1f77b4;stroke:#1f77b4;" x="139.819804" xlink:href="#m77dea6de6e" y="135.844193"/>
     <use style="fill:#1f77b4;stroke:#1f77b4;" x="117.887646" xlink:href="#m77dea6de6e" y="131.830036"/>
     <use style="fill:#1f77b4;stroke:#1f77b4;" x="173.188783" xlink:href="#m77dea6de6e" y="190.641969"/>
     <use style="fill:#1f77b4;stroke:#1f77b4;" x="194.686738" xlink:href="#m77dea6de6e" y="195.300333"/>
     <use style="fill:#1f77b4;stroke:#1f77b4;" x="215.229277" xlink:href="#m77dea6de6e" y="101.426061"/>
     <use style="fill:#1f77b4;stroke:#1f77b4;" x="95.738882" xlink:href="#m77dea6de6e" y="126.973265"/>
     <use style="fill:#1f77b4;stroke:#1f77b4;" x="184.091749" xlink:href="#m77dea6de6e" y="143.620456"/>
     <use style="fill:#1f77b4;stroke:#1f77b4;" x="140.156649" xlink:href="#m77dea6de6e" y="135.373939"/>
     <use style="fill:#1f77b4;stroke:#1f77b4;" x="118.606406" xlink:href="#m77dea6de6e" y="131.336814"/>
     <use style="fill:#1f77b4;stroke:#1f77b4;" x="173.3601" xlink:href="#m77dea6de6e" y="94.328033"/>
     <use style="fill:#1f77b4;stroke:#1f77b4;" x="150.735994" xlink:href="#m77dea6de6e" y="90.377054"/>
     <use style="fill:#1f77b4;stroke:#1f77b4;" x="97.209288" xlink:href="#m77dea6de6e" y="127.153544"/>
     <use style="fill:#1f77b4;stroke:#1f77b4;" x="183.832299" xlink:href="#m77dea6de6e" y="144.437623"/>
     <use style="fill:#1f77b4;stroke:#1f77b4;" x="205.980328" xlink:href="#m77dea6de6e" y="148.441797"/>
     <use style="fill:#1f77b4;stroke:#1f77b4;" x="151.479905" xlink:href="#m77dea6de6e" y="88.916549"/>
     <use style="fill:#1f77b4;stroke:#1f77b4;" x="128.965366" xlink:href="#m77dea6de6e" y="84.981482"/>
     <use style="fill:#1f77b4;stroke:#1f77b4;" x="216.655303" xlink:href="#m77dea6de6e" y="198.626502"/>
     <use style="fill:#1f77b4;stroke:#1f77b4;" x="107.033207" xlink:href="#m77dea6de6e" y="80.967326"/>
     <use style="fill:#1f77b4;stroke:#1f77b4;" x="139.710238" xlink:href="#m77dea6de6e" y="135.828279"/>
     <use style="fill:#1f77b4;stroke:#1f77b4;" x="151.308587" xlink:href="#m77dea6de6e" y="185.230485"/>
     <use style="fill:#1f77b4;stroke:#1f77b4;" x="173.065993" xlink:href="#m77dea6de6e" y="189.071682"/>
     <use style="fill:#1f77b4;stroke:#1f77b4;" x="129.130893" xlink:href="#m77dea6de6e" y="180.825164"/>
     <use style="fill:#1f77b4;stroke:#1f77b4;" x="214.262561" xlink:href="#m77dea6de6e" y="102.629517"/>
     <use style="fill:#1f77b4;stroke:#1f77b4;" x="107.58065" xlink:href="#m77dea6de6e" y="176.78804"/>
     <use style="fill:#1f77b4;stroke:#1f77b4;" x="140.576938" xlink:href="#m77dea6de6e" y="135.938062"/>
     <use style="fill:#1f77b4;stroke:#1f77b4;" x="118.399243" xlink:href="#m77dea6de6e" y="131.532742"/>
     <use style="fill:#1f77b4;stroke:#1f77b4;" x="151.602694" xlink:href="#m77dea6de6e" y="90.486836"/>
     <use style="fill:#1f77b4;stroke:#1f77b4;" x="128.978589" xlink:href="#m77dea6de6e" y="86.535857"/>
     <use style="fill:#1f77b4;stroke:#1f77b4;" x="96.849001" xlink:href="#m77dea6de6e" y="127.495617"/>
     <use style="fill:#1f77b4;stroke:#1f77b4;" x="236.850411" xlink:href="#m77dea6de6e" y="106.996161"/>
     <use style="fill:#1f77b4;stroke:#1f77b4;" x="140.836388" xlink:href="#m77dea6de6e" y="135.120895"/>
     <use style="fill:#1f77b4;stroke:#1f77b4;" x="184.482373" xlink:href="#m77dea6de6e" y="143.783433"/>
     <use style="fill:#1f77b4;stroke:#1f77b4;" x="195.157348" xlink:href="#m77dea6de6e" y="193.968138"/>
     <use style="fill:#1f77b4;stroke:#1f77b4;" x="129.98195" xlink:href="#m77dea6de6e" y="84.258184"/>
     <use style="fill:#1f77b4;stroke:#1f77b4;" x="215.377648" xlink:href="#m77dea6de6e" y="101.809011"/>
     <use style="fill:#1f77b4;stroke:#1f77b4;" x="217.565454" xlink:href="#m77dea6de6e" y="198.00455"/>
     <use style="fill:#1f77b4;stroke:#1f77b4;" x="183.618028" xlink:href="#m77dea6de6e" y="143.68659"/>
     <use style="fill:#1f77b4;stroke:#1f77b4;" x="194.835109" xlink:href="#m77dea6de6e" y="195.683283"/>
     <use style="fill:#1f77b4;stroke:#1f77b4;" x="109.439411" xlink:href="#m77dea6de6e" y="178.132456"/>
     <use style="fill:#1f77b4;stroke:#1f77b4;" x="226.420388" xlink:href="#m77dea6de6e" y="153.114598"/>
     <use style="fill:#1f77b4;stroke:#1f77b4;" x="216.452613" xlink:href="#m77dea6de6e" y="199.614093"/>
     <use style="fill:#1f77b4;stroke:#1f77b4;" x="86.924871" xlink:href="#m77dea6de6e" y="174.19739"/>
     <use style="fill:#1f77b4;stroke:#1f77b4;" x="140.186315" xlink:href="#m77dea6de6e" y="135.775084"/>
     <use style="fill:#1f77b4;stroke:#1f77b4;" x="118.68836" xlink:href="#m77dea6de6e" y="131.11672"/>
     <use style="fill:#1f77b4;stroke:#1f77b4;" x="173.009319" xlink:href="#m77dea6de6e" y="189.963964"/>
     <use style="fill:#1f77b4;stroke:#1f77b4;" x="193.22962" xlink:href="#m77dea6de6e" y="97.804837"/>
     <use style="fill:#1f77b4;stroke:#1f77b4;" x="195.417425" xlink:href="#m77dea6de6e" y="194.000375"/>
     <use style="fill:#1f77b4;stroke:#1f77b4;" x="214.847123" xlink:href="#m77dea6de6e" y="101.735647"/>
     <use style="fill:#1f77b4;stroke:#1f77b4;" x="184.74245" xlink:href="#m77dea6de6e" y="143.81567"/>
     <use style="fill:#1f77b4;stroke:#1f77b4;" x="151.659368" xlink:href="#m77dea6de6e" y="89.594554"/>
     <use style="fill:#1f77b4;stroke:#1f77b4;" x="195.653843" xlink:href="#m77dea6de6e" y="193.438326"/>
     <use style="fill:#1f77b4;stroke:#1f77b4;" x="129.511339" xlink:href="#m77dea6de6e" y="85.590379"/>
     <use style="fill:#1f77b4;stroke:#1f77b4;" x="110.406127" xlink:href="#m77dea6de6e" y="176.929001"/>
     <use style="fill:#1f77b4;stroke:#1f77b4;" x="217.172087" xlink:href="#m77dea6de6e" y="197.932146"/>
     <use style="fill:#1f77b4;stroke:#1f77b4;" x="141.05066" xlink:href="#m77dea6de6e" y="135.871927"/>
     <use style="fill:#1f77b4;stroke:#1f77b4;" x="205.136704" xlink:href="#m77dea6de6e" y="149.207266"/>
     <use style="fill:#1f77b4;stroke:#1f77b4;" x="173.551425" xlink:href="#m77dea6de6e" y="191.775952"/>
     <use style="fill:#1f77b4;stroke:#1f77b4;" x="195.168929" xlink:href="#m77dea6de6e" y="195.706762"/>
     <use style="fill:#1f77b4;stroke:#1f77b4;" x="226.684786" xlink:href="#m77dea6de6e" y="153.020418"/>
     <use style="fill:#1f77b4;stroke:#1f77b4;" x="217.129112" xlink:href="#m77dea6de6e" y="199.859124"/>
     <use style="fill:#1f77b4;stroke:#1f77b4;" x="183.951848" xlink:href="#m77dea6de6e" y="143.710069"/>
     <use style="fill:#1f77b4;stroke:#1f77b4;" x="205.91203" xlink:href="#m77dea6de6e" y="147.862431"/>
     <use style="fill:#1f77b4;stroke:#1f77b4;" x="131.439068" xlink:href="#m77dea6de6e" y="181.753681"/>
     <use style="fill:#1f77b4;stroke:#1f77b4;" x="193.919622" xlink:href="#m77dea6de6e" y="97.210573"/>
     <use style="fill:#1f77b4;stroke:#1f77b4;" x="151.117262" xlink:href="#m77dea6de6e" y="87.782566"/>
     <use style="fill:#1f77b4;stroke:#1f77b4;" x="129.833578" xlink:href="#m77dea6de6e" y="83.875234"/>
     <use style="fill:#1f77b4;stroke:#1f77b4;" x="139.926238" xlink:href="#m77dea6de6e" y="135.742847"/>
     <use style="fill:#1f77b4;stroke:#1f77b4;" x="173.245737" xlink:href="#m77dea6de6e" y="189.401915"/>
     <use style="fill:#1f77b4;stroke:#1f77b4;" x="194.763981" xlink:href="#m77dea6de6e" y="193.895735"/>
     <use style="fill:#1f77b4;stroke:#1f77b4;" x="129.251262" xlink:href="#m77dea6de6e" y="85.558143"/>
     <use style="fill:#1f77b4;stroke:#1f77b4;" x="214.514794" xlink:href="#m77dea6de6e" y="102.691355"/>
     <use style="fill:#1f77b4;stroke:#1f77b4;" x="216.410632" xlink:href="#m77dea6de6e" y="198.026977"/>
     <use style="fill:#1f77b4;stroke:#1f77b4;" x="183.852587" xlink:href="#m77dea6de6e" y="144.273079"/>
     <use style="fill:#1f77b4;stroke:#1f77b4;" x="205.499238" xlink:href="#m77dea6de6e" y="148.404321"/>
     <use style="fill:#1f77b4;stroke:#1f77b4;" x="151.42295" xlink:href="#m77dea6de6e" y="90.156603"/>
     <use style="fill:#1f77b4;stroke:#1f77b4;" x="129.014844" xlink:href="#m77dea6de6e" y="86.120191"/>
     <use style="fill:#1f77b4;stroke:#1f77b4;" x="87.818277" xlink:href="#m77dea6de6e" y="172.562356"/>
     <use style="fill:#1f77b4;stroke:#1f77b4;" x="77.086628" xlink:href="#m77dea6de6e" y="123.269933"/>
     <use style="fill:#1f77b4;stroke:#1f77b4;" x="140.71684" xlink:href="#m77dea6de6e" y="135.848449"/>
     <use style="fill:#1f77b4;stroke:#1f77b4;" x="184.294526" xlink:href="#m77dea6de6e" y="143.931621"/>
     <use style="fill:#1f77b4;stroke:#1f77b4;" x="172.302118" xlink:href="#m77dea6de6e" y="93.279763"/>
     <use style="fill:#1f77b4;stroke:#1f77b4;" x="193.8502" xlink:href="#m77dea6de6e" y="97.092915"/>
     <use style="fill:#1f77b4;stroke:#1f77b4;" x="195.085096" xlink:href="#m77dea6de6e" y="194.956083"/>
     <use style="fill:#1f77b4;stroke:#1f77b4;" x="109.821564" xlink:href="#m77dea6de6e" y="177.822871"/>
     <use style="fill:#1f77b4;stroke:#1f77b4;" x="183.882426" xlink:href="#m77dea6de6e" y="143.592411"/>
     <use style="fill:#1f77b4;stroke:#1f77b4;" x="119.531984" xlink:href="#m77dea6de6e" y="130.351252"/>
     <use style="fill:#1f77b4;stroke:#1f77b4;" x="152.366569" xlink:href="#m77dea6de6e" y="186.278754"/>
     <use style="fill:#1f77b4;stroke:#1f77b4;" x="174.326752" xlink:href="#m77dea6de6e" y="190.431117"/>
     <use style="fill:#1f77b4;stroke:#1f77b4;" x="130.749066" xlink:href="#m77dea6de6e" y="182.347945"/>
     <use style="fill:#1f77b4;stroke:#1f77b4;" x="98.2483" xlink:href="#m77dea6de6e" y="126.44392"/>
     <use style="fill:#1f77b4;stroke:#1f77b4;" x="140.8161" xlink:href="#m77dea6de6e" y="135.285439"/>
     <use style="fill:#1f77b4;stroke:#1f77b4;" x="183.980995" xlink:href="#m77dea6de6e" y="143.910501"/>
     <use style="fill:#1f77b4;stroke:#1f77b4;" x="129.904707" xlink:href="#m77dea6de6e" y="85.662783"/>
     <use style="fill:#1f77b4;stroke:#1f77b4;" x="107.496601" xlink:href="#m77dea6de6e" y="81.626371"/>
     <use style="fill:#1f77b4;stroke:#1f77b4;" x="182.085157" xlink:href="#m77dea6de6e" y="48.574879"/>
     <use style="fill:#1f77b4;stroke:#1f77b4;" x="66.300033" xlink:href="#m77dea6de6e" y="168.068536"/>
     <use style="fill:#1f77b4;stroke:#1f77b4;" x="140.374161" xlink:href="#m77dea6de6e" y="135.626896"/>
     <use style="fill:#1f77b4;stroke:#1f77b4;" x="118.756658" xlink:href="#m77dea6de6e" y="131.696087"/>
     <use style="fill:#1f77b4;stroke:#1f77b4;" x="171.890018" xlink:href="#m77dea6de6e" y="92.940552"/>
     <use style="fill:#1f77b4;stroke:#1f77b4;" x="150.341936" xlink:href="#m77dea6de6e" y="89.127401"/>
     <use style="fill:#1f77b4;stroke:#1f77b4;" x="173.124914" xlink:href="#m77dea6de6e" y="190.80372"/>
     <use style="fill:#1f77b4;stroke:#1f77b4;" x="107.539576" xlink:href="#m77dea6de6e" y="79.699393"/>
     <use style="fill:#1f77b4;stroke:#1f77b4;" x="140.786261" xlink:href="#m77dea6de6e" y="135.966107"/>
     <use style="fill:#1f77b4;stroke:#1f77b4;" x="152.778669" xlink:href="#m77dea6de6e" y="186.617965"/>
     <use style="fill:#1f77b4;stroke:#1f77b4;" x="130.818487" xlink:href="#m77dea6de6e" y="182.465603"/>
     <use style="fill:#1f77b4;stroke:#1f77b4;" x="97.983902" xlink:href="#m77dea6de6e" y="126.5381"/>
     <use style="fill:#1f77b4;stroke:#1f77b4;" x="109.200983" xlink:href="#m77dea6de6e" y="178.534793"/>
     <use style="fill:#1f77b4;stroke:#1f77b4;" x="76.700218" xlink:href="#m77dea6de6e" y="122.630768"/>
     <use style="fill:#1f77b4;stroke:#1f77b4;" x="151.543774" xlink:href="#m77dea6de6e" y="88.754797"/>
     <use style="fill:#1f77b4;stroke:#1f77b4;" x="110.153893" xlink:href="#m77dea6de6e" y="176.867163"/>
     <use style="fill:#1f77b4;stroke:#1f77b4;" x="129.583591" xlink:href="#m77dea6de6e" y="84.602435"/>
     <use style="fill:#1f77b4;stroke:#1f77b4;" x="107.966088" xlink:href="#m77dea6de6e" y="80.671625"/>
     <use style="fill:#1f77b4;stroke:#1f77b4;" x="87.745787" xlink:href="#m77dea6de6e" y="172.830752"/>
     <use style="fill:#1f77b4;stroke:#1f77b4;" x="77.070812" xlink:href="#m77dea6de6e" y="122.646047"/>
     <use style="fill:#1f77b4;stroke:#1f77b4;" x="140.687693" xlink:href="#m77dea6de6e" y="135.648017"/>
     <use style="fill:#1f77b4;stroke:#1f77b4;" x="119.169449" xlink:href="#m77dea6de6e" y="131.154196"/>
     <use style="fill:#1f77b4;stroke:#1f77b4;" x="108.258056" xlink:href="#m77dea6de6e" y="81.53154"/>
     <use style="fill:#1f77b4;stroke:#1f77b4;" x="160.438506" xlink:href="#m77dea6de6e" y="44.443636"/>
     <use style="fill:#1f77b4;stroke:#1f77b4;" x="85.84995" xlink:href="#m77dea6de6e" y="77.495129"/>
     <use style="fill:#1f77b4;stroke:#1f77b4;" x="44.653382" xlink:href="#m77dea6de6e" y="163.937294"/>
    </g>
   </g>
   <g id="matplotlib.axis_1">
    <g id="xtick_1">
     <g id="line2d_1">
      <path clip-path="url(#p733cacfb80)" d="M 56.134257 252 
L 56.134257 34.56 
" style="fill:none;stroke:#b0b0b0;stroke-linecap:square;stroke-width:0.8;"/>
     </g>
     <g id="line2d_2">
      <defs>
       <path d="M 0 0 
L 0 3.5 
" id="m154440f1b7" style="stroke:#000000;stroke-width:0.8;"/>
      </defs>
      <g>
       <use style="stroke:#000000;stroke-width:0.8;" x="56.134257" xlink:href="#m154440f1b7" y="252"/>
      </g>
     </g>
     <g id="text_1">
      <!-- −150 -->
      <g transform="translate(45.814726 265.94375)scale(0.1 -0.1)">
       <defs>
        <path d="M 54.4375 31.25 
L 1.8125 31.25 
L 1.8125 35.25 
L 54.4375 35.25 
z
" id="TimesNewRomanPSMT-8722"/>
        <path d="M 11.71875 59.71875 
L 27.828125 67.578125 
L 29.4375 67.578125 
L 29.4375 11.671875 
Q 29.4375 6.109375 29.90625 4.734375 
Q 30.375 3.375 31.828125 2.640625 
Q 33.296875 1.90625 37.796875 1.8125 
L 37.796875 0 
L 12.890625 0 
L 12.890625 1.8125 
Q 17.578125 1.90625 18.9375 2.609375 
Q 20.3125 3.328125 20.84375 4.515625 
Q 21.390625 5.71875 21.390625 11.671875 
L 21.390625 47.40625 
Q 21.390625 54.640625 20.90625 56.6875 
Q 20.5625 58.25 19.65625 58.984375 
Q 18.75 59.71875 17.484375 59.71875 
Q 15.671875 59.71875 12.453125 58.203125 
z
" id="TimesNewRomanPSMT-49"/>
        <path d="M 43.40625 66.21875 
L 39.59375 57.90625 
L 19.671875 57.90625 
L 15.328125 49.03125 
Q 28.265625 47.125 35.84375 39.40625 
Q 42.328125 32.765625 42.328125 23.78125 
Q 42.328125 18.5625 40.203125 14.109375 
Q 38.09375 9.671875 34.859375 6.546875 
Q 31.640625 3.421875 27.6875 1.515625 
Q 22.078125 -1.171875 16.15625 -1.171875 
Q 10.203125 -1.171875 7.484375 0.84375 
Q 4.78125 2.875 4.78125 5.328125 
Q 4.78125 6.6875 5.90625 7.734375 
Q 7.03125 8.796875 8.734375 8.796875 
Q 10.015625 8.796875 10.96875 8.40625 
Q 11.921875 8.015625 14.203125 6.390625 
Q 17.875 3.859375 21.625 3.859375 
Q 27.34375 3.859375 31.65625 8.171875 
Q 35.984375 12.5 35.984375 18.703125 
Q 35.984375 24.703125 32.125 29.90625 
Q 28.265625 35.109375 21.484375 37.9375 
Q 16.15625 40.140625 6.984375 40.484375 
L 19.671875 66.21875 
z
" id="TimesNewRomanPSMT-53"/>
        <path d="M 3.609375 32.71875 
Q 3.609375 44.046875 7.03125 52.21875 
Q 10.453125 60.40625 16.109375 64.40625 
Q 20.515625 67.578125 25.203125 67.578125 
Q 32.8125 67.578125 38.875 59.8125 
Q 46.4375 50.203125 46.4375 33.734375 
Q 46.4375 22.21875 43.109375 14.15625 
Q 39.796875 6.109375 34.640625 2.46875 
Q 29.5 -1.171875 24.703125 -1.171875 
Q 15.234375 -1.171875 8.9375 10.015625 
Q 3.609375 19.4375 3.609375 32.71875 
z
M 13.1875 31.5 
Q 13.1875 17.828125 16.546875 9.1875 
Q 19.34375 1.90625 24.859375 1.90625 
Q 27.484375 1.90625 30.3125 4.265625 
Q 33.15625 6.640625 34.625 12.203125 
Q 36.859375 20.609375 36.859375 35.890625 
Q 36.859375 47.21875 34.515625 54.78125 
Q 32.765625 60.40625 29.984375 62.75 
Q 27.984375 64.359375 25.140625 64.359375 
Q 21.828125 64.359375 19.234375 61.375 
Q 15.71875 57.328125 14.453125 48.625 
Q 13.1875 39.9375 13.1875 31.5 
z
" id="TimesNewRomanPSMT-48"/>
       </defs>
       <use xlink:href="#TimesNewRomanPSMT-8722"/>
       <use x="56.396484" xlink:href="#TimesNewRomanPSMT-49"/>
       <use x="106.396484" xlink:href="#TimesNewRomanPSMT-53"/>
       <use x="156.396484" xlink:href="#TimesNewRomanPSMT-48"/>
      </g>
     </g>
    </g>
    <g id="xtick_2">
     <g id="line2d_3">
      <path clip-path="url(#p733cacfb80)" d="M 91.534286 252 
L 91.534286 34.56 
" style="fill:none;stroke:#b0b0b0;stroke-linecap:square;stroke-width:0.8;"/>
     </g>
     <g id="line2d_4">
      <g>
       <use style="stroke:#000000;stroke-width:0.8;" x="91.534286" xlink:href="#m154440f1b7" y="252"/>
      </g>
     </g>
     <g id="text_2">
      <!-- −100 -->
      <g transform="translate(81.214755 265.94375)scale(0.1 -0.1)">
       <use xlink:href="#TimesNewRomanPSMT-8722"/>
       <use x="56.396484" xlink:href="#TimesNewRomanPSMT-49"/>
       <use x="106.396484" xlink:href="#TimesNewRomanPSMT-48"/>
       <use x="156.396484" xlink:href="#TimesNewRomanPSMT-48"/>
      </g>
     </g>
    </g>
    <g id="xtick_3">
     <g id="line2d_5">
      <path clip-path="url(#p733cacfb80)" d="M 126.934315 252 
L 126.934315 34.56 
" style="fill:none;stroke:#b0b0b0;stroke-linecap:square;stroke-width:0.8;"/>
     </g>
     <g id="line2d_6">
      <g>
       <use style="stroke:#000000;stroke-width:0.8;" x="126.934315" xlink:href="#m154440f1b7" y="252"/>
      </g>
     </g>
     <g id="text_3">
      <!-- −50 -->
      <g transform="translate(119.114784 265.94375)scale(0.1 -0.1)">
       <use xlink:href="#TimesNewRomanPSMT-8722"/>
       <use x="56.396484" xlink:href="#TimesNewRomanPSMT-53"/>
       <use x="106.396484" xlink:href="#TimesNewRomanPSMT-48"/>
      </g>
     </g>
    </g>
    <g id="xtick_4">
     <g id="line2d_7">
      <path clip-path="url(#p733cacfb80)" d="M 162.334344 252 
L 162.334344 34.56 
" style="fill:none;stroke:#b0b0b0;stroke-linecap:square;stroke-width:0.8;"/>
     </g>
     <g id="line2d_8">
      <g>
       <use style="stroke:#000000;stroke-width:0.8;" x="162.334344" xlink:href="#m154440f1b7" y="252"/>
      </g>
     </g>
     <g id="text_4">
      <!-- 0 -->
      <g transform="translate(159.834344 265.94375)scale(0.1 -0.1)">
       <use xlink:href="#TimesNewRomanPSMT-48"/>
      </g>
     </g>
    </g>
    <g id="xtick_5">
     <g id="line2d_9">
      <path clip-path="url(#p733cacfb80)" d="M 197.734373 252 
L 197.734373 34.56 
" style="fill:none;stroke:#b0b0b0;stroke-linecap:square;stroke-width:0.8;"/>
     </g>
     <g id="line2d_10">
      <g>
       <use style="stroke:#000000;stroke-width:0.8;" x="197.734373" xlink:href="#m154440f1b7" y="252"/>
      </g>
     </g>
     <g id="text_5">
      <!-- 50 -->
      <g transform="translate(192.734373 265.94375)scale(0.1 -0.1)">
       <use xlink:href="#TimesNewRomanPSMT-53"/>
       <use x="50" xlink:href="#TimesNewRomanPSMT-48"/>
      </g>
     </g>
    </g>
    <g id="xtick_6">
     <g id="line2d_11">
      <path clip-path="url(#p733cacfb80)" d="M 233.134401 252 
L 233.134401 34.56 
" style="fill:none;stroke:#b0b0b0;stroke-linecap:square;stroke-width:0.8;"/>
     </g>
     <g id="line2d_12">
      <g>
       <use style="stroke:#000000;stroke-width:0.8;" x="233.134401" xlink:href="#m154440f1b7" y="252"/>
      </g>
     </g>
     <g id="text_6">
      <!-- 100 -->
      <g transform="translate(225.634401 265.94375)scale(0.1 -0.1)">
       <use xlink:href="#TimesNewRomanPSMT-49"/>
       <use x="50" xlink:href="#TimesNewRomanPSMT-48"/>
       <use x="100" xlink:href="#TimesNewRomanPSMT-48"/>
      </g>
     </g>
    </g>
    <g id="text_7">
     <!-- x [px] -->
     <g transform="translate(135.520312 279.026563)scale(0.1 -0.1)">
      <defs>
       <path d="M 1.3125 44.734375 
L 22.359375 44.734375 
L 22.359375 42.921875 
Q 20.359375 42.921875 19.546875 42.234375 
Q 18.75 41.546875 18.75 40.4375 
Q 18.75 39.265625 20.453125 36.8125 
Q 21 36.03125 22.078125 34.375 
L 25.25 29.296875 
L 28.90625 34.375 
Q 32.421875 39.203125 32.421875 40.484375 
Q 32.421875 41.5 31.59375 42.203125 
Q 30.765625 42.921875 28.90625 42.921875 
L 28.90625 44.734375 
L 44.046875 44.734375 
L 44.046875 42.921875 
Q 41.65625 42.78125 39.890625 41.609375 
Q 37.5 39.9375 33.34375 34.375 
L 27.25 26.21875 
L 38.375 10.203125 
Q 42.484375 4.296875 44.234375 3.09375 
Q 46 1.90625 48.78125 1.765625 
L 48.78125 0 
L 27.6875 0 
L 27.6875 1.765625 
Q 29.890625 1.765625 31.109375 2.734375 
Q 32.03125 3.421875 32.03125 4.546875 
Q 32.03125 5.671875 28.90625 10.203125 
L 22.359375 19.78125 
L 15.1875 10.203125 
Q 11.859375 5.765625 11.859375 4.9375 
Q 11.859375 3.765625 12.953125 2.8125 
Q 14.0625 1.859375 16.265625 1.765625 
L 16.265625 0 
L 1.65625 0 
L 1.65625 1.765625 
Q 3.421875 2 4.734375 2.984375 
Q 6.59375 4.390625 10.984375 10.203125 
L 20.359375 22.65625 
L 11.859375 34.96875 
Q 8.25 40.234375 6.265625 41.578125 
Q 4.296875 42.921875 1.3125 42.921875 
z
" id="TimesNewRomanPSMT-120"/>
       <path id="TimesNewRomanPSMT-32"/>
       <path d="M 29.6875 -19.828125 
L 8.203125 -19.828125 
L 8.203125 67.71875 
L 29.6875 67.71875 
L 29.6875 63.875 
L 15.53125 63.875 
L 15.53125 -16.015625 
L 29.6875 -16.015625 
z
" id="TimesNewRomanPSMT-91"/>
       <path d="M -0.09375 40.28125 
L 13.671875 45.84375 
L 15.53125 45.84375 
L 15.53125 35.40625 
Q 19 41.3125 22.484375 43.671875 
Q 25.984375 46.046875 29.828125 46.046875 
Q 36.578125 46.046875 41.0625 40.765625 
Q 46.578125 34.328125 46.578125 23.96875 
Q 46.578125 12.40625 39.9375 4.828125 
Q 34.46875 -1.375 26.171875 -1.375 
Q 22.5625 -1.375 19.921875 -0.34375 
Q 17.96875 0.390625 15.53125 2.59375 
L 15.53125 -11.03125 
Q 15.53125 -15.625 16.09375 -16.859375 
Q 16.65625 -18.109375 18.046875 -18.84375 
Q 19.4375 -19.578125 23.09375 -19.578125 
L 23.09375 -21.390625 
L -0.34375 -21.390625 
L -0.34375 -19.578125 
L 0.875 -19.578125 
Q 3.5625 -19.625 5.46875 -18.5625 
Q 6.390625 -18.015625 6.90625 -16.8125 
Q 7.421875 -15.625 7.421875 -10.75 
L 7.421875 31.546875 
Q 7.421875 35.890625 7.03125 37.0625 
Q 6.640625 38.234375 5.78125 38.8125 
Q 4.9375 39.40625 3.46875 39.40625 
Q 2.296875 39.40625 0.484375 38.71875 
z
M 15.53125 32.515625 
L 15.53125 15.828125 
Q 15.53125 10.40625 15.96875 8.6875 
Q 16.65625 5.859375 19.3125 3.703125 
Q 21.96875 1.5625 26.03125 1.5625 
Q 30.90625 1.5625 33.9375 5.375 
Q 37.890625 10.359375 37.890625 19.390625 
Q 37.890625 29.640625 33.40625 35.15625 
Q 30.28125 38.96875 25.984375 38.96875 
Q 23.640625 38.96875 21.34375 37.796875 
Q 19.578125 36.921875 15.53125 32.515625 
z
" id="TimesNewRomanPSMT-112"/>
       <path d="M 3.65625 67.71875 
L 25.140625 67.71875 
L 25.140625 -19.875 
L 3.65625 -19.875 
L 3.65625 -16.015625 
L 17.828125 -16.015625 
L 17.828125 63.875 
L 3.65625 63.875 
z
" id="TimesNewRomanPSMT-93"/>
      </defs>
      <use xlink:href="#TimesNewRomanPSMT-120"/>
      <use x="50" xlink:href="#TimesNewRomanPSMT-32"/>
      <use x="75" xlink:href="#TimesNewRomanPSMT-91"/>
      <use x="108.300781" xlink:href="#TimesNewRomanPSMT-112"/>
      <use x="158.300781" xlink:href="#TimesNewRomanPSMT-120"/>
      <use x="208.300781" xlink:href="#TimesNewRomanPSMT-93"/>
     </g>
    </g>
   </g>
   <g id="matplotlib.axis_2">
    <g id="ytick_1">
     <g id="line2d_13">
      <path clip-path="url(#p733cacfb80)" d="M 36 68.979201 
L 259.2 68.979201 
" style="fill:none;stroke:#b0b0b0;stroke-linecap:square;stroke-width:0.8;"/>
     </g>
     <g id="line2d_14">
      <defs>
       <path d="M 0 0 
L -3.5 0 
" id="m15c1a60438" style="stroke:#000000;stroke-width:0.8;"/>
      </defs>
      <g>
       <use style="stroke:#000000;stroke-width:0.8;" x="36" xlink:href="#m15c1a60438" y="68.979201"/>
      </g>
     </g>
     <g id="text_8">
      <!-- −100 -->
      <g transform="translate(8.360937 72.451076)scale(0.1 -0.1)">
       <use xlink:href="#TimesNewRomanPSMT-8722"/>
       <use x="56.396484" xlink:href="#TimesNewRomanPSMT-49"/>
       <use x="106.396484" xlink:href="#TimesNewRomanPSMT-48"/>
       <use x="156.396484" xlink:href="#TimesNewRomanPSMT-48"/>
      </g>
     </g>
    </g>
    <g id="ytick_2">
     <g id="line2d_15">
      <path clip-path="url(#p733cacfb80)" d="M 36 104.37923 
L 259.2 104.37923 
" style="fill:none;stroke:#b0b0b0;stroke-linecap:square;stroke-width:0.8;"/>
     </g>
     <g id="line2d_16">
      <g>
       <use style="stroke:#000000;stroke-width:0.8;" x="36" xlink:href="#m15c1a60438" y="104.37923"/>
      </g>
     </g>
     <g id="text_9">
      <!-- −50 -->
      <g transform="translate(13.360937 107.851105)scale(0.1 -0.1)">
       <use xlink:href="#TimesNewRomanPSMT-8722"/>
       <use x="56.396484" xlink:href="#TimesNewRomanPSMT-53"/>
       <use x="106.396484" xlink:href="#TimesNewRomanPSMT-48"/>
      </g>
     </g>
    </g>
    <g id="ytick_3">
     <g id="line2d_17">
      <path clip-path="url(#p733cacfb80)" d="M 36 139.779259 
L 259.2 139.779259 
" style="fill:none;stroke:#b0b0b0;stroke-linecap:square;stroke-width:0.8;"/>
     </g>
     <g id="line2d_18">
      <g>
       <use style="stroke:#000000;stroke-width:0.8;" x="36" xlink:href="#m15c1a60438" y="139.779259"/>
      </g>
     </g>
     <g id="text_10">
      <!-- 0 -->
      <g transform="translate(24 143.251134)scale(0.1 -0.1)">
       <use xlink:href="#TimesNewRomanPSMT-48"/>
      </g>
     </g>
    </g>
    <g id="ytick_4">
     <g id="line2d_19">
      <path clip-path="url(#p733cacfb80)" d="M 36 175.179288 
L 259.2 175.179288 
" style="fill:none;stroke:#b0b0b0;stroke-linecap:square;stroke-width:0.8;"/>
     </g>
     <g id="line2d_20">
      <g>
       <use style="stroke:#000000;stroke-width:0.8;" x="36" xlink:href="#m15c1a60438" y="175.179288"/>
      </g>
     </g>
     <g id="text_11">
      <!-- 50 -->
      <g transform="translate(19 178.651163)scale(0.1 -0.1)">
       <use xlink:href="#TimesNewRomanPSMT-53"/>
       <use x="50" xlink:href="#TimesNewRomanPSMT-48"/>
      </g>
     </g>
    </g>
    <g id="ytick_5">
     <g id="line2d_21">
      <path clip-path="url(#p733cacfb80)" d="M 36 210.579316 
L 259.2 210.579316 
" style="fill:none;stroke:#b0b0b0;stroke-linecap:square;stroke-width:0.8;"/>
     </g>
     <g id="line2d_22">
      <g>
       <use style="stroke:#000000;stroke-width:0.8;" x="36" xlink:href="#m15c1a60438" y="210.579316"/>
      </g>
     </g>
     <g id="text_12">
      <!-- 100 -->
      <g transform="translate(14 214.051191)scale(0.1 -0.1)">
       <use xlink:href="#TimesNewRomanPSMT-49"/>
       <use x="50" xlink:href="#TimesNewRomanPSMT-48"/>
       <use x="100" xlink:href="#TimesNewRomanPSMT-48"/>
      </g>
     </g>
    </g>
    <g id="ytick_6">
     <g id="line2d_23">
      <path clip-path="url(#p733cacfb80)" d="M 36 245.979345 
L 259.2 245.979345 
" style="fill:none;stroke:#b0b0b0;stroke-linecap:square;stroke-width:0.8;"/>
     </g>
     <g id="line2d_24">
      <g>
       <use style="stroke:#000000;stroke-width:0.8;" x="36" xlink:href="#m15c1a60438" y="245.979345"/>
      </g>
     </g>
     <g id="text_13">
      <!-- 150 -->
      <g transform="translate(14 249.45122)scale(0.1 -0.1)">
       <use xlink:href="#TimesNewRomanPSMT-49"/>
       <use x="50" xlink:href="#TimesNewRomanPSMT-53"/>
       <use x="100" xlink:href="#TimesNewRomanPSMT-48"/>
      </g>
     </g>
    </g>
    <g id="text_14">
     <!-- y [px] -->
     <g transform="translate(2.203125 155.359688)rotate(-90)scale(0.1 -0.1)">
      <defs>
       <path d="M 0.59375 44.734375 
L 21.4375 44.734375 
L 21.4375 42.921875 
L 20.40625 42.921875 
Q 18.21875 42.921875 17.109375 41.96875 
Q 16.015625 41.015625 16.015625 39.59375 
Q 16.015625 37.703125 17.625 34.328125 
L 28.515625 11.765625 
L 38.53125 36.46875 
Q 39.359375 38.484375 39.359375 40.4375 
Q 39.359375 41.3125 39.015625 41.75 
Q 38.625 42.28125 37.796875 42.59375 
Q 36.96875 42.921875 34.859375 42.921875 
L 34.859375 44.734375 
L 49.421875 44.734375 
L 49.421875 42.921875 
Q 47.609375 42.71875 46.625 42.125 
Q 45.65625 41.546875 44.484375 39.9375 
Q 44.046875 39.265625 42.828125 36.1875 
L 24.609375 -8.453125 
Q 21.96875 -14.9375 17.6875 -18.25 
Q 13.421875 -21.578125 9.46875 -21.578125 
Q 6.59375 -21.578125 4.734375 -19.921875 
Q 2.875 -18.265625 2.875 -16.109375 
Q 2.875 -14.0625 4.21875 -12.8125 
Q 5.5625 -11.578125 7.90625 -11.578125 
Q 9.515625 -11.578125 12.3125 -12.640625 
Q 14.265625 -13.375 14.75 -13.375 
Q 16.21875 -13.375 17.9375 -11.859375 
Q 19.671875 -10.359375 21.4375 -6 
L 24.609375 1.765625 
L 8.546875 35.5 
Q 7.8125 37.015625 6.203125 39.265625 
Q 4.984375 40.96875 4.203125 41.546875 
Q 3.078125 42.328125 0.59375 42.921875 
z
" id="TimesNewRomanPSMT-121"/>
      </defs>
      <use xlink:href="#TimesNewRomanPSMT-121"/>
      <use x="50" xlink:href="#TimesNewRomanPSMT-32"/>
      <use x="75" xlink:href="#TimesNewRomanPSMT-91"/>
      <use x="108.300781" xlink:href="#TimesNewRomanPSMT-112"/>
      <use x="158.300781" xlink:href="#TimesNewRomanPSMT-120"/>
      <use x="208.300781" xlink:href="#TimesNewRomanPSMT-93"/>
     </g>
    </g>
   </g>
   <g id="patch_3">
    <path d="M 36 252 
L 36 34.56 
" style="fill:none;stroke:#000000;stroke-linecap:square;stroke-linejoin:miter;stroke-width:0.8;"/>
   </g>
   <g id="patch_4">
    <path d="M 259.2 252 
L 259.2 34.56 
" style="fill:none;stroke:#000000;stroke-linecap:square;stroke-linejoin:miter;stroke-width:0.8;"/>
   </g>
   <g id="patch_5">
    <path d="M 36 252 
L 259.2 252 
" style="fill:none;stroke:#000000;stroke-linecap:square;stroke-linejoin:miter;stroke-width:0.8;"/>
   </g>
   <g id="patch_6">
    <path d="M 36 34.56 
L 259.2 34.56 
" style="fill:none;stroke:#000000;stroke-linecap:square;stroke-linejoin:miter;stroke-width:0.8;"/>
   </g>
  </g>
 </g>
 <defs>
  <clipPath id="p733cacfb80">
   <rect height="217.44" width="223.2" x="36" y="34.56"/>
  </clipPath>
 </defs>
</svg>
