<?xml version="1.0" encoding="utf-8" standalone="no"?>
<!DOCTYPE svg PUBLIC "-//W3C//DTD SVG 1.1//EN"
  "http://www.w3.org/Graphics/SVG/1.1/DTD/svg11.dtd">
<!-- Created with matplotlib (https://matplotlib.org/) -->
<svg height="576pt" version="1.1" viewBox="0 0 576 576" width="576pt" xmlns="http://www.w3.org/2000/svg" xmlns:xlink="http://www.w3.org/1999/xlink">
 <metadata>
  <rdf:RDF xmlns:cc="http://creativecommons.org/ns#" xmlns:dc="http://purl.org/dc/elements/1.1/" xmlns:rdf="http://www.w3.org/1999/02/22-rdf-syntax-ns#">
   <cc:Work>
    <dc:type rdf:resource="http://purl.org/dc/dcmitype/StillImage"/>
    <dc:date>2020-09-05T18:32:20.584260</dc:date>
    <dc:format>image/svg+xml</dc:format>
    <dc:creator>
     <cc:Agent>
      <dc:title>Matplotlib v3.3.1, https://matplotlib.org/</dc:title>
     </cc:Agent>
    </dc:creator>
   </cc:Work>
  </rdf:RDF>
 </metadata>
 <defs>
  <style type="text/css">*{stroke-linecap:butt;stroke-linejoin:round;}</style>
 </defs>
 <g id="figure_1">
  <g id="patch_1">
   <path d="M 0 576 
L 576 576 
L 576 0 
L 0 0 
z
" style="fill:none;"/>
  </g>
  <g id="axes_1">
   <g id="patch_2">
    <path d="M 72 504 
L 518.4 504 
L 518.4 69.12 
L 72 69.12 
z
" style="fill:#ffffff;"/>
   </g>
   <g id="PathCollection_1">
    <defs>
     <path d="M 0 3 
C 0.795609 3 1.55874 2.683901 2.12132 2.12132 
C 2.683901 1.55874 3 0.795609 3 0 
C 3 -0.795609 2.683901 -1.55874 2.12132 -2.12132 
C 1.55874 -2.683901 0.795609 -3 0 -3 
C -0.795609 -3 -1.55874 -2.683901 -2.12132 -2.12132 
C -2.683901 -1.55874 -3 -0.795609 -3 0 
C -3 0.795609 -2.683901 1.55874 -2.12132 2.12132 
C -1.55874 2.683901 -0.795609 3 0 3 
z
" id="m4b9c180eda" style="stroke:#1f77b4;"/>
    </defs>
    <g clip-path="url(#p79c9db4cee)">
     <use style="fill:#1f77b4;stroke:#1f77b4;" x="295.783693" xlink:href="#m4b9c180eda" y="354.174053"/>
     <use style="fill:#1f77b4;stroke:#1f77b4;" x="290.57267" xlink:href="#m4b9c180eda" y="353.00499"/>
     <use style="fill:#1f77b4;stroke:#1f77b4;" x="278.597402" xlink:href="#m4b9c180eda" y="359.42275"/>
     <use style="fill:#1f77b4;stroke:#1f77b4;" x="300.322913" xlink:href="#m4b9c180eda" y="220.131211"/>
     <use style="fill:#1f77b4;stroke:#1f77b4;" x="304.432649" xlink:href="#m4b9c180eda" y="353.42795"/>
     <use style="fill:#1f77b4;stroke:#1f77b4;" x="288.344256" xlink:href="#m4b9c180eda" y="350.932357"/>
     <use style="fill:#1f77b4;stroke:#1f77b4;" x="301.405641" xlink:href="#m4b9c180eda" y="358.568172"/>
     <use style="fill:#1f77b4;stroke:#1f77b4;" x="299.025849" xlink:href="#m4b9c180eda" y="357.366936"/>
     <use style="fill:#1f77b4;stroke:#1f77b4;" x="291.585247" xlink:href="#m4b9c180eda" y="343.890753"/>
     <use style="fill:#1f77b4;stroke:#1f77b4;" x="278.012384" xlink:href="#m4b9c180eda" y="352.827651"/>
    </g>
   </g>
   <g id="PathCollection_2">
    <defs>
     <path d="M 0 3 
C 0.795609 3 1.55874 2.683901 2.12132 2.12132 
C 2.683901 1.55874 3 0.795609 3 0 
C 3 -0.795609 2.683901 -1.55874 2.12132 -2.12132 
C 1.55874 -2.683901 0.795609 -3 0 -3 
C -0.795609 -3 -1.55874 -2.683901 -2.12132 -2.12132 
C -2.683901 -1.55874 -3 -0.795609 -3 0 
C -3 0.795609 -2.683901 1.55874 -2.12132 2.12132 
C -1.55874 2.683901 -0.795609 3 0 3 
z
" id="m10b608b7bb" style="stroke:#ff7f0e;"/>
    </defs>
    <g clip-path="url(#p79c9db4cee)">
     <use style="fill:#ff7f0e;stroke:#ff7f0e;" x="205.007842" xlink:href="#m10b608b7bb" y="414.362687"/>
     <use style="fill:#ff7f0e;stroke:#ff7f0e;" x="253.819408" xlink:href="#m10b608b7bb" y="94.932514"/>
     <use style="fill:#ff7f0e;stroke:#ff7f0e;" x="171.459529" xlink:href="#m10b608b7bb" y="447.838424"/>
     <use style="fill:#ff7f0e;stroke:#ff7f0e;" x="413.445974" xlink:href="#m10b608b7bb" y="122.107567"/>
     <use style="fill:#ff7f0e;stroke:#ff7f0e;" x="413.772487" xlink:href="#m10b608b7bb" y="122.024535"/>
     <use style="fill:#ff7f0e;stroke:#ff7f0e;" x="332.777386" xlink:href="#m10b608b7bb" y="473.096596"/>
     <use style="fill:#ff7f0e;stroke:#ff7f0e;" x="186.922066" xlink:href="#m10b608b7bb" y="431.42093"/>
     <use style="fill:#ff7f0e;stroke:#ff7f0e;" x="185.989109" xlink:href="#m10b608b7bb" y="430.943717"/>
     <use style="fill:#ff7f0e;stroke:#ff7f0e;" x="177.449608" xlink:href="#m10b608b7bb" y="451.028634"/>
     <use style="fill:#ff7f0e;stroke:#ff7f0e;" x="418.548196" xlink:href="#m10b608b7bb" y="121.535921"/>
     <use style="fill:#ff7f0e;stroke:#ff7f0e;" x="169.75968" xlink:href="#m10b608b7bb" y="442.580063"/>
     <use style="fill:#ff7f0e;stroke:#ff7f0e;" x="339.565723" xlink:href="#m10b608b7bb" y="483.702358"/>
     <use style="fill:#ff7f0e;stroke:#ff7f0e;" x="340.637258" xlink:href="#m10b608b7bb" y="481.801137"/>
     <use style="fill:#ff7f0e;stroke:#ff7f0e;" x="258.673103" xlink:href="#m10b608b7bb" y="91.41657"/>
     <use style="fill:#ff7f0e;stroke:#ff7f0e;" x="249.076295" xlink:href="#m10b608b7bb" y="93.490863"/>
     <use style="fill:#ff7f0e;stroke:#ff7f0e;" x="186.986997" xlink:href="#m10b608b7bb" y="440.89432"/>
     <use style="fill:#ff7f0e;stroke:#ff7f0e;" x="422.042033" xlink:href="#m10b608b7bb" y="121.947649"/>
     <use style="fill:#ff7f0e;stroke:#ff7f0e;" x="338.313247" xlink:href="#m10b608b7bb" y="482.680032"/>
     <use style="fill:#ff7f0e;stroke:#ff7f0e;" x="341.819288" xlink:href="#m10b608b7bb" y="479.645338"/>
     <use style="fill:#ff7f0e;stroke:#ff7f0e;" x="181.078273" xlink:href="#m10b608b7bb" y="453.308481"/>
     <use style="fill:#ff7f0e;stroke:#ff7f0e;" x="190.645186" xlink:href="#m10b608b7bb" y="433.746383"/>
     <use style="fill:#ff7f0e;stroke:#ff7f0e;" x="343.02951" xlink:href="#m10b608b7bb" y="479.59983"/>
     <use style="fill:#ff7f0e;stroke:#ff7f0e;" x="252.582336" xlink:href="#m10b608b7bb" y="90.456169"/>
     <use style="fill:#ff7f0e;stroke:#ff7f0e;" x="254.492035" xlink:href="#m10b608b7bb" y="94.245388"/>
     <use style="fill:#ff7f0e;stroke:#ff7f0e;" x="423.022526" xlink:href="#m10b608b7bb" y="122.77085"/>
     <use style="fill:#ff7f0e;stroke:#ff7f0e;" x="199.635892" xlink:href="#m10b608b7bb" y="428.022501"/>
     <use style="fill:#ff7f0e;stroke:#ff7f0e;" x="247.866073" xlink:href="#m10b608b7bb" y="93.536371"/>
     <use style="fill:#ff7f0e;stroke:#ff7f0e;" x="175.72598" xlink:href="#m10b608b7bb" y="448.264412"/>
     <use style="fill:#ff7f0e;stroke:#ff7f0e;" x="171.783458" xlink:href="#m10b608b7bb" y="446.642563"/>
     <use style="fill:#ff7f0e;stroke:#ff7f0e;" x="186.458709" xlink:href="#m10b608b7bb" y="452.515712"/>
     <use style="fill:#ff7f0e;stroke:#ff7f0e;" x="170.711411" xlink:href="#m10b608b7bb" y="450.980442"/>
     <use style="fill:#ff7f0e;stroke:#ff7f0e;" x="190.992953" xlink:href="#m10b608b7bb" y="431.591188"/>
     <use style="fill:#ff7f0e;stroke:#ff7f0e;" x="180.75123" xlink:href="#m10b608b7bb" y="448.380547"/>
     <use style="fill:#ff7f0e;stroke:#ff7f0e;" x="343.093427" xlink:href="#m10b608b7bb" y="478.679524"/>
     <use style="fill:#ff7f0e;stroke:#ff7f0e;" x="198.910339" xlink:href="#m10b608b7bb" y="433.585039"/>
     <use style="fill:#ff7f0e;stroke:#ff7f0e;" x="195.43899" xlink:href="#m10b608b7bb" y="409.098131"/>
     <use style="fill:#ff7f0e;stroke:#ff7f0e;" x="180.53193" xlink:href="#m10b608b7bb" y="449.007929"/>
     <use style="fill:#ff7f0e;stroke:#ff7f0e;" x="201.919595" xlink:href="#m10b608b7bb" y="428.151055"/>
     <use style="fill:#ff7f0e;stroke:#ff7f0e;" x="251.419761" xlink:href="#m10b608b7bb" y="89.978418"/>
     <use style="fill:#ff7f0e;stroke:#ff7f0e;" x="416.658458" xlink:href="#m10b608b7bb" y="121.736643"/>
     <use style="fill:#ff7f0e;stroke:#ff7f0e;" x="344.084768" xlink:href="#m10b608b7bb" y="464.723191"/>
     <use style="fill:#ff7f0e;stroke:#ff7f0e;" x="171.47837" xlink:href="#m10b608b7bb" y="447.251932"/>
     <use style="fill:#ff7f0e;stroke:#ff7f0e;" x="204.162185" xlink:href="#m10b608b7bb" y="431.483363"/>
     <use style="fill:#ff7f0e;stroke:#ff7f0e;" x="339.475822" xlink:href="#m10b608b7bb" y="483.157783"/>
     <use style="fill:#ff7f0e;stroke:#ff7f0e;" x="255.255201" xlink:href="#m10b608b7bb" y="94.900783"/>
     <use style="fill:#ff7f0e;stroke:#ff7f0e;" x="417.859988" xlink:href="#m10b608b7bb" y="120.589874"/>
     <use style="fill:#ff7f0e;stroke:#ff7f0e;" x="176.107531" xlink:href="#m10b608b7bb" y="436.830137"/>
     <use style="fill:#ff7f0e;stroke:#ff7f0e;" x="171.344773" xlink:href="#m10b608b7bb" y="452.118323"/>
     <use style="fill:#ff7f0e;stroke:#ff7f0e;" x="420.744502" xlink:href="#m10b608b7bb" y="123.038893"/>
     <use style="fill:#ff7f0e;stroke:#ff7f0e;" x="169.291344" xlink:href="#m10b608b7bb" y="449.972442"/>
     <use style="fill:#ff7f0e;stroke:#ff7f0e;" x="252.791001" xlink:href="#m10b608b7bb" y="91.335586"/>
     <use style="fill:#ff7f0e;stroke:#ff7f0e;" x="187.924257" xlink:href="#m10b608b7bb" y="451.944936"/>
     <use style="fill:#ff7f0e;stroke:#ff7f0e;" x="173.445882" xlink:href="#m10b608b7bb" y="447.671628"/>
     <use style="fill:#ff7f0e;stroke:#ff7f0e;" x="198.873216" xlink:href="#m10b608b7bb" y="427.081342"/>
     <use style="fill:#ff7f0e;stroke:#ff7f0e;" x="170.151081" xlink:href="#m10b608b7bb" y="450.097308"/>
     <use style="fill:#ff7f0e;stroke:#ff7f0e;" x="179.145686" xlink:href="#m10b608b7bb" y="452.028666"/>
     <use style="fill:#ff7f0e;stroke:#ff7f0e;" x="338.104582" xlink:href="#m10b608b7bb" y="481.800615"/>
     <use style="fill:#ff7f0e;stroke:#ff7f0e;" x="210.542993" xlink:href="#m10b608b7bb" y="431.793452"/>
     <use style="fill:#ff7f0e;stroke:#ff7f0e;" x="172.735001" xlink:href="#m10b608b7bb" y="449.634499"/>
     <use style="fill:#ff7f0e;stroke:#ff7f0e;" x="417.449701" xlink:href="#m10b608b7bb" y="125.464573"/>
     <use style="fill:#ff7f0e;stroke:#ff7f0e;" x="178.275268" xlink:href="#m10b608b7bb" y="447.885151"/>
     <use style="fill:#ff7f0e;stroke:#ff7f0e;" x="173.04848" xlink:href="#m10b608b7bb" y="449.728572"/>
     <use style="fill:#ff7f0e;stroke:#ff7f0e;" x="210.04997" xlink:href="#m10b608b7bb" y="431.702239"/>
     <use style="fill:#ff7f0e;stroke:#ff7f0e;" x="256.508165" xlink:href="#m10b608b7bb" y="90.816645"/>
     <use style="fill:#ff7f0e;stroke:#ff7f0e;" x="341.169696" xlink:href="#m10b608b7bb" y="483.079455"/>
     <use style="fill:#ff7f0e;stroke:#ff7f0e;" x="211.163848" xlink:href="#m10b608b7bb" y="433.644659"/>
     <use style="fill:#ff7f0e;stroke:#ff7f0e;" x="174.656228" xlink:href="#m10b608b7bb" y="447.591436"/>
     <use style="fill:#ff7f0e;stroke:#ff7f0e;" x="422.439393" xlink:href="#m10b608b7bb" y="122.368532"/>
     <use style="fill:#ff7f0e;stroke:#ff7f0e;" x="334.387418" xlink:href="#m10b608b7bb" y="482.319556"/>
     <use style="fill:#ff7f0e;stroke:#ff7f0e;" x="172.657012" xlink:href="#m10b608b7bb" y="451.174918"/>
     <use style="fill:#ff7f0e;stroke:#ff7f0e;" x="179.046506" xlink:href="#m10b608b7bb" y="449.165262"/>
     <use style="fill:#ff7f0e;stroke:#ff7f0e;" x="253.888772" xlink:href="#m10b608b7bb" y="90.632419"/>
     <use style="fill:#ff7f0e;stroke:#ff7f0e;" x="168.45619" xlink:href="#m10b608b7bb" y="450.76767"/>
     <use style="fill:#ff7f0e;stroke:#ff7f0e;" x="173.286684" xlink:href="#m10b608b7bb" y="448.96276"/>
     <use style="fill:#ff7f0e;stroke:#ff7f0e;" x="337.006811" xlink:href="#m10b608b7bb" y="482.503782"/>
     <use style="fill:#ff7f0e;stroke:#ff7f0e;" x="176.922848" xlink:href="#m10b608b7bb" y="449.628191"/>
     <use style="fill:#ff7f0e;stroke:#ff7f0e;" x="254.433504" xlink:href="#m10b608b7bb" y="91.555649"/>
     <use style="fill:#ff7f0e;stroke:#ff7f0e;" x="173.904149" xlink:href="#m10b608b7bb" y="445.080125"/>
     <use style="fill:#ff7f0e;stroke:#ff7f0e;" x="417.608899" xlink:href="#m10b608b7bb" y="124.173441"/>
     <use style="fill:#ff7f0e;stroke:#ff7f0e;" x="421.07667" xlink:href="#m10b608b7bb" y="121.494116"/>
     <use style="fill:#ff7f0e;stroke:#ff7f0e;" x="201.818229" xlink:href="#m10b608b7bb" y="426.475283"/>
     <use style="fill:#ff7f0e;stroke:#ff7f0e;" x="336.462079" xlink:href="#m10b608b7bb" y="481.580552"/>
     <use style="fill:#ff7f0e;stroke:#ff7f0e;" x="414.812739" xlink:href="#m10b608b7bb" y="126.538499"/>
     <use style="fill:#ff7f0e;stroke:#ff7f0e;" x="418.616475" xlink:href="#m10b608b7bb" y="121.328391"/>
     <use style="fill:#ff7f0e;stroke:#ff7f0e;" x="417.374257" xlink:href="#m10b608b7bb" y="124.069545"/>
     <use style="fill:#ff7f0e;stroke:#ff7f0e;" x="179.438313" xlink:href="#m10b608b7bb" y="452.284713"/>
    </g>
   </g>
   <g id="PathCollection_3">
    <defs>
     <path d="M 0 3 
C 0.795609 3 1.55874 2.683901 2.12132 2.12132 
C 2.683901 1.55874 3 0.795609 3 0 
C 3 -0.795609 2.683901 -1.55874 2.12132 -2.12132 
C 1.55874 -2.683901 0.795609 -3 0 -3 
C -0.795609 -3 -1.55874 -2.683901 -2.12132 -2.12132 
C -2.683901 -1.55874 -3 -0.795609 -3 0 
C -3 0.795609 -2.683901 1.55874 -2.12132 2.12132 
C -1.55874 2.683901 -0.795609 3 0 3 
z
" id="m038b49004c" style="stroke:#2ca02c;"/>
    </defs>
    <g clip-path="url(#p79c9db4cee)">
     <use style="fill:#2ca02c;stroke:#2ca02c;" x="291.177591" xlink:href="#m038b49004c" y="347.986001"/>
     <use style="fill:#2ca02c;stroke:#2ca02c;" x="174.85705" xlink:href="#m038b49004c" y="446.576716"/>
    </g>
   </g>
   <g id="patch_3">
    <path clip-path="url(#p79c9db4cee)" d="M 342.15902 484.229115 
L 342.13597 484.216343 
L 342.134952 484.221804 
L 167.380694 451.657065 
L 167.379676 451.662526 
L 342.133935 484.227266 
L 342.132917 484.232727 
z
" style="fill:#1f77b4;stroke:#000000;stroke-linejoin:miter;"/>
   </g>
   <g id="patch_4">
    <path clip-path="url(#p79c9db4cee)" d="M 248.766612 88.887273 
L 248.753008 88.909842 
L 248.758429 88.911058 
L 167.377474 451.659188 
L 167.382895 451.660404 
L 248.76385 88.912274 
L 248.769271 88.91349 
z
" style="fill:#1f77b4;stroke:#000000;stroke-linejoin:miter;"/>
   </g>
   <g id="matplotlib.axis_1">
    <g id="xtick_1">
     <g id="line2d_1">
      <defs>
       <path d="M 0 0 
L 0 3.5 
" id="m675d557a6d" style="stroke:#000000;stroke-width:0.8;"/>
      </defs>
      <g>
       <use style="stroke:#000000;stroke-width:0.8;" x="111.82532" xlink:href="#m675d557a6d" y="504"/>
      </g>
     </g>
     <g id="text_1">
      <!-- −10 -->
      <g transform="translate(104.005789 517.94375)scale(0.1 -0.1)">
       <defs>
        <path d="M 54.4375 31.25 
L 1.8125 31.25 
L 1.8125 35.25 
L 54.4375 35.25 
z
" id="TimesNewRomanPSMT-8722"/>
        <path d="M 11.71875 59.71875 
L 27.828125 67.578125 
L 29.4375 67.578125 
L 29.4375 11.671875 
Q 29.4375 6.109375 29.90625 4.734375 
Q 30.375 3.375 31.828125 2.640625 
Q 33.296875 1.90625 37.796875 1.8125 
L 37.796875 0 
L 12.890625 0 
L 12.890625 1.8125 
Q 17.578125 1.90625 18.9375 2.609375 
Q 20.3125 3.328125 20.84375 4.515625 
Q 21.390625 5.71875 21.390625 11.671875 
L 21.390625 47.40625 
Q 21.390625 54.640625 20.90625 56.6875 
Q 20.5625 58.25 19.65625 58.984375 
Q 18.75 59.71875 17.484375 59.71875 
Q 15.671875 59.71875 12.453125 58.203125 
z
" id="TimesNewRomanPSMT-49"/>
        <path d="M 3.609375 32.71875 
Q 3.609375 44.046875 7.03125 52.21875 
Q 10.453125 60.40625 16.109375 64.40625 
Q 20.515625 67.578125 25.203125 67.578125 
Q 32.8125 67.578125 38.875 59.8125 
Q 46.4375 50.203125 46.4375 33.734375 
Q 46.4375 22.21875 43.109375 14.15625 
Q 39.796875 6.109375 34.640625 2.46875 
Q 29.5 -1.171875 24.703125 -1.171875 
Q 15.234375 -1.171875 8.9375 10.015625 
Q 3.609375 19.4375 3.609375 32.71875 
z
M 13.1875 31.5 
Q 13.1875 17.828125 16.546875 9.1875 
Q 19.34375 1.90625 24.859375 1.90625 
Q 27.484375 1.90625 30.3125 4.265625 
Q 33.15625 6.640625 34.625 12.203125 
Q 36.859375 20.609375 36.859375 35.890625 
Q 36.859375 47.21875 34.515625 54.78125 
Q 32.765625 60.40625 29.984375 62.75 
Q 27.984375 64.359375 25.140625 64.359375 
Q 21.828125 64.359375 19.234375 61.375 
Q 15.71875 57.328125 14.453125 48.625 
Q 13.1875 39.9375 13.1875 31.5 
z
" id="TimesNewRomanPSMT-48"/>
       </defs>
       <use xlink:href="#TimesNewRomanPSMT-8722"/>
       <use x="56.396484" xlink:href="#TimesNewRomanPSMT-49"/>
       <use x="106.396484" xlink:href="#TimesNewRomanPSMT-48"/>
      </g>
     </g>
    </g>
    <g id="xtick_2">
     <g id="line2d_2">
      <g>
       <use style="stroke:#000000;stroke-width:0.8;" x="167.380185" xlink:href="#m675d557a6d" y="504"/>
      </g>
     </g>
     <g id="text_2">
      <!-- 0 -->
      <g transform="translate(164.880185 517.94375)scale(0.1 -0.1)">
       <use xlink:href="#TimesNewRomanPSMT-48"/>
      </g>
     </g>
    </g>
    <g id="xtick_3">
     <g id="line2d_3">
      <g>
       <use style="stroke:#000000;stroke-width:0.8;" x="222.935049" xlink:href="#m675d557a6d" y="504"/>
      </g>
     </g>
     <g id="text_3">
      <!-- 10 -->
      <g transform="translate(217.935049 517.94375)scale(0.1 -0.1)">
       <use xlink:href="#TimesNewRomanPSMT-49"/>
       <use x="50" xlink:href="#TimesNewRomanPSMT-48"/>
      </g>
     </g>
    </g>
    <g id="xtick_4">
     <g id="line2d_4">
      <g>
       <use style="stroke:#000000;stroke-width:0.8;" x="278.489913" xlink:href="#m675d557a6d" y="504"/>
      </g>
     </g>
     <g id="text_4">
      <!-- 20 -->
      <g transform="translate(273.489913 517.94375)scale(0.1 -0.1)">
       <defs>
        <path d="M 45.84375 12.75 
L 41.21875 0 
L 2.15625 0 
L 2.15625 1.8125 
Q 19.390625 17.53125 26.421875 27.484375 
Q 33.453125 37.453125 33.453125 45.703125 
Q 33.453125 52 29.59375 56.046875 
Q 25.734375 60.109375 20.359375 60.109375 
Q 15.484375 60.109375 11.59375 57.25 
Q 7.71875 54.390625 5.859375 48.875 
L 4.046875 48.875 
Q 5.28125 57.90625 10.328125 62.734375 
Q 15.375 67.578125 22.953125 67.578125 
Q 31 67.578125 36.390625 62.40625 
Q 41.796875 57.234375 41.796875 50.203125 
Q 41.796875 45.171875 39.453125 40.140625 
Q 35.84375 32.234375 27.734375 23.390625 
Q 15.578125 10.109375 12.546875 7.375 
L 29.828125 7.375 
Q 35.109375 7.375 37.234375 7.765625 
Q 39.359375 8.15625 41.0625 9.34375 
Q 42.78125 10.546875 44.046875 12.75 
z
" id="TimesNewRomanPSMT-50"/>
       </defs>
       <use xlink:href="#TimesNewRomanPSMT-50"/>
       <use x="50" xlink:href="#TimesNewRomanPSMT-48"/>
      </g>
     </g>
    </g>
    <g id="xtick_5">
     <g id="line2d_5">
      <g>
       <use style="stroke:#000000;stroke-width:0.8;" x="334.044778" xlink:href="#m675d557a6d" y="504"/>
      </g>
     </g>
     <g id="text_5">
      <!-- 30 -->
      <g transform="translate(329.044778 517.94375)scale(0.1 -0.1)">
       <defs>
        <path d="M 5.078125 53.609375 
Q 7.90625 60.296875 12.21875 63.9375 
Q 16.546875 67.578125 23 67.578125 
Q 30.953125 67.578125 35.203125 62.40625 
Q 38.421875 58.546875 38.421875 54.15625 
Q 38.421875 46.921875 29.34375 39.203125 
Q 35.453125 36.8125 38.578125 32.375 
Q 41.703125 27.9375 41.703125 21.921875 
Q 41.703125 13.328125 36.234375 7.03125 
Q 29.109375 -1.171875 15.578125 -1.171875 
Q 8.890625 -1.171875 6.46875 0.484375 
Q 4.046875 2.15625 4.046875 4.046875 
Q 4.046875 5.46875 5.1875 6.546875 
Q 6.34375 7.625 7.953125 7.625 
Q 9.1875 7.625 10.453125 7.234375 
Q 11.28125 6.984375 14.203125 5.4375 
Q 17.140625 3.90625 18.265625 3.609375 
Q 20.0625 3.078125 22.125 3.078125 
Q 27.09375 3.078125 30.78125 6.9375 
Q 34.46875 10.796875 34.46875 16.0625 
Q 34.46875 19.921875 32.765625 23.578125 
Q 31.5 26.3125 29.984375 27.734375 
Q 27.875 29.6875 24.21875 31.265625 
Q 20.5625 32.859375 16.75 32.859375 
L 15.1875 32.859375 
L 15.1875 34.328125 
Q 19.046875 34.8125 22.921875 37.109375 
Q 26.8125 39.40625 28.5625 42.625 
Q 30.328125 45.84375 30.328125 49.703125 
Q 30.328125 54.734375 27.171875 57.828125 
Q 24.03125 60.9375 19.34375 60.9375 
Q 11.765625 60.9375 6.6875 52.828125 
z
" id="TimesNewRomanPSMT-51"/>
       </defs>
       <use xlink:href="#TimesNewRomanPSMT-51"/>
       <use x="50" xlink:href="#TimesNewRomanPSMT-48"/>
      </g>
     </g>
    </g>
    <g id="xtick_6">
     <g id="line2d_6">
      <g>
       <use style="stroke:#000000;stroke-width:0.8;" x="389.599642" xlink:href="#m675d557a6d" y="504"/>
      </g>
     </g>
     <g id="text_6">
      <!-- 40 -->
      <g transform="translate(384.599642 517.94375)scale(0.1 -0.1)">
       <defs>
        <path d="M 46.53125 24.421875 
L 46.53125 17.484375 
L 37.640625 17.484375 
L 37.640625 0 
L 29.59375 0 
L 29.59375 17.484375 
L 1.5625 17.484375 
L 1.5625 23.734375 
L 32.28125 67.578125 
L 37.640625 67.578125 
L 37.640625 24.421875 
z
M 29.59375 24.421875 
L 29.59375 57.28125 
L 6.34375 24.421875 
z
" id="TimesNewRomanPSMT-52"/>
       </defs>
       <use xlink:href="#TimesNewRomanPSMT-52"/>
       <use x="50" xlink:href="#TimesNewRomanPSMT-48"/>
      </g>
     </g>
    </g>
    <g id="xtick_7">
     <g id="line2d_7">
      <g>
       <use style="stroke:#000000;stroke-width:0.8;" x="445.154506" xlink:href="#m675d557a6d" y="504"/>
      </g>
     </g>
     <g id="text_7">
      <!-- 50 -->
      <g transform="translate(440.154506 517.94375)scale(0.1 -0.1)">
       <defs>
        <path d="M 43.40625 66.21875 
L 39.59375 57.90625 
L 19.671875 57.90625 
L 15.328125 49.03125 
Q 28.265625 47.125 35.84375 39.40625 
Q 42.328125 32.765625 42.328125 23.78125 
Q 42.328125 18.5625 40.203125 14.109375 
Q 38.09375 9.671875 34.859375 6.546875 
Q 31.640625 3.421875 27.6875 1.515625 
Q 22.078125 -1.171875 16.15625 -1.171875 
Q 10.203125 -1.171875 7.484375 0.84375 
Q 4.78125 2.875 4.78125 5.328125 
Q 4.78125 6.6875 5.90625 7.734375 
Q 7.03125 8.796875 8.734375 8.796875 
Q 10.015625 8.796875 10.96875 8.40625 
Q 11.921875 8.015625 14.203125 6.390625 
Q 17.875 3.859375 21.625 3.859375 
Q 27.34375 3.859375 31.65625 8.171875 
Q 35.984375 12.5 35.984375 18.703125 
Q 35.984375 24.703125 32.125 29.90625 
Q 28.265625 35.109375 21.484375 37.9375 
Q 16.15625 40.140625 6.984375 40.484375 
L 19.671875 66.21875 
z
" id="TimesNewRomanPSMT-53"/>
       </defs>
       <use xlink:href="#TimesNewRomanPSMT-53"/>
       <use x="50" xlink:href="#TimesNewRomanPSMT-48"/>
      </g>
     </g>
    </g>
    <g id="xtick_8">
     <g id="line2d_8">
      <g>
       <use style="stroke:#000000;stroke-width:0.8;" x="500.709371" xlink:href="#m675d557a6d" y="504"/>
      </g>
     </g>
     <g id="text_8">
      <!-- 60 -->
      <g transform="translate(495.709371 517.94375)scale(0.1 -0.1)">
       <defs>
        <path d="M 44.828125 67.578125 
L 44.828125 65.765625 
Q 38.375 65.140625 34.296875 63.203125 
Q 30.21875 61.28125 26.234375 57.328125 
Q 22.265625 53.375 19.65625 48.515625 
Q 17.046875 43.65625 15.28125 36.96875 
Q 22.3125 41.796875 29.390625 41.796875 
Q 36.1875 41.796875 41.15625 36.328125 
Q 46.140625 30.859375 46.140625 22.265625 
Q 46.140625 13.96875 41.109375 7.125 
Q 35.0625 -1.171875 25.09375 -1.171875 
Q 18.3125 -1.171875 13.578125 3.328125 
Q 4.296875 12.0625 4.296875 25.984375 
Q 4.296875 34.859375 7.859375 42.859375 
Q 11.421875 50.875 18.03125 57.078125 
Q 24.65625 63.28125 30.703125 65.421875 
Q 36.765625 67.578125 42 67.578125 
z
M 14.453125 33.40625 
Q 13.578125 26.8125 13.578125 22.75 
Q 13.578125 18.0625 15.3125 12.5625 
Q 17.046875 7.078125 20.453125 3.859375 
Q 22.953125 1.5625 26.515625 1.5625 
Q 30.765625 1.5625 34.109375 5.5625 
Q 37.453125 9.578125 37.453125 17 
Q 37.453125 25.34375 34.125 31.4375 
Q 30.8125 37.546875 24.703125 37.546875 
Q 22.859375 37.546875 20.734375 36.765625 
Q 18.609375 35.984375 14.453125 33.40625 
z
" id="TimesNewRomanPSMT-54"/>
       </defs>
       <use xlink:href="#TimesNewRomanPSMT-54"/>
       <use x="50" xlink:href="#TimesNewRomanPSMT-48"/>
      </g>
     </g>
    </g>
    <g id="text_9">
     <!-- x[px] -->
     <g transform="translate(284.370313 531.026562)scale(0.1 -0.1)">
      <defs>
       <path d="M 1.3125 44.734375 
L 22.359375 44.734375 
L 22.359375 42.921875 
Q 20.359375 42.921875 19.546875 42.234375 
Q 18.75 41.546875 18.75 40.4375 
Q 18.75 39.265625 20.453125 36.8125 
Q 21 36.03125 22.078125 34.375 
L 25.25 29.296875 
L 28.90625 34.375 
Q 32.421875 39.203125 32.421875 40.484375 
Q 32.421875 41.5 31.59375 42.203125 
Q 30.765625 42.921875 28.90625 42.921875 
L 28.90625 44.734375 
L 44.046875 44.734375 
L 44.046875 42.921875 
Q 41.65625 42.78125 39.890625 41.609375 
Q 37.5 39.9375 33.34375 34.375 
L 27.25 26.21875 
L 38.375 10.203125 
Q 42.484375 4.296875 44.234375 3.09375 
Q 46 1.90625 48.78125 1.765625 
L 48.78125 0 
L 27.6875 0 
L 27.6875 1.765625 
Q 29.890625 1.765625 31.109375 2.734375 
Q 32.03125 3.421875 32.03125 4.546875 
Q 32.03125 5.671875 28.90625 10.203125 
L 22.359375 19.78125 
L 15.1875 10.203125 
Q 11.859375 5.765625 11.859375 4.9375 
Q 11.859375 3.765625 12.953125 2.8125 
Q 14.0625 1.859375 16.265625 1.765625 
L 16.265625 0 
L 1.65625 0 
L 1.65625 1.765625 
Q 3.421875 2 4.734375 2.984375 
Q 6.59375 4.390625 10.984375 10.203125 
L 20.359375 22.65625 
L 11.859375 34.96875 
Q 8.25 40.234375 6.265625 41.578125 
Q 4.296875 42.921875 1.3125 42.921875 
z
" id="TimesNewRomanPSMT-120"/>
       <path d="M 29.6875 -19.828125 
L 8.203125 -19.828125 
L 8.203125 67.71875 
L 29.6875 67.71875 
L 29.6875 63.875 
L 15.53125 63.875 
L 15.53125 -16.015625 
L 29.6875 -16.015625 
z
" id="TimesNewRomanPSMT-91"/>
       <path d="M -0.09375 40.28125 
L 13.671875 45.84375 
L 15.53125 45.84375 
L 15.53125 35.40625 
Q 19 41.3125 22.484375 43.671875 
Q 25.984375 46.046875 29.828125 46.046875 
Q 36.578125 46.046875 41.0625 40.765625 
Q 46.578125 34.328125 46.578125 23.96875 
Q 46.578125 12.40625 39.9375 4.828125 
Q 34.46875 -1.375 26.171875 -1.375 
Q 22.5625 -1.375 19.921875 -0.34375 
Q 17.96875 0.390625 15.53125 2.59375 
L 15.53125 -11.03125 
Q 15.53125 -15.625 16.09375 -16.859375 
Q 16.65625 -18.109375 18.046875 -18.84375 
Q 19.4375 -19.578125 23.09375 -19.578125 
L 23.09375 -21.390625 
L -0.34375 -21.390625 
L -0.34375 -19.578125 
L 0.875 -19.578125 
Q 3.5625 -19.625 5.46875 -18.5625 
Q 6.390625 -18.015625 6.90625 -16.8125 
Q 7.421875 -15.625 7.421875 -10.75 
L 7.421875 31.546875 
Q 7.421875 35.890625 7.03125 37.0625 
Q 6.640625 38.234375 5.78125 38.8125 
Q 4.9375 39.40625 3.46875 39.40625 
Q 2.296875 39.40625 0.484375 38.71875 
z
M 15.53125 32.515625 
L 15.53125 15.828125 
Q 15.53125 10.40625 15.96875 8.6875 
Q 16.65625 5.859375 19.3125 3.703125 
Q 21.96875 1.5625 26.03125 1.5625 
Q 30.90625 1.5625 33.9375 5.375 
Q 37.890625 10.359375 37.890625 19.390625 
Q 37.890625 29.640625 33.40625 35.15625 
Q 30.28125 38.96875 25.984375 38.96875 
Q 23.640625 38.96875 21.34375 37.796875 
Q 19.578125 36.921875 15.53125 32.515625 
z
" id="TimesNewRomanPSMT-112"/>
       <path d="M 3.65625 67.71875 
L 25.140625 67.71875 
L 25.140625 -19.875 
L 3.65625 -19.875 
L 3.65625 -16.015625 
L 17.828125 -16.015625 
L 17.828125 63.875 
L 3.65625 63.875 
z
" id="TimesNewRomanPSMT-93"/>
      </defs>
      <use xlink:href="#TimesNewRomanPSMT-120"/>
      <use x="50" xlink:href="#TimesNewRomanPSMT-91"/>
      <use x="83.300781" xlink:href="#TimesNewRomanPSMT-112"/>
      <use x="133.300781" xlink:href="#TimesNewRomanPSMT-120"/>
      <use x="183.300781" xlink:href="#TimesNewRomanPSMT-93"/>
     </g>
    </g>
   </g>
   <g id="matplotlib.axis_2">
    <g id="ytick_1">
     <g id="line2d_9">
      <defs>
       <path d="M 0 0 
L -3.5 0 
" id="m4b13c47eda" style="stroke:#000000;stroke-width:0.8;"/>
      </defs>
      <g>
       <use style="stroke:#000000;stroke-width:0.8;" x="72" xlink:href="#m4b13c47eda" y="118.33061"/>
      </g>
     </g>
     <g id="text_10">
      <!-- −60 -->
      <g transform="translate(49.360937 121.802485)scale(0.1 -0.1)">
       <use xlink:href="#TimesNewRomanPSMT-8722"/>
       <use x="56.396484" xlink:href="#TimesNewRomanPSMT-54"/>
       <use x="106.396484" xlink:href="#TimesNewRomanPSMT-48"/>
      </g>
     </g>
    </g>
    <g id="ytick_2">
     <g id="line2d_10">
      <g>
       <use style="stroke:#000000;stroke-width:0.8;" x="72" xlink:href="#m4b13c47eda" y="173.885474"/>
      </g>
     </g>
     <g id="text_11">
      <!-- −50 -->
      <g transform="translate(49.360937 177.357349)scale(0.1 -0.1)">
       <use xlink:href="#TimesNewRomanPSMT-8722"/>
       <use x="56.396484" xlink:href="#TimesNewRomanPSMT-53"/>
       <use x="106.396484" xlink:href="#TimesNewRomanPSMT-48"/>
      </g>
     </g>
    </g>
    <g id="ytick_3">
     <g id="line2d_11">
      <g>
       <use style="stroke:#000000;stroke-width:0.8;" x="72" xlink:href="#m4b13c47eda" y="229.440338"/>
      </g>
     </g>
     <g id="text_12">
      <!-- −40 -->
      <g transform="translate(49.360937 232.912213)scale(0.1 -0.1)">
       <use xlink:href="#TimesNewRomanPSMT-8722"/>
       <use x="56.396484" xlink:href="#TimesNewRomanPSMT-52"/>
       <use x="106.396484" xlink:href="#TimesNewRomanPSMT-48"/>
      </g>
     </g>
    </g>
    <g id="ytick_4">
     <g id="line2d_12">
      <g>
       <use style="stroke:#000000;stroke-width:0.8;" x="72" xlink:href="#m4b13c47eda" y="284.995203"/>
      </g>
     </g>
     <g id="text_13">
      <!-- −30 -->
      <g transform="translate(49.360937 288.467078)scale(0.1 -0.1)">
       <use xlink:href="#TimesNewRomanPSMT-8722"/>
       <use x="56.396484" xlink:href="#TimesNewRomanPSMT-51"/>
       <use x="106.396484" xlink:href="#TimesNewRomanPSMT-48"/>
      </g>
     </g>
    </g>
    <g id="ytick_5">
     <g id="line2d_13">
      <g>
       <use style="stroke:#000000;stroke-width:0.8;" x="72" xlink:href="#m4b13c47eda" y="340.550067"/>
      </g>
     </g>
     <g id="text_14">
      <!-- −20 -->
      <g transform="translate(49.360937 344.021942)scale(0.1 -0.1)">
       <use xlink:href="#TimesNewRomanPSMT-8722"/>
       <use x="56.396484" xlink:href="#TimesNewRomanPSMT-50"/>
       <use x="106.396484" xlink:href="#TimesNewRomanPSMT-48"/>
      </g>
     </g>
    </g>
    <g id="ytick_6">
     <g id="line2d_14">
      <g>
       <use style="stroke:#000000;stroke-width:0.8;" x="72" xlink:href="#m4b13c47eda" y="396.104931"/>
      </g>
     </g>
     <g id="text_15">
      <!-- −10 -->
      <g transform="translate(49.360937 399.576806)scale(0.1 -0.1)">
       <use xlink:href="#TimesNewRomanPSMT-8722"/>
       <use x="56.396484" xlink:href="#TimesNewRomanPSMT-49"/>
       <use x="106.396484" xlink:href="#TimesNewRomanPSMT-48"/>
      </g>
     </g>
    </g>
    <g id="ytick_7">
     <g id="line2d_15">
      <g>
       <use style="stroke:#000000;stroke-width:0.8;" x="72" xlink:href="#m4b13c47eda" y="451.659796"/>
      </g>
     </g>
     <g id="text_16">
      <!-- 0 -->
      <g transform="translate(60 455.131671)scale(0.1 -0.1)">
       <use xlink:href="#TimesNewRomanPSMT-48"/>
      </g>
     </g>
    </g>
    <g id="text_17">
     <!-- y[px] -->
     <g transform="translate(43.203125 297.389687)rotate(-90)scale(0.1 -0.1)">
      <defs>
       <path d="M 0.59375 44.734375 
L 21.4375 44.734375 
L 21.4375 42.921875 
L 20.40625 42.921875 
Q 18.21875 42.921875 17.109375 41.96875 
Q 16.015625 41.015625 16.015625 39.59375 
Q 16.015625 37.703125 17.625 34.328125 
L 28.515625 11.765625 
L 38.53125 36.46875 
Q 39.359375 38.484375 39.359375 40.4375 
Q 39.359375 41.3125 39.015625 41.75 
Q 38.625 42.28125 37.796875 42.59375 
Q 36.96875 42.921875 34.859375 42.921875 
L 34.859375 44.734375 
L 49.421875 44.734375 
L 49.421875 42.921875 
Q 47.609375 42.71875 46.625 42.125 
Q 45.65625 41.546875 44.484375 39.9375 
Q 44.046875 39.265625 42.828125 36.1875 
L 24.609375 -8.453125 
Q 21.96875 -14.9375 17.6875 -18.25 
Q 13.421875 -21.578125 9.46875 -21.578125 
Q 6.59375 -21.578125 4.734375 -19.921875 
Q 2.875 -18.265625 2.875 -16.109375 
Q 2.875 -14.0625 4.21875 -12.8125 
Q 5.5625 -11.578125 7.90625 -11.578125 
Q 9.515625 -11.578125 12.3125 -12.640625 
Q 14.265625 -13.375 14.75 -13.375 
Q 16.21875 -13.375 17.9375 -11.859375 
Q 19.671875 -10.359375 21.4375 -6 
L 24.609375 1.765625 
L 8.546875 35.5 
Q 7.8125 37.015625 6.203125 39.265625 
Q 4.984375 40.96875 4.203125 41.546875 
Q 3.078125 42.328125 0.59375 42.921875 
z
" id="TimesNewRomanPSMT-121"/>
      </defs>
      <use xlink:href="#TimesNewRomanPSMT-121"/>
      <use x="50" xlink:href="#TimesNewRomanPSMT-91"/>
      <use x="83.300781" xlink:href="#TimesNewRomanPSMT-112"/>
      <use x="133.300781" xlink:href="#TimesNewRomanPSMT-120"/>
      <use x="183.300781" xlink:href="#TimesNewRomanPSMT-93"/>
     </g>
    </g>
   </g>
   <g id="patch_5">
    <path d="M 72 504 
L 72 69.12 
" style="fill:none;stroke:#000000;stroke-linecap:square;stroke-linejoin:miter;stroke-width:0.8;"/>
   </g>
   <g id="patch_6">
    <path d="M 518.4 504 
L 518.4 69.12 
" style="fill:none;stroke:#000000;stroke-linecap:square;stroke-linejoin:miter;stroke-width:0.8;"/>
   </g>
   <g id="patch_7">
    <path d="M 72 504 
L 518.4 504 
" style="fill:none;stroke:#000000;stroke-linecap:square;stroke-linejoin:miter;stroke-width:0.8;"/>
   </g>
   <g id="patch_8">
    <path d="M 72 69.12 
L 518.4 69.12 
" style="fill:none;stroke:#000000;stroke-linecap:square;stroke-linejoin:miter;stroke-width:0.8;"/>
   </g>
   <g id="text_18">
    <!-- Sublattice positions -->
    <g transform="translate(248.034375 63.12)scale(0.12 -0.12)">
     <defs>
      <path d="M 45.84375 67.71875 
L 45.84375 44.828125 
L 44.046875 44.828125 
Q 43.171875 51.421875 40.890625 55.328125 
Q 38.625 59.234375 34.421875 61.515625 
Q 30.21875 63.8125 25.734375 63.8125 
Q 20.65625 63.8125 17.328125 60.71875 
Q 14.015625 57.625 14.015625 53.65625 
Q 14.015625 50.640625 16.109375 48.140625 
Q 19.140625 44.484375 30.515625 38.375 
Q 39.796875 33.40625 43.1875 30.734375 
Q 46.578125 28.078125 48.40625 24.453125 
Q 50.25 20.84375 50.25 16.890625 
Q 50.25 9.375 44.40625 3.921875 
Q 38.578125 -1.515625 29.390625 -1.515625 
Q 26.515625 -1.515625 23.96875 -1.078125 
Q 22.46875 -0.828125 17.703125 0.703125 
Q 12.9375 2.25 11.671875 2.25 
Q 10.453125 2.25 9.734375 1.515625 
Q 9.03125 0.78125 8.6875 -1.515625 
L 6.890625 -1.515625 
L 6.890625 21.1875 
L 8.6875 21.1875 
Q 9.96875 14.0625 12.109375 10.515625 
Q 14.265625 6.984375 18.671875 4.640625 
Q 23.09375 2.296875 28.375 2.296875 
Q 34.46875 2.296875 38 5.515625 
Q 41.546875 8.734375 41.546875 13.140625 
Q 41.546875 15.578125 40.203125 18.0625 
Q 38.875 20.5625 36.03125 22.703125 
Q 34.125 24.171875 25.625 28.921875 
Q 17.140625 33.6875 13.546875 36.515625 
Q 9.96875 39.359375 8.109375 42.765625 
Q 6.25 46.1875 6.25 50.296875 
Q 6.25 57.421875 11.71875 62.5625 
Q 17.1875 67.71875 25.640625 67.71875 
Q 30.90625 67.71875 36.8125 65.140625 
Q 39.546875 63.921875 40.671875 63.921875 
Q 41.9375 63.921875 42.75 64.671875 
Q 43.5625 65.4375 44.046875 67.71875 
z
" id="TimesNewRomanPSMT-83"/>
      <path d="M 42.328125 44.734375 
L 42.328125 17.625 
Q 42.328125 9.859375 42.6875 8.125 
Q 43.0625 6.390625 43.859375 5.703125 
Q 44.671875 5.03125 45.75 5.03125 
Q 47.265625 5.03125 49.171875 5.859375 
L 49.859375 4.15625 
L 36.46875 -1.375 
L 34.28125 -1.375 
L 34.28125 8.109375 
Q 28.515625 1.859375 25.484375 0.234375 
Q 22.46875 -1.375 19.09375 -1.375 
Q 15.328125 -1.375 12.5625 0.796875 
Q 9.8125 2.984375 8.734375 6.390625 
Q 7.671875 9.8125 7.671875 16.0625 
L 7.671875 36.03125 
Q 7.671875 39.203125 6.984375 40.421875 
Q 6.296875 41.65625 4.953125 42.3125 
Q 3.609375 42.96875 0.09375 42.921875 
L 0.09375 44.734375 
L 15.765625 44.734375 
L 15.765625 14.796875 
Q 15.765625 8.546875 17.9375 6.59375 
Q 20.125 4.640625 23.1875 4.640625 
Q 25.296875 4.640625 27.953125 5.953125 
Q 30.609375 7.28125 34.28125 10.984375 
L 34.28125 36.328125 
Q 34.28125 40.140625 32.890625 41.484375 
Q 31.5 42.828125 27.09375 42.921875 
L 27.09375 44.734375 
z
" id="TimesNewRomanPSMT-117"/>
      <path d="M 15.375 37.015625 
Q 21.875 46.046875 29.390625 46.046875 
Q 36.28125 46.046875 41.40625 40.15625 
Q 46.53125 34.28125 46.53125 24.078125 
Q 46.53125 12.15625 38.625 4.890625 
Q 31.84375 -1.375 23.484375 -1.375 
Q 19.578125 -1.375 15.546875 0.046875 
Q 11.53125 1.46875 7.328125 4.296875 
L 7.328125 50.640625 
Q 7.328125 58.25 6.953125 60 
Q 6.59375 61.765625 5.8125 62.390625 
Q 5.03125 63.03125 3.859375 63.03125 
Q 2.484375 63.03125 0.4375 62.25 
L -0.25 63.96875 
L 13.1875 69.4375 
L 15.375 69.4375 
z
M 15.375 33.890625 
L 15.375 7.125 
Q 17.875 4.6875 20.53125 3.4375 
Q 23.1875 2.203125 25.984375 2.203125 
Q 30.421875 2.203125 34.25 7.078125 
Q 38.09375 11.96875 38.09375 21.296875 
Q 38.09375 29.890625 34.25 34.5 
Q 30.421875 39.109375 25.53125 39.109375 
Q 22.953125 39.109375 20.359375 37.796875 
Q 18.40625 36.8125 15.375 33.890625 
z
" id="TimesNewRomanPSMT-98"/>
      <path d="M 18.5 69.4375 
L 18.5 10.109375 
Q 18.5 5.90625 19.109375 4.53125 
Q 19.734375 3.171875 21 2.46875 
Q 22.265625 1.765625 25.734375 1.765625 
L 25.734375 0 
L 3.8125 0 
L 3.8125 1.765625 
Q 6.890625 1.765625 8 2.390625 
Q 9.125 3.03125 9.765625 4.484375 
Q 10.40625 5.953125 10.40625 10.109375 
L 10.40625 50.734375 
Q 10.40625 58.296875 10.0625 60.03125 
Q 9.71875 61.765625 8.953125 62.390625 
Q 8.203125 63.03125 7.03125 63.03125 
Q 5.765625 63.03125 3.8125 62.25 
L 2.984375 63.96875 
L 16.3125 69.4375 
z
" id="TimesNewRomanPSMT-108"/>
      <path d="M 28.46875 6.453125 
Q 21.578125 1.125 19.828125 0.296875 
Q 17.1875 -0.921875 14.203125 -0.921875 
Q 9.578125 -0.921875 6.5625 2.25 
Q 3.5625 5.421875 3.5625 10.59375 
Q 3.5625 13.875 5.03125 16.265625 
Q 7.03125 19.578125 11.984375 22.5 
Q 16.9375 25.4375 28.46875 29.640625 
L 28.46875 31.390625 
Q 28.46875 38.09375 26.34375 40.578125 
Q 24.21875 43.0625 20.171875 43.0625 
Q 17.09375 43.0625 15.28125 41.40625 
Q 13.421875 39.75 13.421875 37.59375 
L 13.53125 34.765625 
Q 13.53125 32.515625 12.375 31.296875 
Q 11.234375 30.078125 9.375 30.078125 
Q 7.5625 30.078125 6.421875 31.34375 
Q 5.28125 32.625 5.28125 34.8125 
Q 5.28125 39.015625 9.578125 42.53125 
Q 13.875 46.046875 21.625 46.046875 
Q 27.59375 46.046875 31.390625 44.046875 
Q 34.28125 42.53125 35.640625 39.3125 
Q 36.53125 37.203125 36.53125 30.71875 
L 36.53125 15.53125 
Q 36.53125 9.125 36.765625 7.6875 
Q 37.015625 6.25 37.578125 5.765625 
Q 38.140625 5.28125 38.875 5.28125 
Q 39.65625 5.28125 40.234375 5.609375 
Q 41.265625 6.25 44.1875 9.1875 
L 44.1875 6.453125 
Q 38.71875 -0.875 33.734375 -0.875 
Q 31.34375 -0.875 29.921875 0.78125 
Q 28.515625 2.4375 28.46875 6.453125 
z
M 28.46875 9.625 
L 28.46875 26.65625 
Q 21.09375 23.734375 18.953125 22.515625 
Q 15.09375 20.359375 13.421875 18.015625 
Q 11.765625 15.671875 11.765625 12.890625 
Q 11.765625 9.375 13.859375 7.046875 
Q 15.96875 4.734375 18.703125 4.734375 
Q 22.40625 4.734375 28.46875 9.625 
z
" id="TimesNewRomanPSMT-97"/>
      <path d="M 16.109375 59.421875 
L 16.109375 44.734375 
L 26.5625 44.734375 
L 26.5625 41.3125 
L 16.109375 41.3125 
L 16.109375 12.3125 
Q 16.109375 7.953125 17.359375 6.4375 
Q 18.609375 4.9375 20.5625 4.9375 
Q 22.171875 4.9375 23.6875 5.9375 
Q 25.203125 6.9375 26.03125 8.890625 
L 27.9375 8.890625 
Q 26.21875 4.109375 23.09375 1.6875 
Q 19.96875 -0.734375 16.65625 -0.734375 
Q 14.40625 -0.734375 12.25 0.515625 
Q 10.109375 1.765625 9.078125 4.078125 
Q 8.0625 6.390625 8.0625 11.234375 
L 8.0625 41.3125 
L 0.984375 41.3125 
L 0.984375 42.921875 
Q 3.65625 44 6.46875 46.5625 
Q 9.28125 49.125 11.46875 52.640625 
Q 12.59375 54.5 14.59375 59.421875 
z
" id="TimesNewRomanPSMT-116"/>
      <path d="M 14.5 69.4375 
Q 16.546875 69.4375 17.984375 67.984375 
Q 19.4375 66.546875 19.4375 64.5 
Q 19.4375 62.453125 17.984375 60.984375 
Q 16.546875 59.515625 14.5 59.515625 
Q 12.453125 59.515625 10.984375 60.984375 
Q 9.515625 62.453125 9.515625 64.5 
Q 9.515625 66.546875 10.953125 67.984375 
Q 12.40625 69.4375 14.5 69.4375 
z
M 18.5625 46.046875 
L 18.5625 10.109375 
Q 18.5625 5.90625 19.171875 4.515625 
Q 19.78125 3.125 20.96875 2.4375 
Q 22.171875 1.765625 25.34375 1.765625 
L 25.34375 0 
L 3.609375 0 
L 3.609375 1.765625 
Q 6.890625 1.765625 8 2.390625 
Q 9.125 3.03125 9.78125 4.484375 
Q 10.453125 5.953125 10.453125 10.109375 
L 10.453125 27.34375 
Q 10.453125 34.625 10.015625 36.765625 
Q 9.671875 38.328125 8.9375 38.9375 
Q 8.203125 39.546875 6.9375 39.546875 
Q 5.5625 39.546875 3.609375 38.8125 
L 2.9375 40.578125 
L 16.40625 46.046875 
z
" id="TimesNewRomanPSMT-105"/>
      <path d="M 41.109375 17 
Q 39.3125 8.15625 34.03125 3.390625 
Q 28.765625 -1.375 22.359375 -1.375 
Q 14.75 -1.375 9.078125 5.015625 
Q 3.421875 11.421875 3.421875 22.3125 
Q 3.421875 32.859375 9.6875 39.453125 
Q 15.96875 46.046875 24.75 46.046875 
Q 31.34375 46.046875 35.59375 42.546875 
Q 39.84375 39.0625 39.84375 35.296875 
Q 39.84375 33.453125 38.640625 32.296875 
Q 37.453125 31.15625 35.296875 31.15625 
Q 32.421875 31.15625 30.953125 33.015625 
Q 30.125 34.03125 29.859375 36.90625 
Q 29.59375 39.796875 27.875 41.3125 
Q 26.171875 42.78125 23.140625 42.78125 
Q 18.265625 42.78125 15.28125 39.15625 
Q 11.328125 34.375 11.328125 26.515625 
Q 11.328125 18.5 15.25 12.375 
Q 19.1875 6.25 25.875 6.25 
Q 30.671875 6.25 34.46875 9.515625 
Q 37.15625 11.765625 39.703125 17.671875 
z
" id="TimesNewRomanPSMT-99"/>
      <path d="M 10.640625 27.875 
Q 10.59375 17.921875 15.484375 12.25 
Q 20.359375 6.59375 26.953125 6.59375 
Q 31.34375 6.59375 34.59375 9 
Q 37.84375 11.421875 40.046875 17.28125 
L 41.546875 16.3125 
Q 40.53125 9.625 35.59375 4.125 
Q 30.671875 -1.375 23.25 -1.375 
Q 15.1875 -1.375 9.453125 4.90625 
Q 3.71875 11.1875 3.71875 21.78125 
Q 3.71875 33.25 9.59375 39.671875 
Q 15.484375 46.09375 24.359375 46.09375 
Q 31.890625 46.09375 36.71875 41.140625 
Q 41.546875 36.1875 41.546875 27.875 
z
M 10.640625 30.71875 
L 31.34375 30.71875 
Q 31.109375 35.015625 30.328125 36.765625 
Q 29.109375 39.5 26.6875 41.0625 
Q 24.265625 42.625 21.625 42.625 
Q 17.578125 42.625 14.375 39.46875 
Q 11.1875 36.328125 10.640625 30.71875 
z
" id="TimesNewRomanPSMT-101"/>
      <path id="TimesNewRomanPSMT-32"/>
      <path d="M 25 46.046875 
Q 35.15625 46.046875 41.3125 38.328125 
Q 46.53125 31.734375 46.53125 23.1875 
Q 46.53125 17.1875 43.640625 11.03125 
Q 40.765625 4.890625 35.71875 1.75 
Q 30.671875 -1.375 24.46875 -1.375 
Q 14.359375 -1.375 8.40625 6.6875 
Q 3.375 13.484375 3.375 21.921875 
Q 3.375 28.078125 6.421875 34.15625 
Q 9.46875 40.234375 14.453125 43.140625 
Q 19.4375 46.046875 25 46.046875 
z
M 23.484375 42.875 
Q 20.90625 42.875 18.28125 41.328125 
Q 15.671875 39.796875 14.0625 35.9375 
Q 12.453125 32.078125 12.453125 26.03125 
Q 12.453125 16.265625 16.328125 9.171875 
Q 20.21875 2.09375 26.5625 2.09375 
Q 31.296875 2.09375 34.375 6 
Q 37.453125 9.90625 37.453125 19.4375 
Q 37.453125 31.34375 32.328125 38.1875 
Q 28.859375 42.875 23.484375 42.875 
z
" id="TimesNewRomanPSMT-111"/>
      <path d="M 32.03125 46.046875 
L 32.03125 30.8125 
L 30.421875 30.8125 
Q 28.5625 37.984375 25.65625 40.578125 
Q 22.75 43.171875 18.265625 43.171875 
Q 14.84375 43.171875 12.734375 41.359375 
Q 10.640625 39.546875 10.640625 37.359375 
Q 10.640625 34.625 12.203125 32.671875 
Q 13.71875 30.671875 18.359375 28.421875 
L 25.484375 24.953125 
Q 35.40625 20.125 35.40625 12.203125 
Q 35.40625 6.109375 30.78125 2.359375 
Q 26.171875 -1.375 20.453125 -1.375 
Q 16.359375 -1.375 11.078125 0.09375 
Q 9.46875 0.59375 8.453125 0.59375 
Q 7.328125 0.59375 6.6875 -0.6875 
L 5.078125 -0.6875 
L 5.078125 15.28125 
L 6.6875 15.28125 
Q 8.0625 8.453125 11.90625 4.984375 
Q 15.765625 1.515625 20.5625 1.515625 
Q 23.921875 1.515625 26.046875 3.484375 
Q 28.171875 5.46875 28.171875 8.25 
Q 28.171875 11.625 25.796875 13.921875 
Q 23.4375 16.21875 16.359375 19.734375 
Q 9.28125 23.25 7.078125 26.078125 
Q 4.890625 28.859375 4.890625 33.109375 
Q 4.890625 38.625 8.671875 42.328125 
Q 12.453125 46.046875 18.453125 46.046875 
Q 21.09375 46.046875 24.859375 44.921875 
Q 27.34375 44.1875 28.171875 44.1875 
Q 28.953125 44.1875 29.390625 44.53125 
Q 29.828125 44.875 30.421875 46.046875 
z
" id="TimesNewRomanPSMT-115"/>
      <path d="M 16.15625 36.578125 
Q 24.03125 46.046875 31.15625 46.046875 
Q 34.8125 46.046875 37.453125 44.21875 
Q 40.09375 42.390625 41.65625 38.1875 
Q 42.71875 35.25 42.71875 29.203125 
L 42.71875 10.109375 
Q 42.71875 5.859375 43.40625 4.34375 
Q 43.953125 3.125 45.140625 2.4375 
Q 46.34375 1.765625 49.5625 1.765625 
L 49.5625 0 
L 27.4375 0 
L 27.4375 1.765625 
L 28.375 1.765625 
Q 31.5 1.765625 32.734375 2.703125 
Q 33.984375 3.65625 34.46875 5.515625 
Q 34.671875 6.25 34.671875 10.109375 
L 34.671875 28.421875 
Q 34.671875 34.515625 33.078125 37.28125 
Q 31.5 40.046875 27.734375 40.046875 
Q 21.921875 40.046875 16.15625 33.6875 
L 16.15625 10.109375 
Q 16.15625 5.5625 16.703125 4.5 
Q 17.390625 3.078125 18.578125 2.421875 
Q 19.78125 1.765625 23.4375 1.765625 
L 23.4375 0 
L 1.3125 0 
L 1.3125 1.765625 
L 2.296875 1.765625 
Q 5.71875 1.765625 6.90625 3.484375 
Q 8.109375 5.21875 8.109375 10.109375 
L 8.109375 26.703125 
Q 8.109375 34.765625 7.734375 36.515625 
Q 7.375 38.28125 6.609375 38.90625 
Q 5.859375 39.546875 4.59375 39.546875 
Q 3.21875 39.546875 1.3125 38.8125 
L 0.59375 40.578125 
L 14.0625 46.046875 
L 16.15625 46.046875 
z
" id="TimesNewRomanPSMT-110"/>
     </defs>
     <use xlink:href="#TimesNewRomanPSMT-83"/>
     <use x="55.615234" xlink:href="#TimesNewRomanPSMT-117"/>
     <use x="105.615234" xlink:href="#TimesNewRomanPSMT-98"/>
     <use x="155.615234" xlink:href="#TimesNewRomanPSMT-108"/>
     <use x="183.398438" xlink:href="#TimesNewRomanPSMT-97"/>
     <use x="227.783203" xlink:href="#TimesNewRomanPSMT-116"/>
     <use x="255.566406" xlink:href="#TimesNewRomanPSMT-116"/>
     <use x="283.349609" xlink:href="#TimesNewRomanPSMT-105"/>
     <use x="311.132812" xlink:href="#TimesNewRomanPSMT-99"/>
     <use x="355.517578" xlink:href="#TimesNewRomanPSMT-101"/>
     <use x="399.902344" xlink:href="#TimesNewRomanPSMT-32"/>
     <use x="424.902344" xlink:href="#TimesNewRomanPSMT-112"/>
     <use x="474.902344" xlink:href="#TimesNewRomanPSMT-111"/>
     <use x="524.902344" xlink:href="#TimesNewRomanPSMT-115"/>
     <use x="563.818359" xlink:href="#TimesNewRomanPSMT-105"/>
     <use x="591.601562" xlink:href="#TimesNewRomanPSMT-116"/>
     <use x="619.384766" xlink:href="#TimesNewRomanPSMT-105"/>
     <use x="647.167969" xlink:href="#TimesNewRomanPSMT-111"/>
     <use x="697.167969" xlink:href="#TimesNewRomanPSMT-110"/>
     <use x="747.167969" xlink:href="#TimesNewRomanPSMT-115"/>
    </g>
   </g>
   <g id="legend_1">
    <g id="patch_9">
     <path d="M 474.4 105.398125 
L 511.4 105.398125 
Q 513.4 105.398125 513.4 103.398125 
L 513.4 76.12 
Q 513.4 74.12 511.4 74.12 
L 474.4 74.12 
Q 472.4 74.12 472.4 76.12 
L 472.4 103.398125 
Q 472.4 105.398125 474.4 105.398125 
z
" style="fill:#ffffff;opacity:0.8;stroke:#cccccc;stroke-linejoin:miter;"/>
    </g>
    <g id="PathCollection_4">
     <g>
      <use style="fill:#1f77b4;stroke:#1f77b4;" x="486.4" xlink:href="#m4b9c180eda" y="82.495"/>
     </g>
    </g>
    <g id="text_19">
     <!-- 0 -->
     <g transform="translate(504.4 85.12)scale(0.1 -0.1)">
      <use xlink:href="#TimesNewRomanPSMT-48"/>
     </g>
    </g>
    <g id="PathCollection_5">
     <g>
      <use style="fill:#ff7f0e;stroke:#ff7f0e;" x="486.4" xlink:href="#m10b608b7bb" y="96.634063"/>
     </g>
    </g>
    <g id="text_20">
     <!-- 1 -->
     <g transform="translate(504.4 99.259063)scale(0.1 -0.1)">
      <use xlink:href="#TimesNewRomanPSMT-49"/>
     </g>
    </g>
   </g>
  </g>
 </g>
 <defs>
  <clipPath id="p79c9db4cee">
   <rect height="434.88" width="446.4" x="72" y="69.12"/>
  </clipPath>
 </defs>
</svg>
